<svg width="39" height="39" viewBox="0 0 39 39" fill="none" xmlns="http://www.w3.org/2000/svg">
<path d="M35.7497 20.634C35.7472 23.0221 35.729 25.0519 35.5934 26.7174C35.4359 28.6502 35.1132 30.2651 34.3909 31.6064C34.0724 32.1979 33.6809 32.7278 33.2043 33.2044C31.8516 34.5569 30.1283 35.1696 27.9445 35.4633C25.8107 35.7501 23.0761 35.7501 19.5868 35.7501H19.4132C15.9238 35.7501 13.1892 35.7501 11.0556 35.4633C8.8717 35.1696 7.14841 34.5569 5.79579 33.2044C4.59665 32.0051 3.9774 30.5127 3.64809 28.6612C3.3246 26.8425 3.26542 24.5797 3.25312 21.7697C3.25 21.0551 3.25 20.2991 3.25 19.5016V19.4133C3.24998 15.9239 3.24997 13.1893 3.53683 11.0557C3.83045 8.8718 4.44317 7.14851 5.79579 5.79589C7.14841 4.44327 8.8717 3.83055 11.0556 3.53693C12.9531 3.28182 15.3944 3.25359 18.3658 3.25049C18.9919 3.24982 19.5 3.75768 19.5 4.38381C19.5 5.00996 18.9917 5.5173 18.3656 5.51797C15.3522 5.52115 13.1097 5.5486 11.3577 5.78414C9.42526 6.04396 8.26022 6.53811 7.39911 7.39921C6.53801 8.26032 6.04386 9.42536 5.78404 11.3578C5.51985 13.3229 5.51744 15.9051 5.51744 19.5001C5.51744 19.9392 5.51744 20.3636 5.51796 20.7747L7.03131 19.4507C8.40881 18.2453 10.4849 18.3145 11.7792 19.6087L18.2637 26.0932C19.3026 27.1321 20.9378 27.2736 22.1398 26.4289L22.5906 26.1121C24.3202 24.8966 26.6604 25.0375 28.2318 26.4517L32.5104 30.3025C32.941 29.398 33.1968 28.2096 33.3333 26.5333C33.462 24.9538 33.4797 23.0353 33.4822 20.6342C33.4828 20.0081 33.9901 19.5001 34.6162 19.5001C35.2424 19.5001 35.7503 20.0079 35.7497 20.634Z" fill="#515151"/>
<path fill-rule="evenodd" clip-rule="evenodd" d="M28.4375 17.875C24.9904 17.875 23.2668 17.875 22.1959 16.8041C21.125 15.7332 21.125 14.0096 21.125 10.5625C21.125 7.11536 21.125 5.39178 22.1959 4.32089C23.2668 3.25 24.9904 3.25 28.4375 3.25C31.8846 3.25 33.6082 3.25 34.6791 4.32089C35.75 5.39178 35.75 7.11536 35.75 10.5625C35.75 14.0096 35.75 15.7332 34.6791 16.8041C33.6082 17.875 31.8846 17.875 28.4375 17.875ZM29.6562 7.3125C29.6562 6.63941 29.1106 6.09375 28.4375 6.09375C27.7644 6.09375 27.2188 6.63941 27.2188 7.3125V9.34375H25.1875C24.5144 9.34375 23.9688 9.88941 23.9688 10.5625C23.9688 11.2356 24.5144 11.7812 25.1875 11.7812H27.2188V13.8125C27.2188 14.4856 27.7644 15.0312 28.4375 15.0312C29.1106 15.0312 29.6562 14.4856 29.6562 13.8125V11.7812H31.6875C32.3606 11.7812 32.9062 11.2356 32.9062 10.5625C32.9062 9.88941 32.3606 9.34375 31.6875 9.34375H29.6562V7.3125Z" fill="#515151"/>
</svg>
