<svg width="41" height="41" viewBox="0 0 41 41" fill="none" xmlns="http://www.w3.org/2000/svg">
<path d="M12.8945 19.0445C12.7079 19.2395 12.5616 19.4694 12.464 19.721C12.259 20.2201 12.259 20.7799 12.464 21.279C12.5616 21.5306 12.7079 21.7605 12.8945 21.9555L19.0445 28.1055C19.4305 28.4915 19.9541 28.7084 20.5 28.7084C21.0459 28.7084 21.5695 28.4915 21.9555 28.1055C22.3415 27.7195 22.5584 27.1959 22.5584 26.65C22.5584 26.1041 22.3415 25.5805 21.9555 25.1945L19.2905 22.55H26.65C27.1937 22.55 27.7151 22.334 28.0996 21.9496C28.484 21.5651 28.7 21.0437 28.7 20.5C28.7 19.9563 28.484 19.4349 28.0996 19.0504C27.7151 18.666 27.1937 18.45 26.65 18.45H19.2905L21.9555 15.8055C22.1476 15.6149 22.3001 15.3882 22.4042 15.1384C22.5083 14.8886 22.5619 14.6206 22.5619 14.35C22.5619 14.0794 22.5083 13.8114 22.4042 13.5616C22.3001 13.3118 22.1476 13.0851 21.9555 12.8945C21.7649 12.7024 21.5382 12.5498 21.2884 12.4458C21.0386 12.3417 20.7706 12.2881 20.5 12.2881C20.2294 12.2881 19.9614 12.3417 19.7116 12.4458C19.4618 12.5498 19.2351 12.7024 19.0445 12.8945L12.8945 19.0445ZM0 20.5C0 24.5545 1.2023 28.518 3.45487 31.8892C5.70744 35.2604 8.9091 37.8879 12.655 39.4395C16.4009 40.9911 20.5227 41.3971 24.4993 40.6061C28.476 39.8151 32.1287 37.8627 34.9957 34.9957C37.8627 32.1287 39.8151 28.476 40.6061 24.4993C41.3971 20.5227 40.9911 16.4009 39.4395 12.655C37.8879 8.9091 35.2604 5.70744 31.8892 3.45487C28.518 1.2023 24.5545 0 20.5 0C17.8079 0 15.1422 0.530248 12.655 1.56047C10.1678 2.59069 7.90791 4.10071 6.00431 6.00431C2.15981 9.8488 0 15.0631 0 20.5ZM36.9 20.5C36.9 23.7436 35.9381 26.9144 34.1361 29.6113C32.334 32.3083 29.7727 34.4103 26.776 35.6516C23.7793 36.8929 20.4818 37.2177 17.3005 36.5849C14.1192 35.9521 11.197 34.3901 8.90345 32.0965C6.60987 29.803 5.04792 26.8808 4.41512 23.6995C3.78232 20.5182 4.1071 17.2207 5.34837 14.224C6.58965 11.2273 8.69168 8.66595 11.3886 6.8639C14.0856 5.06184 17.2564 4.1 20.5 4.1C24.8495 4.1 29.021 5.82785 32.0965 8.90345C35.1721 11.979 36.9 16.1504 36.9 20.5Z" fill="#6777EF"/>
</svg>
