<svg width="24" height="24" viewBox="0 0 24 24" fill="none" xmlns="http://www.w3.org/2000/svg">
<path d="M19.0008 20.75L16.6908 11.75C17.5448 10.6874 18.0074 9.36329 18.0008 8C18.0008 6.4087 17.3686 4.88258 16.2434 3.75736C15.1182 2.63214 13.5921 2 12.0008 2C10.4095 2 8.88335 2.63214 7.75813 3.75736C6.63291 4.88258 6.00077 6.4087 6.00077 8C5.99803 9.37381 6.47158 10.7061 7.34077 11.77L5.00077 20.75C4.951 20.9419 4.9594 21.1443 5.02493 21.3315C5.09045 21.5186 5.21012 21.6821 5.36875 21.801C5.52738 21.92 5.71779 21.9891 5.91579 21.9996C6.1138 22.0101 6.31045 21.9615 6.48077 21.86L11.8108 18.73L17.4908 21.87C17.6443 21.9626 17.8217 22.0078 18.0008 22C18.156 22.005 18.3103 21.9737 18.4514 21.9086C18.5925 21.8435 18.7165 21.7465 18.8135 21.6252C18.9106 21.5039 18.978 21.3616 19.0105 21.2097C19.043 21.0578 19.0397 20.9004 19.0008 20.75ZM12.0008 4C12.7919 4 13.5653 4.2346 14.2231 4.67412C14.8808 5.11365 15.3935 5.73836 15.6963 6.46927C15.999 7.20017 16.0783 8.00444 15.9239 8.78036C15.7696 9.55629 15.3886 10.269 14.8292 10.8284C14.2698 11.3878 13.5571 11.7688 12.7811 11.9231C12.0052 12.0775 11.2009 11.9983 10.47 11.6955C9.73913 11.3928 9.11442 10.8801 8.67489 10.2223C8.23537 9.56448 8.00077 8.79113 8.00077 8C8.00077 6.93913 8.4222 5.92172 9.17234 5.17157C9.92249 4.42143 10.9399 4 12.0008 4ZM12.3108 16.71C12.1588 16.6222 11.9863 16.576 11.8108 16.576C11.6352 16.576 11.4628 16.6222 11.3108 16.71L7.56077 18.91L9.00077 13.21C9.90138 13.7276 10.922 14 11.9608 14C12.9995 14 14.0202 13.7276 14.9208 13.21L16.4508 19L12.3108 16.71Z" fill="black"/>
</svg>
