<svg width="42" height="42" viewBox="0 0 42 42" fill="none" xmlns="http://www.w3.org/2000/svg">
<circle cx="21" cy="21" r="21" fill="#6D6D6D"/>
<path d="M28.9555 17.574L28.543 30.0594C28.5079 31.1287 28.0574 32.1422 27.2873 32.8848C26.5171 33.6274 25.4879 34.0407 24.418 34.0369H16.5805C15.5113 34.0407 14.4827 33.628 13.7126 32.8863C12.9426 32.1445 12.4917 31.1321 12.4555 30.0635L12.043 17.574C12.034 17.3005 12.134 17.0346 12.321 16.8348C12.508 16.6351 12.7667 16.5178 13.0402 16.5087C13.3137 16.4997 13.5796 16.5997 13.7794 16.7867C13.9792 16.9737 14.0965 17.2324 14.1055 17.5059L14.518 29.9944C14.5385 30.5275 14.7649 31.0319 15.1495 31.4017C15.5341 31.7715 16.047 31.9779 16.5805 31.9775H24.418C24.9522 31.9778 25.4657 31.7709 25.8504 31.4002C26.2351 31.0296 26.461 30.5241 26.4805 29.9903L26.893 17.5059C26.902 17.2324 27.0193 16.9737 27.2191 16.7867C27.4189 16.5997 27.6848 16.4997 27.9583 16.5087C28.2318 16.5178 28.4905 16.6351 28.6775 16.8348C28.8645 17.0346 28.9645 17.3005 28.9555 17.574ZM30.3198 13.4191C30.3198 13.6926 30.2112 13.9549 30.0178 14.1483C29.8244 14.3417 29.5621 14.4504 29.2886 14.4504H11.7109C11.4374 14.4504 11.1751 14.3417 10.9817 14.1483C10.7883 13.9549 10.6797 13.6926 10.6797 13.4191C10.6797 13.1456 10.7883 12.8833 10.9817 12.6899C11.1751 12.4965 11.4374 12.3879 11.7109 12.3879H14.9078C15.2346 12.3887 15.55 12.268 15.7926 12.0492C16.0353 11.8304 16.1878 11.5291 16.2206 11.204C16.2967 10.4414 16.654 9.73438 17.2229 9.22079C17.7917 8.7072 18.5314 8.4238 19.2978 8.42579H21.7007C22.4671 8.4238 23.2068 8.7072 23.7756 9.22079C24.3445 9.73438 24.7018 10.4414 24.7779 11.204C24.8107 11.5291 24.9632 11.8304 25.2059 12.0492C25.4485 12.268 25.7639 12.3887 26.0907 12.3879H29.2876C29.5611 12.3879 29.8234 12.4965 30.0168 12.6899C30.2102 12.8833 30.3188 13.1456 30.3188 13.4191H30.3198ZM18.0108 12.3879H22.9897C22.8542 12.0782 22.7656 11.7501 22.7267 11.4144C22.7012 11.1602 22.5822 10.9245 22.3928 10.753C22.2034 10.5816 21.9572 10.4865 21.7017 10.4862H19.2989C19.0434 10.4865 18.7971 10.5816 18.6077 10.753C18.4184 10.9245 18.2994 11.1602 18.2738 11.4144C18.2347 11.7502 18.1467 12.0783 18.0108 12.3879ZM19.0493 28.0123V19.2312C19.0493 18.9577 18.9407 18.6954 18.7473 18.502C18.5539 18.3086 18.2916 18.2 18.0181 18.2C17.7446 18.2 17.4823 18.3086 17.2889 18.502C17.0955 18.6954 16.9868 18.9577 16.9868 19.2312V28.0164C16.9868 28.29 17.0955 28.5523 17.2889 28.7457C17.4823 28.939 17.7446 29.0477 18.0181 29.0477C18.2916 29.0477 18.5539 28.939 18.7473 28.7457C18.9407 28.5523 19.0493 28.29 19.0493 28.0164V28.0123ZM24.0138 28.0123V19.2312C24.0138 18.9577 23.9051 18.6954 23.7117 18.502C23.5183 18.3086 23.256 18.2 22.9825 18.2C22.709 18.2 22.4467 18.3086 22.2533 18.502C22.0599 18.6954 21.9513 18.9577 21.9513 19.2312V28.0164C21.9513 28.29 22.0599 28.5523 22.2533 28.7457C22.4467 28.939 22.709 29.0477 22.9825 29.0477C23.256 29.0477 23.5183 28.939 23.7117 28.7457C23.9051 28.5523 24.0138 28.29 24.0138 28.0164V28.0123Z" fill="white"/>
</svg>
