<svg width="48" height="48" viewBox="0 0 48 48" fill="none" xmlns="http://www.w3.org/2000/svg">
<circle cx="24" cy="24" r="24" fill="#6D6D6D"/>
<g clip-path="url(#clip0_1191_1875)">
<path d="M21.1835 21.8358L19.6911 26.8124C19.5644 27.2357 19.6802 27.6949 19.9927 28.0071C20.2212 28.2355 20.5283 28.3591 20.8424 28.3591C20.9578 28.3591 21.074 28.3427 21.1874 28.3083L26.1644 26.8163C26.3549 26.7592 26.5286 26.6559 26.669 26.5151L35.7937 17.3905C36.019 17.1652 36.1457 16.8593 36.1457 16.5408C36.1457 16.2224 36.019 15.9165 35.7937 15.6912L32.3087 12.2066C31.8392 11.7371 31.0788 11.7371 30.6094 12.2066L21.4851 21.3312C21.3443 21.472 21.241 21.6449 21.1835 21.8358ZM23.3987 22.8161L31.459 14.7555L33.2444 16.5408L25.1841 24.6015L22.6344 25.3658L23.3987 22.8161Z" fill="white"/>
<path d="M34.946 23.0704C34.2822 23.0704 33.7443 23.6087 33.7443 24.2721V32.2835C33.7443 33.3882 32.8458 34.2863 31.7415 34.2863H15.7187C14.6144 34.2863 13.7159 33.3882 13.7159 32.2835V16.2607C13.7159 15.156 14.6144 14.2579 15.7187 14.2579H23.7301C24.3939 14.2579 24.9318 13.7196 24.9318 13.0562C24.9318 12.3928 24.3939 11.8545 23.7301 11.8545H15.7187C13.2891 11.8545 11.3125 13.8315 11.3125 16.2607V32.2835C11.3125 34.7127 13.2891 36.6897 15.7187 36.6897H31.7415C34.1711 36.6897 36.1477 34.7127 36.1477 32.2835V24.2721C36.1477 23.6087 35.6098 23.0704 34.946 23.0704Z" fill="white"/>
</g>
<defs>
<clipPath id="clip0_1191_1875">
<rect width="25.6364" height="25.6364" fill="white" transform="translate(10.9102 11.4541)"/>
</clipPath>
</defs>
</svg>
