<svg width="25" height="19" viewBox="0 0 25 19" fill="none" xmlns="http://www.w3.org/2000/svg">
<path d="M0 3.79852V3.24622C0 2.88929 0.139294 2.54697 0.387239 2.29458C0.635183 2.04218 0.971469 1.90039 1.32212 1.90039H19.8317C20.1824 1.90039 20.5187 2.04218 20.7666 2.29458C21.0146 2.54697 21.1538 2.88929 21.1538 3.24622V3.79852L10.5769 10.5277L0 3.79852ZM10.9273 11.892C10.8222 11.9588 10.7008 11.9942 10.5769 11.9942C10.453 11.9942 10.3317 11.9588 10.2266 11.892L0 5.38559V16.7046C0 17.0615 0.139294 17.4038 0.387239 17.6562C0.635183 17.9086 0.971469 18.0504 1.32212 18.0504H19.8317C20.1824 18.0504 20.5187 17.9086 20.7666 17.6562C21.0146 17.4038 21.1538 17.0615 21.1538 16.7046V5.38559L10.9273 11.892Z" fill="black"/>
</svg>
