<svg width="22" height="23" viewBox="0 0 22 23" fill="none" xmlns="http://www.w3.org/2000/svg">
<path d="M11.0026 20.6663C16.0654 20.6663 20.1693 16.5624 20.1693 11.4997C20.1693 6.43692 16.0654 2.33301 11.0026 2.33301C5.93985 2.33301 1.83594 6.43692 1.83594 11.4997C1.83594 16.5624 5.93985 20.6663 11.0026 20.6663Z" stroke="black" stroke-width="1.5" stroke-linecap="round" stroke-linejoin="round"/>
<path d="M7.33019 3.25H8.24685C6.45938 8.60477 6.45938 14.3952 8.24685 19.75H7.33019M13.7469 3.25C15.5343 8.60477 15.5343 14.3952 13.7469 19.75" stroke="black" stroke-width="1.5" stroke-linecap="round" stroke-linejoin="round"/>
<path d="M2.75 15.1664V14.2498C8.10477 16.0373 13.8952 16.0373 19.25 14.2498V15.1664M2.75 8.74978C8.10477 6.96231 13.8952 6.96231 19.25 8.74978" stroke="black" stroke-width="1.5" stroke-linecap="round" stroke-linejoin="round"/>
</svg>
