<svg width="446" height="432" viewBox="0 0 446 432" fill="none" xmlns="http://www.w3.org/2000/svg">
<path d="M306.578 35.7296C308.988 20.817 298.853 6.77424 283.94 4.36413C269.028 1.95401 254.985 12.0893 252.575 27.0018C250.165 41.9144 260.3 55.9572 275.213 58.3673C290.125 60.7774 304.168 50.6422 306.578 35.7296Z" fill="#EBEBEB"/>
<path d="M306.702 37.2809C309.023 23.095 299.404 9.714 285.218 7.39351C271.032 5.07303 257.651 14.6918 255.331 28.8777C253.01 43.0636 262.629 56.4446 276.815 58.7651C291.001 61.0856 304.382 51.4668 306.702 37.2809Z" fill="#DBDBDB"/>
<path d="M291.743 55.1908C304.266 50.0739 310.27 35.7741 305.153 23.2513C300.036 10.7284 285.737 4.72469 273.214 9.84155C260.691 14.9584 254.687 29.2582 259.804 41.7811C264.921 54.3039 279.221 60.3076 291.743 55.1908Z" fill="white"/>
<path d="M281.342 10.4639H280.719V14.1645H281.342V10.4639Z" fill="#EBEBEB"/>
<path d="M270.003 13.3685L269.463 13.6802L271.313 16.8854L271.853 16.5737L270.003 13.3685Z" fill="#EBEBEB"/>
<path d="M261.906 20.3501L261.594 20.8926L264.813 22.7429L265.125 22.2004L261.906 20.3501Z" fill="#EBEBEB"/>
<path d="M262.123 32.77H258.422V33.3936H262.123V32.77Z" fill="#EBEBEB"/>
<path d="M264.505 42.2829L261.301 44.1338L261.613 44.6738L264.817 42.8229L264.505 42.2829Z" fill="#EBEBEB"/>
<path d="M271.306 49.2966L269.457 52.5024L269.997 52.814L271.846 49.6081L271.306 49.2966Z" fill="#EBEBEB"/>
<path d="M281.342 51.999H280.719V55.6997H281.342V51.999Z" fill="#EBEBEB"/>
<path d="M290.769 49.3337L290.229 49.6455L292.079 52.8504L292.619 52.5386L290.769 49.3337Z" fill="#EBEBEB"/>
<path d="M297.56 42.271L297.248 42.811L300.444 44.6562L300.756 44.1162L297.56 42.271Z" fill="#EBEBEB"/>
<path d="M303.648 32.77H299.947V33.3936H303.648V32.77Z" fill="#EBEBEB"/>
<path d="M300.448 21.499L297.252 23.3442L297.564 23.8843L300.76 22.0391L300.448 21.499Z" fill="#EBEBEB"/>
<path d="M292.089 13.3552L290.24 16.561L290.78 16.8725L292.629 13.6667L292.089 13.3552Z" fill="#EBEBEB"/>
<path d="M284.642 25.2571L273.945 46.2871L274.501 46.5698L285.198 25.5398L284.642 25.2571Z" fill="#EBEBEB"/>
<path d="M279.783 24.6988L278.971 24.8613L283.532 47.6456L284.344 47.4831L279.783 24.6988Z" fill="#DBDBDB"/>
<path d="M200.919 209.052H25.4141V6.375H200.919V209.052ZM29.4929 204.963H196.829V10.4641H29.5032L29.4929 204.963Z" fill="#EBEBEB"/>
<path d="M113.616 11.5376H109.527V207.007H113.616V11.5376Z" fill="#EBEBEB"/>
<path d="M204.64 14.645H21.7031V20.3391H204.64V14.645Z" fill="#EBEBEB"/>
<path d="M204.64 21.0552H21.7031V26.7493H204.64V21.0552Z" fill="#EBEBEB"/>
<path d="M204.64 27.4541H21.7031V33.1482H204.64V27.4541Z" fill="#EBEBEB"/>
<path d="M204.64 33.8643H21.7031V39.5583H204.64V33.8643Z" fill="#EBEBEB"/>
<path d="M204.64 40.2739H21.7031V45.968H204.64V40.2739Z" fill="#EBEBEB"/>
<path d="M204.64 46.6733H21.7031V52.3674H204.64V46.6733Z" fill="#EBEBEB"/>
<path d="M204.64 53.083H21.7031V58.7771H204.64V53.083Z" fill="#EBEBEB"/>
<path d="M204.64 59.4927H21.7031V65.1868H204.64V59.4927Z" fill="#EBEBEB"/>
<path d="M204.64 65.8921H21.7031V71.5862H204.64V65.8921Z" fill="#EBEBEB"/>
<path d="M192.495 13.4902H191.473V144.74H192.495V13.4902Z" fill="#263238"/>
<path d="M193.793 149.504H190.164L191.074 144.291H192.883L193.793 149.504Z" fill="#263238"/>
<path d="M196.177 13.4902H195.154V203.358H196.177V13.4902Z" fill="#263238"/>
<path d="M197.474 207.191H193.855L194.755 201.978H196.575L197.474 207.191Z" fill="#263238"/>
<path d="M210.978 5.57764H15.3555V17.4872H210.978V5.57764Z" fill="#DBDBDB"/>
<path d="M438.578 52.4795H328.295V191.356H438.578V52.4795Z" fill="#EBEBEB"/>
<path d="M424.543 81.1753H341.953V83.8026H424.543V81.1753Z" fill="#DBDBDB"/>
<path d="M411.887 86.6748H341.953V89.302H411.887V86.6748Z" fill="#DBDBDB"/>
<path d="M395.285 92.1646H341.953V94.7918H395.285V92.1646Z" fill="#DBDBDB"/>
<path d="M421.66 97.6646H341.953V100.292H421.66V97.6646Z" fill="#DBDBDB"/>
<path d="M414.882 103.154H341.953V105.781H414.882V103.154Z" fill="#DBDBDB"/>
<path d="M417.632 114.144H341.953V116.771H417.632V114.144Z" fill="#DBDBDB"/>
<path d="M370.945 119.644H341.953V122.271H370.945V119.644Z" fill="#DBDBDB"/>
<path d="M400.417 125.133H341.953V127.76H400.417V125.133Z" fill="#DBDBDB"/>
<path d="M421.66 130.633H341.953V133.26H421.66V130.633Z" fill="#DBDBDB"/>
<path d="M410.681 136.123H341.953V138.75H410.681V136.123Z" fill="#DBDBDB"/>
<path d="M416.426 147.112H341.953V149.739H416.426V147.112Z" fill="#DBDBDB"/>
<path d="M387.036 152.612H341.953V155.239H387.036V152.612Z" fill="#DBDBDB"/>
<path d="M387.036 169.244H341.953V171.871H387.036V169.244Z" fill="#DBDBDB"/>
<path d="M417.581 180.224C422.193 180.224 425.933 176.484 425.933 171.872C425.933 167.259 422.193 163.52 417.581 163.52C412.968 163.52 409.229 167.259 409.229 171.872C409.229 176.484 412.968 180.224 417.581 180.224Z" fill="#6777EF"/>
<path d="M354.261 63.1826C355.265 63.1831 356.239 63.5176 357.032 64.1333C357.064 64.1574 357.092 64.1878 357.112 64.2229C357.132 64.2579 357.145 64.2967 357.15 64.337C357.155 64.3772 357.151 64.418 357.14 64.4568C357.128 64.4956 357.109 64.5317 357.083 64.5627C357.06 64.5946 357.03 64.6215 356.996 64.6419C356.963 64.6623 356.925 64.6757 356.886 64.6815C356.847 64.6872 356.807 64.685 356.769 64.6752C356.731 64.6653 356.695 64.6479 356.664 64.624C355.981 64.0807 355.134 63.7852 354.261 63.7858C353.266 63.7858 352.312 64.181 351.608 64.8846C350.905 65.5882 350.51 66.5425 350.51 67.5375C350.51 68.5325 350.905 69.4868 351.608 70.1904C352.312 70.894 353.266 71.2893 354.261 71.2893C355.128 71.3024 355.971 71.0091 356.643 70.4612C356.675 70.4346 356.712 70.4152 356.752 70.4043C356.792 70.3934 356.834 70.3913 356.874 70.3981C356.915 70.4049 356.954 70.4204 356.988 70.4437C357.022 70.4669 357.051 70.4973 357.073 70.5328C357.103 70.5597 357.127 70.5927 357.144 70.6297C357.161 70.6667 357.169 70.7069 357.169 70.7475C357.169 70.7881 357.161 70.8282 357.144 70.8652C357.127 70.9023 357.103 70.9353 357.073 70.9621C356.276 71.5678 355.303 71.8947 354.302 71.8924C353.73 71.8924 353.164 71.7798 352.636 71.5609C352.107 71.3421 351.627 71.0213 351.223 70.6169C350.818 70.2125 350.498 69.7324 350.279 69.2041C350.06 68.6757 349.947 68.1094 349.947 67.5375C349.947 66.9656 350.06 66.3993 350.279 65.871C350.498 65.3426 350.818 64.8625 351.223 64.4581C351.627 64.0537 352.107 63.733 352.636 63.5141C353.164 63.2953 353.73 63.1826 354.302 63.1826H354.261Z" fill="#A6A6A6"/>
<path d="M363.125 63.183C363.997 63.1381 364.862 63.3556 365.609 63.8075C366.356 64.2595 366.951 64.9251 367.315 65.7183C367.68 66.5115 367.799 67.3959 367.656 68.2573C367.513 69.1186 367.115 69.9172 366.513 70.55C365.912 71.1828 365.134 71.6206 364.281 71.807C363.428 71.9933 362.539 71.9195 361.728 71.5952C360.918 71.2709 360.223 70.7109 359.734 69.9876C359.245 69.2644 358.984 68.4111 358.985 67.5379C358.967 66.9792 359.06 66.4226 359.259 65.9003C359.459 65.378 359.759 64.9004 360.145 64.4953C360.53 64.0901 360.991 63.7655 361.503 63.5403C362.015 63.315 362.566 63.1936 363.125 63.183ZM363.125 71.2897C363.874 71.3327 364.62 71.1497 365.264 70.7644C365.909 70.3791 366.423 69.8093 366.74 69.1287C367.057 68.448 367.163 67.6879 367.043 66.9465C366.924 66.2052 366.584 65.5168 366.069 64.9705C365.554 64.4241 364.887 64.0448 364.154 63.8818C363.421 63.7188 362.656 63.7795 361.958 64.056C361.26 64.3326 360.661 64.8123 360.238 65.433C359.815 66.0538 359.589 66.787 359.588 67.5379C359.56 68.5042 359.917 69.442 360.58 70.1454C361.243 70.8488 362.159 71.2603 363.125 71.2897Z" fill="#A6A6A6"/>
<path d="M370.095 64.5734V71.5964C370.103 71.6392 370.102 71.6833 370.091 71.7255C370.08 71.7677 370.06 71.8069 370.032 71.8405C370.004 71.874 369.969 71.901 369.93 71.9195C369.89 71.9381 369.847 71.9477 369.804 71.9477C369.76 71.9477 369.717 71.9381 369.678 71.9195C369.638 71.901 369.603 71.874 369.576 71.8405C369.548 71.8069 369.528 71.7677 369.517 71.7255C369.506 71.6833 369.504 71.6392 369.512 71.5964V63.7249C369.492 63.6666 369.491 63.6033 369.509 63.5443C369.528 63.4854 369.565 63.4339 369.615 63.3977C369.68 63.3532 369.76 63.3358 369.839 63.3491C369.917 63.3624 369.987 63.4055 370.034 63.4693L375.237 70.6253V63.6431C375.237 63.5662 375.267 63.4923 375.32 63.437C375.374 63.3817 375.447 63.3493 375.523 63.3466C375.563 63.3453 375.603 63.3519 375.64 63.3662C375.677 63.3805 375.711 63.4021 375.74 63.4298C375.768 63.4574 375.791 63.4906 375.807 63.5272C375.822 63.5639 375.83 63.6033 375.83 63.6431V71.5453C375.83 71.5851 375.822 71.6245 375.807 71.6612C375.791 71.6978 375.768 71.731 375.74 71.7586C375.711 71.7863 375.677 71.8079 375.64 71.8222C375.603 71.8365 375.563 71.8431 375.523 71.8418C375.48 71.8414 375.437 71.831 375.398 71.8116C375.359 71.7921 375.325 71.7639 375.298 71.7293C375.287 71.7253 375.276 71.7186 375.267 71.7097C375.258 71.7008 375.251 71.6901 375.247 71.6782L370.095 64.5734Z" fill="#A6A6A6"/>
<path d="M381.023 63.9088H378.437C378.358 63.9062 378.282 63.8727 378.227 63.8154C378.172 63.7582 378.141 63.6817 378.141 63.6021C378.143 63.5243 378.175 63.4504 378.23 63.3953C378.285 63.3403 378.359 63.3082 378.437 63.3057H384.203C384.281 63.3082 384.354 63.3403 384.41 63.3953C384.465 63.4504 384.497 63.5243 384.499 63.6021C384.499 63.6817 384.468 63.7582 384.413 63.8154C384.358 63.8727 384.282 63.9062 384.203 63.9088H381.616V71.5963C381.616 71.675 381.585 71.7504 381.53 71.806C381.474 71.8616 381.399 71.8928 381.32 71.8928C381.241 71.8928 381.166 71.8616 381.11 71.806C381.055 71.7504 381.023 71.675 381.023 71.5963V63.9088Z" fill="#A6A6A6"/>
<path d="M391.063 69.9505C391.064 69.6935 391 69.4404 390.879 69.2138C390.758 68.9872 390.582 68.7943 390.368 68.6522C390.057 68.4463 389.71 68.3007 389.346 68.2229H389.284H387.24V71.6168C387.227 71.6873 387.19 71.751 387.134 71.7968C387.079 71.8427 387.01 71.8678 386.938 71.8678C386.867 71.8678 386.797 71.8427 386.742 71.7968C386.687 71.751 386.65 71.6873 386.637 71.6168V63.6226C386.64 63.5503 386.669 63.4814 386.717 63.4275C386.766 63.3735 386.831 63.3378 386.902 63.3262H389.356C389.911 63.3319 390.448 63.5259 390.879 63.8762C391.309 64.2266 391.609 64.7127 391.727 65.2551C391.846 65.7974 391.777 66.364 391.532 66.8623C391.287 67.3605 390.88 67.7609 390.378 67.998C390.416 68.0244 390.457 68.0451 390.501 68.0593C390.847 68.2457 391.136 68.5213 391.339 68.8575C391.543 69.1937 391.652 69.5782 391.656 69.971C391.638 70.3149 391.673 70.6596 391.758 70.9932C391.781 71.0708 391.823 71.1412 391.881 71.1977C391.951 71.1897 392.021 71.2042 392.082 71.2392C392.142 71.2742 392.19 71.3277 392.218 71.3919C392.237 71.4706 392.229 71.5535 392.193 71.6263C392.158 71.6991 392.098 71.7572 392.024 71.7906H391.85C391.731 71.7791 391.617 71.7361 391.52 71.666C391.423 71.596 391.347 71.5014 391.298 71.3919C391.099 70.9391 391.018 70.4432 391.063 69.9505ZM389.346 63.9089H387.23V67.6095H389.397C389.888 67.6027 390.356 67.4013 390.698 67.0495C391.04 66.6977 391.228 66.2244 391.222 65.7336C391.215 65.2429 391.013 64.775 390.662 64.4328C390.31 64.0905 389.836 63.9021 389.346 63.9089Z" fill="#A6A6A6"/>
<path d="M399.118 69.6746H395.203L394.446 71.7191C394.425 71.7757 394.388 71.8246 394.339 71.8593C394.289 71.894 394.23 71.9129 394.17 71.9133H394.058C393.983 71.8816 393.924 71.8226 393.892 71.7485C393.859 71.6744 393.857 71.5907 393.884 71.5147L396.859 63.5613C396.886 63.5058 396.928 63.4591 396.98 63.4265C397.033 63.394 397.093 63.3769 397.155 63.3773C397.217 63.3742 397.279 63.3902 397.332 63.4231C397.385 63.4559 397.427 63.5042 397.452 63.5613L400.426 71.5147C400.455 71.5883 400.455 71.67 400.427 71.7437C400.399 71.8175 400.344 71.878 400.273 71.9133H400.161C400.099 71.9122 400.04 71.8932 399.989 71.8587C399.938 71.8242 399.898 71.7757 399.874 71.7191L399.118 69.6746ZM395.428 69.0714H398.903L397.165 64.4609L395.428 69.0714Z" fill="#A6A6A6"/>
<path d="M405.937 63.1826C406.94 63.1831 407.915 63.5176 408.707 64.1333C408.74 64.1574 408.767 64.1878 408.788 64.2229C408.808 64.2579 408.821 64.2967 408.826 64.337C408.831 64.3772 408.827 64.418 408.816 64.4568C408.804 64.4956 408.785 64.5317 408.759 64.5627C408.735 64.5946 408.706 64.6215 408.672 64.6419C408.638 64.6623 408.601 64.6757 408.562 64.6815C408.523 64.6872 408.483 64.685 408.445 64.6752C408.407 64.6653 408.371 64.6479 408.339 64.624C407.657 64.0807 406.81 63.7852 405.937 63.7858C404.942 63.7858 403.988 64.181 403.284 64.8846C402.581 65.5882 402.185 66.5425 402.185 67.5375C402.185 68.5325 402.581 69.4868 403.284 70.1904C403.988 70.894 404.942 71.2893 405.937 71.2893C406.804 71.3024 407.647 71.0091 408.319 70.4612C408.351 70.4346 408.388 70.4152 408.428 70.4043C408.468 70.3934 408.509 70.3913 408.55 70.3981C408.591 70.4049 408.63 70.4204 408.664 70.4437C408.698 70.4669 408.727 70.4973 408.748 70.5328C408.779 70.5597 408.803 70.5927 408.82 70.6297C408.837 70.6667 408.845 70.7069 408.845 70.7475C408.845 70.7881 408.837 70.8282 408.82 70.8652C408.803 70.9023 408.779 70.9353 408.748 70.9621C407.952 71.5678 406.978 71.8947 405.978 71.8924C405.406 71.8924 404.84 71.7798 404.311 71.5609C403.783 71.3421 403.303 71.0213 402.899 70.6169C402.494 70.2125 402.173 69.7324 401.955 69.2041C401.736 68.6757 401.623 68.1094 401.623 67.5375C401.623 66.9656 401.736 66.3993 401.955 65.871C402.173 65.3426 402.494 64.8625 402.899 64.4581C403.303 64.0537 403.783 63.733 404.311 63.5141C404.84 63.2953 405.406 63.1826 405.978 63.1826H405.937Z" fill="#A6A6A6"/>
<path d="M413.553 63.9088H410.966C410.887 63.9062 410.811 63.8727 410.756 63.8154C410.701 63.7582 410.67 63.6817 410.67 63.6021C410.672 63.5243 410.705 63.4504 410.76 63.3953C410.815 63.3403 410.889 63.3082 410.966 63.3057H416.732C416.81 63.3082 416.884 63.3403 416.939 63.3953C416.994 63.4504 417.026 63.5243 417.028 63.6021C417.03 63.6419 417.023 63.6816 417.009 63.7187C416.995 63.7559 416.973 63.7898 416.945 63.8184C416.918 63.847 416.885 63.8698 416.848 63.8853C416.811 63.9008 416.772 63.9088 416.732 63.9088H414.146V71.5963C414.146 71.675 414.114 71.7504 414.059 71.806C414.003 71.8616 413.928 71.8928 413.849 71.8928C413.771 71.8928 413.695 71.8616 413.64 71.806C413.584 71.7504 413.553 71.675 413.553 71.5963V63.9088Z" fill="#A6A6A6"/>
<path d="M231.577 322.851H434.1L438.312 239.761H227.365L231.577 322.851Z" fill="#EBEBEB"/>
<path d="M424.502 277.8H339.827L338.242 248.951H426.352L424.502 277.8ZM340.798 276.778H423.541L425.258 249.973H339.326L340.798 276.778Z" fill="#DBDBDB"/>
<path d="M422.937 310.983H343.148L341.85 284.945H424.562L422.937 310.983ZM344.119 309.96H421.976L423.478 285.968H342.923L344.119 309.96Z" fill="#DBDBDB"/>
<path d="M390.317 266.483H376.087L375.197 259.521H391.216L390.317 266.483ZM377.027 265.461H389.458L390.092 260.544H376.393L377.027 265.461Z" fill="#DBDBDB"/>
<path d="M390.317 301.445H376.087L375.197 294.483H391.216L390.317 301.445ZM377.027 300.423H389.458L390.092 295.506H376.393L377.027 300.423Z" fill="#DBDBDB"/>
<path d="M324.912 277.8H240.237L238.652 248.951H326.762L324.912 277.8ZM241.208 276.778H323.951L325.638 249.973H239.767L241.208 276.778Z" fill="#DBDBDB"/>
<path d="M323.347 310.983H243.558L242.26 284.945H324.972L323.347 310.983ZM244.529 309.96H322.386L323.889 285.968H243.333L244.529 309.96Z" fill="#DBDBDB"/>
<path d="M290.727 266.483H276.497L275.607 259.521H291.627L290.727 266.483ZM277.437 265.461H289.858L290.492 260.544H276.793L277.437 265.461Z" fill="#DBDBDB"/>
<path d="M290.727 301.445H276.497L275.607 294.483H291.627L290.727 301.445ZM277.437 300.423H289.858L290.492 295.506H276.793L277.437 300.423Z" fill="#DBDBDB"/>
<path d="M249.743 322.852L248.465 331.909L245.909 350.095H240.91V322.852H249.743Z" fill="#EBEBEB"/>
<path d="M249.743 322.852L248.465 331.909H240.91V322.852H249.743Z" fill="#DBDBDB"/>
<path d="M415.936 322.852L417.203 331.909L419.769 350.095H424.768V322.852H415.936Z" fill="#EBEBEB"/>
<path d="M415.936 322.852L417.203 331.909H424.768V322.852H415.936Z" fill="#DBDBDB"/>
<path d="M224.43 432C326.305 432 408.89 421.24 408.89 407.966C408.89 394.693 326.305 383.933 224.43 383.933C122.556 383.933 39.9707 394.693 39.9707 407.966C39.9707 421.24 122.556 432 224.43 432Z" fill="#EBEBEB"/>
<path d="M55.2234 381.663C85.7224 381.663 110.447 375.741 110.447 368.435C110.447 361.129 85.7224 355.207 55.2234 355.207C24.7244 355.207 0 361.129 0 368.435C0 375.741 24.7244 381.663 55.2234 381.663Z" fill="#EBEBEB"/>
<path d="M3.00586 350.095L58.3622 349.85L113.718 349.758L224.431 349.594L335.144 349.758L390.5 349.85L445.856 350.095L390.5 350.351L335.144 350.443L224.431 350.606L113.718 350.443L58.3622 350.351L3.00586 350.095Z" fill="#263238"/>
<path d="M56.8476 173.058C56.8476 173.058 29.3586 169.214 35.7785 136.021C35.7785 136.021 66.4979 142.921 56.8476 173.058Z" fill="#6777EF"/>
<path opacity="0.1" d="M56.8476 173.058C56.8476 173.058 29.3586 169.214 35.7785 136.021C35.7785 136.021 66.4979 142.921 56.8476 173.058Z" fill="black"/>
<path d="M55.4591 166.126C54.9221 164.449 54.2976 162.801 53.5883 161.189C53.5883 160.974 53.5883 160.759 53.5168 160.555C53.5168 160.095 53.435 159.645 53.4043 159.185C53.3225 158.163 53.2612 157.202 53.1998 156.21C53.0874 154.227 52.9647 152.244 52.9341 150.261C52.9341 150.148 52.7603 150.158 52.7603 150.261C52.7603 152.254 52.7603 154.237 52.7603 156.22C52.7603 157.243 52.8625 158.204 52.9238 159.195C52.9238 159.42 52.9238 159.635 52.9238 159.86C51.3788 156.554 49.5308 153.399 47.4035 150.434C46.5072 149.113 45.5415 147.84 44.5105 146.621C43.4167 145.364 42.2615 144.168 41.1472 142.931C41.0756 142.849 40.9632 142.931 41.0348 143.054C43.0087 145.237 44.7811 147.594 46.3301 150.097C47.1684 151.354 47.9556 152.653 48.7121 153.971L48.4565 153.879L47.4342 153.481L45.1852 152.632C43.7131 152.08 42.241 151.549 40.769 150.986C40.677 150.986 40.6156 151.109 40.7076 151.14C42.1695 151.722 43.6109 152.336 45.0625 152.959L47.1889 153.879L48.2622 154.319C48.4925 154.434 48.7364 154.52 48.9881 154.575C49.5401 155.597 50.0921 156.568 50.6033 157.59C51.8782 160.162 52.9979 162.807 53.9563 165.513C54.0279 165.697 54.0892 165.891 54.1608 166.085C53.4347 165.668 52.6797 165.302 51.9016 164.992L49.0596 163.704C47.1275 162.814 45.2159 161.915 43.3655 160.872C43.3466 160.861 43.3241 160.858 43.303 160.864C43.2819 160.87 43.2639 160.884 43.2531 160.903C43.2422 160.921 43.2394 160.944 43.2451 160.965C43.2509 160.986 43.2648 161.004 43.2838 161.015C45.175 162.037 47.0253 163.152 48.9165 164.174C49.8672 164.685 50.8179 165.196 51.7891 165.656C52.5883 166.131 53.4578 166.476 54.3652 166.678C55.2876 169.194 55.8954 171.814 56.1747 174.478C56.4814 178.23 56.4507 182.013 56.5427 185.774H56.6347C56.9107 182.36 57.0641 178.915 57.0845 175.49C57.0443 172.302 56.4956 169.141 55.4591 166.126Z" fill="#263238"/>
<path d="M51.2267 146.611C50.9613 148.551 50.8689 150.512 50.9507 152.469C50.9507 152.52 51.0325 152.52 51.0325 152.469C51.1449 150.526 51.1654 148.584 51.3903 146.652C51.4005 146.55 51.2369 146.509 51.2267 146.611Z" fill="#263238"/>
<path d="M43.3643 148.278C42.1352 147.806 40.9514 147.224 39.8272 146.54C39.7352 146.478 39.6534 146.632 39.7454 146.683C40.8468 147.426 42.0526 148.002 43.3234 148.39C43.3847 148.41 43.4869 148.308 43.3643 148.278Z" fill="#263238"/>
<path d="M57.727 225.745C57.727 222.678 57.6453 219.673 57.6146 216.637C57.5532 206.547 57.4715 196.457 57.2875 186.367C57.1443 178.353 56.9569 170.345 56.7252 162.344C56.7245 162.323 56.7185 162.303 56.7078 162.285C56.6971 162.267 56.6819 162.252 56.6639 162.241C56.6639 160.054 56.6639 157.866 56.6639 155.678C56.6639 155.617 56.6025 155.597 56.531 155.597C56.4594 155.597 56.3981 155.597 56.4083 155.678C56.4083 157.873 56.4083 160.064 56.4083 162.252C56.4083 162.252 56.3367 162.303 56.3367 162.344C55.9381 176.656 55.5803 190.855 55.4882 205.116C55.4882 208.019 55.4882 210.912 55.4882 213.815C55.386 223.104 55.3485 232.4 55.3758 241.703C55.3758 243.175 55.3758 244.657 55.3758 246.14C55.3758 254.645 55.4678 263.15 55.4678 271.697C55.4678 272.146 55.9789 272.382 56.4901 272.402C57.0012 272.422 57.7679 272.177 57.7679 271.656C57.7679 262.281 57.8293 252.897 57.8293 243.523C57.7986 237.573 57.7986 231.654 57.727 225.745Z" fill="#263238"/>
<path d="M46.2474 216.514C46.2474 216.514 33.0191 206.721 20.4758 213.325C7.93244 219.929 5.94922 245.465 5.94922 245.465C5.94922 245.465 24.3502 248.103 35.9837 237.052C47.1674 226.42 46.2474 216.514 46.2474 216.514Z" fill="#6777EF"/>
<path d="M49.8455 217.117C47.4169 216.149 44.7862 215.798 42.1887 216.095C41.6551 216 41.1152 215.945 40.5735 215.931L38.7027 215.788L34.8487 215.522C32.2419 215.328 29.6249 215.165 27.0181 214.899C27 214.905 26.9844 214.917 26.9733 214.932C26.9623 214.948 26.9563 214.967 26.9563 214.986C26.9563 215.005 26.9623 215.024 26.9733 215.039C26.9844 215.055 27 215.066 27.0181 215.073C29.5942 215.4 32.1295 215.768 34.7363 216.023C36.0652 216.156 37.3942 216.299 38.7334 216.391L39.6943 216.483C39.3058 216.575 38.9072 216.667 38.5187 216.78C36.4439 217.384 34.4365 218.199 32.5281 219.213C31.5059 219.397 30.4836 219.693 29.4613 219.929C27.8257 220.317 26.2002 220.736 24.5748 221.165C21.3649 222.004 18.1856 222.954 14.9961 223.885C14.8939 223.885 14.945 224.069 14.9961 224.038C18.1754 223.261 21.3853 222.546 24.5748 221.789L29.216 220.675L30.4325 220.389C26.8843 222.595 23.7125 225.356 21.0378 228.567C18.4636 231.735 16.2743 235.198 14.5156 238.882C14.5156 238.974 14.5974 239.066 14.6587 238.974C16.8357 235.208 19.492 231.741 22.5609 228.659C22.4996 228.833 22.4485 229.017 22.3872 229.19L21.6511 231.521C21.1604 233.085 20.6288 234.639 20.1995 236.203C20.1995 236.305 20.3324 236.336 20.363 236.203C20.9253 234.69 21.4569 233.136 21.9885 231.654C22.244 230.908 22.5098 230.172 22.7654 229.425C22.9085 229.037 23.0414 228.649 23.1641 228.26C23.1641 228.148 23.2561 228.025 23.297 227.902C24.7707 226.471 26.3346 225.136 27.979 223.905C30.1625 222.308 32.5182 220.96 35.0021 219.888C35.0021 220.113 34.9203 220.348 34.8692 220.562C34.7363 221.165 34.6034 221.769 34.4807 222.372C34.2251 223.619 33.9798 224.876 33.7344 226.134C33.2335 228.689 32.9268 231.245 32.4464 233.842C32.4464 233.954 32.5895 233.995 32.6099 233.842C33.2028 231.266 33.9696 228.73 34.542 226.154C34.8283 224.866 35.1145 223.578 35.3905 222.29L35.7585 220.47C35.8199 220.133 35.9017 219.796 35.9426 219.448L36.6581 219.152C40.1237 217.864 43.9572 216.933 47.6578 217.649C49.4083 217.973 51.0514 218.725 52.4408 219.838C53.8303 220.951 54.9229 222.39 55.6214 224.028C55.7441 224.314 56.1939 224.13 56.1223 223.834C55.4067 220.705 52.759 218.344 49.8455 217.117Z" fill="#263238"/>
<path d="M29.6046 228.015C29.2366 229.692 28.8584 231.368 28.4904 233.045C28.0726 234.651 27.7652 236.283 27.5703 237.931C27.5703 238.003 27.6521 238.003 27.6725 237.931C28.1594 236.32 28.5351 234.677 28.797 233.014C29.1242 231.358 29.4513 229.702 29.7682 228.046C29.7887 227.954 29.6251 227.913 29.6046 228.015Z" fill="#263238"/>
<path d="M16.8156 232.278C15.1289 233.126 13.5035 234.097 11.7043 234.803C11.6942 234.807 11.685 234.813 11.6772 234.82C11.6695 234.828 11.6633 234.837 11.659 234.847C11.6547 234.857 11.6525 234.868 11.6523 234.878C11.6522 234.889 11.6542 234.9 11.6583 234.91C11.6623 234.92 11.6682 234.929 11.6758 234.937C11.6834 234.945 11.6924 234.951 11.7024 234.955C11.7124 234.96 11.7231 234.962 11.7339 234.962C11.7448 234.962 11.7555 234.96 11.7656 234.956C13.5254 234.177 15.2419 233.303 16.9076 232.339C16.9076 232.339 16.9076 232.257 16.8156 232.278Z" fill="#263238"/>
<path d="M49.222 198.522C49.222 198.522 33.0598 199.545 25.5359 188.903C18.0119 178.261 19.7089 163.019 19.7089 163.019C19.7089 163.019 36.6889 165.063 43.4257 172.74C50.1625 180.418 49.222 198.522 49.222 198.522Z" fill="#6777EF"/>
<path d="M56.777 214.47C56.2147 212.742 55.5196 211.035 54.8653 209.358C54.2111 207.682 53.567 206.107 52.8208 204.513C51.3814 201.256 49.7673 198.078 47.9854 194.995C46.8405 193.033 45.6137 191.121 44.3563 189.24C44.3563 188.954 44.2746 188.667 44.2337 188.381C44.1621 187.88 44.0905 187.359 44.0088 186.878C43.8452 185.856 43.6714 184.834 43.4976 183.812C43.1296 181.573 42.6696 179.354 42.3118 177.126C42.3118 177.024 42.1278 177.024 42.1482 177.126C42.4651 179.334 42.69 181.552 42.9967 183.761C43.15 184.844 43.2932 185.928 43.4567 187.011L43.6407 188.187C41.1757 184.579 38.5066 181.115 35.6465 177.811L34.5323 176.523C34.5323 176.4 34.43 176.277 34.3789 176.155C34.2562 175.848 34.1438 175.541 34.0313 175.224C33.786 174.591 33.5611 173.947 33.326 173.303C32.8762 172.035 32.4673 170.757 32.1197 169.459C32.1197 169.357 31.9357 169.408 31.9663 169.459C32.2935 170.788 32.6308 172.107 32.9886 173.415C33.1828 174.049 33.3873 174.672 33.6122 175.296C33.6122 175.398 33.6838 175.501 33.7247 175.603C31.6801 173.354 29.5027 171.186 27.3252 169.04C27.2536 168.968 27.1412 169.04 27.2128 169.162C31.3889 173.532 35.2171 178.222 38.6623 183.188C38.2702 183.064 37.8707 182.965 37.4662 182.892C36.219 182.646 34.9718 182.472 33.7144 182.309C31.077 181.972 28.4497 181.644 25.8327 181.225C25.7202 181.225 25.6793 181.368 25.8327 181.389C28.3373 181.88 30.8112 182.411 33.3055 183.024C34.4811 183.29 35.6568 183.515 36.8324 183.75C37.7967 183.956 38.7461 184.226 39.6743 184.558C39.9299 184.936 40.2059 185.304 40.4615 185.682C41.6473 187.4 42.782 189.168 43.8963 190.937L42.2504 190.62C41.0033 190.375 39.7459 190.15 38.4987 189.945C36.035 189.536 33.5611 189.107 31.1281 188.555C31.0258 188.555 30.985 188.698 31.1281 188.719C33.602 189.301 36.0452 189.976 38.4987 190.63C39.6845 190.947 40.8806 191.233 42.0767 191.499L43.8656 191.888C44.1067 191.951 44.3531 191.992 44.6017 192.01C46.9631 195.834 49.1713 199.759 51.226 203.756C52.1256 205.515 52.9946 207.293 53.8328 209.072C54.6711 210.851 55.4378 212.783 56.2352 214.643C56.3476 215.032 56.9303 214.879 56.777 214.47Z" fill="#263238"/>
<path d="M40.2577 177.331C39.9511 175.787 39.6239 174.264 39.2355 172.71C39.2355 172.608 39.0515 172.659 39.0719 172.71C39.3786 174.223 39.675 175.777 39.9511 177.259C40.1766 178.783 40.4802 180.295 40.8609 181.788C40.7645 180.29 40.5629 178.8 40.2577 177.331Z" fill="#263238"/>
<path d="M30.8309 176.881C30.0846 176.502 29.2872 176.206 28.5103 175.858L27.2836 175.378L26.66 175.133C26.4211 175.056 26.1914 174.953 25.9751 174.826C25.8524 174.744 25.7808 174.949 25.9035 174.969C26.1433 175.034 26.3735 175.13 26.5884 175.255L27.2018 175.531L28.3876 176.053C29.1623 176.416 29.9576 176.733 30.7695 177.003C30.8615 177.075 30.9229 176.922 30.8309 176.881Z" fill="#263238"/>
<path d="M65.7617 185.815C65.7617 185.815 75.5449 167.547 90.419 164.716C105.293 161.884 114.412 177.198 114.412 177.198C114.412 177.198 103.555 191.06 89.8772 193.482C76.1992 195.905 65.7617 185.815 65.7617 185.815Z" fill="#6777EF"/>
<path d="M100.398 172.904C96.5202 172.379 92.5866 172.427 88.7232 173.047L89.3877 172.69L92.6896 170.993C94.9583 169.738 97.2886 168.599 99.6718 167.578C99.7843 167.527 99.6718 167.374 99.6105 167.425C97.2797 168.508 94.8671 169.469 92.5363 170.492C91.3607 171.023 90.2157 171.585 89.081 172.189C88.345 172.577 87.5374 172.945 86.8116 173.415C83.5431 174.071 80.3673 175.125 77.3555 176.554L79.216 174.509C80.5961 172.986 81.966 171.391 83.4892 170.011C83.5709 169.94 83.4892 169.827 83.3665 169.899C81.8126 171.309 80.1668 172.618 78.6538 174.09C77.928 174.806 77.2226 175.542 76.5377 176.308C76.2003 176.687 75.8527 177.075 75.5154 177.484C70.4051 180.22 65.965 184.055 62.5145 188.713C59.064 193.371 56.6891 198.735 55.5605 204.421C55.5605 204.523 55.6934 204.574 55.7241 204.472C57.8198 197.507 61.5732 191.155 66.6625 185.959C72.1473 180.39 79.0461 176.421 86.6173 174.479C91.1085 173.334 95.7534 172.913 100.377 173.231C100.421 173.234 100.463 173.219 100.496 173.191C100.528 173.162 100.548 173.121 100.551 173.078C100.554 173.035 100.539 172.992 100.51 172.959C100.482 172.927 100.441 172.907 100.398 172.904Z" fill="#263238"/>
<path opacity="0.1" d="M114.412 177.198C114.412 177.198 103.556 191.06 89.8774 193.483C79.4604 195.323 70.8938 189.895 67.3873 187.216L66.6309 185.979C66.6309 185.979 73.6743 180.05 87.0048 176.625C100.335 173.201 114.412 177.198 114.412 177.198Z" fill="black"/>
<path d="M91.7492 166.392C90.6103 167.059 89.508 167.785 88.4472 168.57C87.4134 169.358 86.452 170.238 85.5746 171.197C85.5632 171.215 85.5585 171.237 85.5614 171.258C85.5642 171.279 85.5744 171.299 85.5902 171.314C85.6059 171.328 85.6263 171.337 85.6477 171.338C85.6691 171.339 85.6903 171.333 85.7075 171.32C86.7298 170.461 87.6805 169.602 88.713 168.795C89.7074 167.977 90.7522 167.222 91.8412 166.536C91.8506 166.529 91.8587 166.522 91.865 166.512C91.8714 166.503 91.8759 166.493 91.8783 166.482C91.8807 166.471 91.8809 166.46 91.8789 166.449C91.8769 166.438 91.8728 166.427 91.8667 166.418C91.8607 166.409 91.8528 166.4 91.8437 166.394C91.8345 166.388 91.8241 166.383 91.8132 166.381C91.8023 166.378 91.791 166.378 91.78 166.38C91.7691 166.382 91.7586 166.386 91.7492 166.392Z" fill="#263238"/>
<path d="M99.916 169.479C99.364 169.714 98.8018 169.909 98.2497 170.144L96.5936 170.829C96.4812 170.829 96.5323 171.074 96.655 171.023L98.3111 170.348C98.8733 170.123 99.4151 169.868 99.9672 169.643C100.069 169.602 100.018 169.438 99.916 169.479Z" fill="#263238"/>
<path d="M63.8105 208.806C63.8105 208.806 66.4276 226.931 80.0545 233.269C93.6815 239.608 110.293 233.269 110.293 233.269C110.293 233.269 103.802 194.065 63.8105 208.806Z" fill="#6777EF"/>
<path d="M100.897 221.503C99.6503 221.36 98.3929 221.145 97.1559 220.92L95.3158 220.573L94.3651 220.379C93.9971 220.041 93.6393 219.694 93.261 219.356C90.6729 217.089 87.8804 215.067 84.9193 213.315C83.3091 212.36 81.6432 211.504 79.9306 210.749H80.1861L84.6739 210.943C87.659 211.086 90.6542 211.147 93.6393 211.342C93.7517 211.342 93.7415 211.188 93.6393 211.178C90.6338 210.974 87.6487 210.646 84.6535 210.391L80.2986 210.002L78.0496 209.808L77.4771 209.747C76.7002 209.45 75.9232 209.174 75.1258 208.929C71.4114 207.654 67.4161 207.435 63.5843 208.295C60.1597 209.174 56.7351 211.423 55.8457 215.032C55.8457 215.155 56.0093 215.247 56.0604 215.124C57.3382 212.057 60.6913 210.575 63.7172 209.951C65.7405 209.567 67.8139 209.526 69.8509 209.829C69.9883 210.762 70.2178 211.68 70.5358 212.568C70.9141 213.846 71.2821 215.124 71.6706 216.392C72.4475 218.937 73.296 221.503 74.0525 224.008C74.0525 224.029 74.0611 224.05 74.0764 224.065C74.0918 224.081 74.1126 224.089 74.1342 224.089C74.1559 224.089 74.1767 224.081 74.1921 224.065C74.2074 224.05 74.216 224.029 74.216 224.008C73.5822 221.462 73.0404 218.896 72.427 216.341C72.1306 215.093 71.8137 213.846 71.507 212.599C71.3289 211.728 71.1002 210.868 70.8221 210.023C72.016 210.231 73.1969 210.507 74.3591 210.851C76.4497 211.477 78.4984 212.235 80.4928 213.12C80.687 214.408 80.9835 215.686 81.28 216.964C81.648 218.559 82.0671 220.143 82.568 221.708C82.5738 221.723 82.5843 221.737 82.598 221.746C82.6117 221.756 82.628 221.761 82.6447 221.761C82.6614 221.761 82.6777 221.756 82.6914 221.746C82.7051 221.737 82.7156 221.723 82.7214 221.708L82.66 221.411C82.3533 219.929 82.0262 218.446 81.7093 216.964C81.464 215.768 81.2288 214.572 80.9733 213.386C82.6706 214.14 84.3288 214.98 85.9415 215.901C85.9415 216.269 86.0642 216.647 86.1153 216.985C86.2176 217.598 86.33 218.222 86.4425 218.845C86.698 220.235 86.974 221.636 87.3114 223.016C87.9281 225.689 88.71 228.321 89.6524 230.898C89.6408 230.912 89.6345 230.93 89.6345 230.949C89.6345 230.967 89.6408 230.985 89.6524 231L89.7342 231.092C89.7955 231.164 89.8875 231.092 89.8671 231.01C89.2435 228.322 88.5177 225.653 87.9248 222.965C87.6385 221.615 87.3421 220.266 87.066 218.876C86.9331 218.201 86.8105 217.526 86.6776 216.831L86.5856 216.228C88.421 217.303 90.1926 218.484 91.8912 219.765C94.8328 221.968 97.5545 224.45 100.018 227.177C100.11 227.289 100.305 227.177 100.213 227.013C99.2009 225.64 98.1193 224.319 96.9719 223.057C96.287 222.321 95.5714 221.605 94.8456 220.91H95.0705C95.7145 221.023 96.3483 221.115 96.9924 221.196C98.2498 221.37 99.5174 221.493 100.785 221.636C100.969 221.656 101.01 221.503 100.897 221.503Z" fill="#263238"/>
<path d="M91.3296 227.637C91.3296 227.483 91.3296 227.32 91.2478 227.166C91.166 227.013 91.1149 226.778 91.0842 226.574C90.8082 225.357 90.5731 224.141 90.3482 222.914C90.3482 222.832 90.2051 222.852 90.2051 222.914C90.2881 224.536 90.6333 226.135 91.2274 227.647C91.2274 227.698 91.3398 227.647 91.3296 227.647V227.637Z" fill="#263238"/>
<path d="M79.9216 227.34C79.9216 227.34 79.9216 227.258 79.8399 227.258C79.4514 225.653 79.0834 224.049 78.7563 222.433C78.5825 221.585 78.4087 220.736 78.2451 219.888C78.1531 219.428 78.0713 218.968 77.9895 218.508C77.9539 218.103 77.8538 217.706 77.6931 217.332C77.6873 217.317 77.6768 217.303 77.6631 217.293C77.6494 217.284 77.6331 217.279 77.6164 217.279C77.5997 217.279 77.5834 217.284 77.5697 217.293C77.556 217.303 77.5455 217.317 77.5397 217.332C77.529 218.156 77.6463 218.977 77.8873 219.765C78.0509 220.644 78.2247 221.534 78.4189 222.413C78.8176 224.202 79.2572 225.981 79.7683 227.739C79.7746 227.757 79.7863 227.773 79.8019 227.784C79.8175 227.795 79.8361 227.801 79.8552 227.801C79.8743 227.801 79.8929 227.795 79.9085 227.784C79.9241 227.773 79.9358 227.757 79.9421 227.739L79.9216 227.34Z" fill="#263238"/>
<path d="M99.712 216.259C97.2176 215.921 94.7335 215.563 92.2391 215.236C92.1369 215.236 92.096 215.39 92.2391 215.4C94.7233 215.768 97.2176 216.075 99.712 216.422C99.712 216.443 99.7631 216.279 99.712 216.259Z" fill="#263238"/>
<path d="M56.8285 166.3C56.8285 166.3 48.4868 129.723 87.7933 114.91C87.7933 114.91 98.6908 163.07 56.8285 166.3Z" fill="#6777EF"/>
<path d="M65.3138 145.558L65.7329 145.302L67.9615 144.055L72.5208 141.51C75.5161 139.823 78.4807 138.085 81.4964 136.398C81.5986 136.398 81.4964 136.204 81.4146 136.255C78.3478 137.901 75.281 139.445 72.2653 141.05L67.757 143.432L65.9169 144.454C67.2254 141.97 68.626 139.537 70.1696 137.186C72.2141 134.047 74.4734 131.052 76.8144 128.149C76.8388 128.123 76.852 128.088 76.851 128.053C76.85 128.018 76.835 127.984 76.8093 127.96C76.7835 127.935 76.7491 127.922 76.7137 127.923C76.6782 127.924 76.6446 127.939 76.6202 127.965C73.1686 131.314 70.1187 135.053 67.5321 139.107C67.5321 138.975 67.5321 138.842 67.5321 138.719C67.5321 137.809 67.6037 136.899 67.6139 135.99C67.6139 134.201 67.5526 132.412 67.6139 130.633C67.6139 130.52 67.4503 130.531 67.4401 130.633C67.3686 132.391 67.1539 134.149 67.0517 135.908C67.0517 136.777 66.9699 137.656 66.9392 138.535C66.9392 139.005 66.9392 139.557 66.9392 140.068C66.135 141.356 65.3615 142.662 64.6186 143.984C63.3013 146.369 62.127 148.83 61.102 151.354C61.102 150.444 61.01 149.535 60.9589 148.625C60.8362 146.58 60.6011 144.628 60.5091 142.624C60.5091 142.602 60.5005 142.582 60.4851 142.566C60.4698 142.551 60.449 142.542 60.4273 142.542C60.4056 142.542 60.3848 142.551 60.3695 142.566C60.3541 142.582 60.3455 142.602 60.3455 142.624C60.3455 144.669 60.3455 146.631 60.3455 148.635C60.3455 149.657 60.4068 150.68 60.4682 151.641C60.4682 152.009 60.4682 152.387 60.5397 152.755C59.29 156.025 58.2987 159.389 57.5751 162.814C56.8933 166.469 56.4054 170.158 56.1133 173.865C56.5095 170.531 57.1935 167.237 58.1578 164.02C58.6383 162.293 59.1801 160.575 59.7117 158.909C61.3473 158.142 62.9114 157.181 64.4857 156.302L69.4233 153.603C72.7048 151.804 75.9761 149.974 79.3599 148.39C79.4519 148.39 79.3599 148.195 79.2679 148.247C75.8432 149.79 72.3879 151.313 69.0451 152.959C67.3686 153.808 65.7227 154.707 64.087 155.627C62.7274 156.394 61.3167 157.161 59.9979 158.05C60.3762 156.905 60.7749 155.771 61.2144 154.656C62.4207 151.554 63.789 148.517 65.3138 145.558Z" fill="#263238"/>
<path d="M62 137.186C61.9937 137.168 61.9819 137.152 61.9664 137.141C61.9508 137.13 61.9322 137.124 61.9131 137.124C61.894 137.124 61.8753 137.13 61.8598 137.141C61.8442 137.152 61.8325 137.168 61.8262 137.186C61.9693 139.23 62.0409 141.357 62.2658 143.442C62.2658 143.467 62.2754 143.49 62.2927 143.507C62.31 143.524 62.3334 143.534 62.3578 143.534C62.3822 143.534 62.4056 143.524 62.4228 143.507C62.4401 143.49 62.4498 143.467 62.4498 143.442C62.3782 141.357 62.1533 139.281 62 137.186Z" fill="#263238"/>
<path d="M80.8422 144.178C78.3887 145.2 75.9046 146.11 73.4511 147.132C73.3898 147.132 73.4511 147.275 73.4511 147.245C75.9352 146.314 78.3785 145.302 80.8524 144.341C80.9955 144.301 80.9444 144.137 80.8422 144.178Z" fill="#263238"/>
<path d="M84.5819 127.3C82.1755 128.404 79.8402 129.657 77.5895 131.052C77.5733 131.07 77.5633 131.093 77.561 131.117C77.5588 131.141 77.5644 131.165 77.5771 131.186C77.5897 131.207 77.6087 131.223 77.6312 131.232C77.6537 131.241 77.6786 131.242 77.702 131.236C79.9817 129.897 82.3022 128.619 84.6637 127.443C84.7659 127.453 84.6739 127.259 84.5819 127.3Z" fill="#263238"/>
<path d="M83.9802 245.414H27.2949V305.166H83.9802V245.414Z" fill="#455A64"/>
<path d="M26.3037 266.565H23.4004V368.915H26.3037V266.565Z" fill="#263238"/>
<path d="M87.5888 266.565H84.6855V368.915H87.5888V266.565Z" fill="#263238"/>
<path d="M58.4833 266.565H55.5801V368.915H58.4833V266.565Z" fill="#263238"/>
<path d="M86.1371 301.343H24.8516V309.613H86.1371V301.343Z" fill="#263238"/>
<path d="M311.968 335.487C311.968 335.487 311.968 379.516 311.968 379.547C311.968 387.96 311.897 395.341 311.478 399.154C311.483 399.164 311.486 399.174 311.486 399.185C311.486 399.196 311.483 399.206 311.478 399.216C311.478 400.12 311.268 401.013 310.864 401.822L310.813 401.873C308.319 403.581 241.053 405.891 238.681 405.175C236.31 404.46 238.14 397.651 240.726 395.474C243.312 393.297 268.634 380.907 268.634 380.907L269.053 336.898L311.968 335.487Z" fill="#AD6359"/>
<path d="M311.959 370.5V379.547C311.959 387.96 311.887 395.341 311.468 399.154C311.473 399.163 311.476 399.174 311.476 399.185C311.476 399.195 311.473 399.206 311.468 399.215C311.362 400.104 311.156 400.979 310.855 401.822L310.803 401.873C308.309 403.58 241.043 405.891 238.672 405.175C236.3 404.46 238.13 397.651 240.716 395.474C243.302 393.296 268.624 380.906 268.624 380.906L268.502 371.706L311.959 370.5Z" fill="#C7C7C7"/>
<path d="M238.671 405.175C241.043 405.891 308.309 403.591 310.813 401.873C311.774 401.239 312.009 391.415 311.958 379.547V379.168L268.542 380.191L268.593 380.927C268.593 380.927 243.241 393.327 240.685 395.504C238.129 397.682 236.289 404.49 238.671 405.175Z" fill="#263238"/>
<path d="M239.335 402.548C250.672 401.873 296.43 400.258 307.675 400.503C307.767 400.503 307.767 400.565 307.675 400.575C296.43 401.474 250.693 402.732 239.346 402.773C239.11 402.732 239.1 402.558 239.335 402.548Z" fill="#455A64"/>
<path d="M264.935 381.162C269.372 380.14 274.851 380.671 278.368 383.738C278.511 383.861 278.368 384.045 278.194 384.004C273.881 382.776 269.45 382.012 264.976 381.724C264.909 381.717 264.846 381.687 264.8 381.639C264.753 381.591 264.724 381.527 264.72 381.46C264.715 381.393 264.734 381.327 264.773 381.272C264.812 381.217 264.87 381.178 264.935 381.162Z" fill="#455A64"/>
<path d="M261.786 383.217C266.212 382.194 271.702 382.726 275.218 385.793C275.351 385.905 275.218 386.1 275.034 386.059C270.723 384.829 266.291 384.065 261.816 383.779C261.75 383.77 261.689 383.739 261.643 383.69C261.597 383.641 261.57 383.577 261.567 383.511C261.563 383.444 261.583 383.378 261.623 383.324C261.663 383.27 261.721 383.232 261.786 383.217Z" fill="#455A64"/>
<path d="M258.626 385.261C263.063 384.239 268.542 384.781 272.059 387.837C272.202 387.96 272.059 388.154 271.885 388.113C267.573 386.882 263.142 386.114 258.667 385.823C258.6 385.817 258.538 385.786 258.491 385.738C258.444 385.69 258.416 385.627 258.411 385.559C258.406 385.492 258.425 385.426 258.464 385.371C258.504 385.317 258.561 385.278 258.626 385.261Z" fill="#455A64"/>
<path d="M315.823 172.26L315.782 175.173L314.136 303.837L314.126 304.328L313.154 381.397L266.068 380.457L275.156 172.413L275.279 169.633L275.739 145.497H315.506L315.823 172.26Z" fill="#455A64"/>
<path d="M268.042 372.606C275.392 372.534 273.276 372.452 280.626 372.473C284.224 372.473 307.869 372.565 311.222 373.158C311.294 373.158 311.294 373.301 311.222 373.311C307.849 373.822 284.214 373.311 280.616 373.25C273.265 373.097 275.381 373.056 268.031 372.82C268.009 372.812 267.989 372.797 267.976 372.777C267.963 372.757 267.956 372.733 267.957 372.709C267.958 372.685 267.967 372.662 267.982 372.644C267.997 372.625 268.018 372.612 268.042 372.606Z" fill="#263238"/>
<path d="M289.131 185.795C289.131 185.773 289.122 185.752 289.107 185.737C289.091 185.721 289.071 185.713 289.049 185.713C289.027 185.713 289.006 185.721 288.991 185.737C288.976 185.752 288.967 185.773 288.967 185.795C288.967 198.113 288.466 205.013 288.17 217.322C287.873 229.63 287.516 241.938 287.147 254.236C286.483 278.842 285.491 303.428 284.582 328.024C284.07 341.818 283.433 355.605 282.67 369.385C282.67 369.404 282.677 369.423 282.691 369.436C282.704 369.449 282.723 369.457 282.741 369.457C282.76 369.457 282.779 369.449 282.792 369.436C282.806 369.423 282.813 369.404 282.813 369.385C284.602 344.851 286.309 320.234 287.291 295.628C288.272 271.022 288.967 246.426 289.08 221.82C289.182 208.009 289.1 199.606 289.131 185.795Z" fill="#263238"/>
<path d="M315.812 172.26L314.136 303.837L282.578 145.497H315.495L315.812 172.26Z" fill="#263238"/>
<path d="M364.779 333.105C364.779 333.105 370.708 376.726 370.708 376.756C371.894 385.098 372.753 392.428 372.876 396.261C372.876 396.261 372.876 396.261 372.876 396.323C372.995 397.216 372.911 398.124 372.63 398.98C372.629 399.001 372.629 399.021 372.63 399.042C370.381 401.086 304.035 412.434 301.592 412.045C299.149 411.657 300.049 404.664 302.267 402.16C304.485 399.655 327.957 383.963 327.957 383.963L322.436 340.302L364.779 333.105Z" fill="#AD6359"/>
<path d="M369.492 367.801C369.492 367.801 370.708 376.725 370.708 376.756C371.894 385.098 372.753 392.427 372.876 396.261C372.876 396.261 372.876 396.261 372.876 396.322C372.895 397.215 372.812 398.106 372.63 398.98C372.629 399.001 372.629 399.021 372.63 399.042C370.381 401.086 304.035 412.433 301.592 412.045C299.149 411.656 300.049 404.664 302.267 402.16C304.485 399.655 327.957 383.963 327.957 383.963L326.556 374.844L369.492 367.801Z" fill="#C7C7C7"/>
<path d="M301.552 412.045C304.005 412.434 370.341 401.076 372.59 399.042C373.459 398.275 372.365 388.523 370.709 376.756L370.648 376.388L327.773 383.237L327.916 383.963C327.916 383.963 304.465 399.665 302.227 402.17C299.988 404.675 299.057 411.647 301.552 412.045Z" fill="#263238"/>
<path d="M301.858 409.346C313.001 407.158 358.083 399.379 369.328 398.101C369.42 398.101 369.43 398.152 369.328 398.173C358.339 400.585 313.164 407.997 301.919 409.571C301.654 409.602 301.623 409.397 301.858 409.346Z" fill="#455A64"/>
<path d="M324.338 384.709C328.601 383.135 334.101 382.89 337.996 385.445C338.149 385.547 337.996 385.762 337.853 385.742C333.416 385.101 328.922 384.94 324.451 385.261C324.384 385.263 324.318 385.241 324.266 385.199C324.213 385.157 324.177 385.098 324.164 385.032C324.151 384.966 324.161 384.898 324.193 384.839C324.224 384.78 324.276 384.734 324.338 384.709Z" fill="#455A64"/>
<path d="M321.487 387.163C325.75 385.588 331.25 385.343 335.144 387.909C335.298 388.001 335.144 388.216 335.001 388.195C330.564 387.56 326.071 387.399 321.599 387.715C321.532 387.716 321.467 387.694 321.414 387.652C321.362 387.61 321.326 387.551 321.312 387.486C321.299 387.42 321.309 387.352 321.341 387.293C321.373 387.234 321.425 387.188 321.487 387.163Z" fill="#455A64"/>
<path d="M318.645 389.627C322.908 388.052 328.398 387.807 332.303 390.363C332.456 390.465 332.303 390.68 332.16 390.659C327.723 390.014 323.229 389.853 318.757 390.179C318.69 390.18 318.625 390.158 318.572 390.116C318.52 390.074 318.484 390.015 318.471 389.95C318.457 389.884 318.467 389.816 318.499 389.757C318.531 389.698 318.583 389.652 318.645 389.627Z" fill="#455A64"/>
<path d="M279.787 145.456C279.961 146.273 282.741 159.175 285.624 170.256C287.72 178.352 289.877 185.467 291.114 186.204C292.514 187.032 299.343 190.058 301.633 191.008L312.091 291.018L326.229 383.615L372.457 376.459L339.56 173.803L334.203 145.456H279.787Z" fill="#455A64"/>
<path d="M326.506 374.323C333.764 373.158 331.617 373.383 338.937 372.278C342.494 371.747 365.884 368.281 369.288 368.373C369.36 368.373 369.38 368.496 369.288 368.516C366.038 369.539 342.586 372.606 339.019 373.055C331.73 373.996 333.815 373.648 326.516 374.517C326.499 374.508 326.484 374.495 326.473 374.478C326.462 374.462 326.456 374.443 326.455 374.423C326.454 374.403 326.458 374.384 326.467 374.366C326.476 374.349 326.49 374.334 326.506 374.323Z" fill="#263238"/>
<path d="M353.237 346.67C352.082 340.251 350.937 333.831 349.751 327.411C347.387 314.571 345.001 301.735 342.595 288.902C337.77 263.215 333 237.508 328.284 211.781C325.646 197.265 325.707 198.624 323.407 184.036C323.407 183.944 323.223 183.955 323.244 184.036C325.452 196.999 324.409 194.157 326.495 207.14C328.58 220.123 330.768 232.83 333.068 245.639C337.689 271.39 342.534 297.1 347.431 322.8C348.794 330.011 350.188 337.211 351.612 344.401C353.043 351.741 354.679 359.04 356.192 366.36C356.192 366.523 356.488 366.513 356.458 366.36C355.394 359.807 354.433 353.223 353.237 346.67Z" fill="#263238"/>
<path d="M340.532 184.997C339.305 184.68 337.987 184.578 336.739 184.384C335.717 184.22 334.695 184.036 333.673 183.821C331.749 183.477 329.926 182.709 328.336 181.572C326.598 180.223 325.709 178.168 324.871 176.195C324.366 175.03 323.855 173.864 323.337 172.699L322.571 171.012C322.214 170.35 321.896 169.668 321.62 168.968C321.62 168.866 321.426 168.968 321.467 168.968C321.641 169.445 321.784 169.934 321.896 170.43C322.07 170.992 322.223 171.554 322.397 172.116C322.714 173.139 323.02 174.161 323.348 175.183C323.845 177.028 324.562 178.805 325.484 180.479C327.345 183.423 330.657 184.619 333.969 185.038C334.92 185.15 335.881 185.222 336.842 185.273C338.046 185.38 339.257 185.38 340.46 185.273C340.489 185.266 340.514 185.251 340.535 185.23C340.555 185.21 340.57 185.184 340.577 185.156C340.584 185.128 340.584 185.098 340.576 185.07C340.568 185.043 340.553 185.017 340.532 184.997Z" fill="#263238"/>
<path d="M287.486 184.435C292.362 186.206 297.072 188.402 301.563 190.998C301.601 191.016 301.63 191.048 301.645 191.087C301.659 191.126 301.657 191.17 301.64 191.208C301.622 191.246 301.59 191.275 301.551 191.289C301.511 191.304 301.468 191.302 301.43 191.284C296.687 189.24 291.851 187.297 287.231 185.008C287.166 184.967 287.119 184.904 287.097 184.831C287.076 184.759 287.081 184.68 287.112 184.611C287.142 184.542 287.197 184.486 287.266 184.453C287.335 184.421 287.413 184.415 287.486 184.435Z" fill="#263238"/>
<path d="M286.055 151.988C286.055 151.824 286.361 151.784 286.361 151.988C286.358 157.28 286.624 162.569 287.159 167.833C287.373 170.277 289.336 183.771 293.579 182.789C294.284 182.626 294.601 181.92 294.754 180.857C294.739 179.459 294.55 178.068 294.192 176.717C293.722 173.885 293.343 171.054 293.108 168.201C292.609 162.887 292.667 157.535 293.282 152.233C293.282 152.198 293.296 152.164 293.321 152.139C293.346 152.114 293.38 152.1 293.415 152.1C293.45 152.1 293.484 152.114 293.509 152.139C293.534 152.164 293.548 152.198 293.548 152.233C293.43 159.605 293.86 166.976 294.836 174.284C295.368 177.79 297.136 183.075 293.466 183.617C289.796 184.159 287.332 175.316 286.852 172.894C285.681 165.989 285.413 158.962 286.055 151.988Z" fill="#263238"/>
<path d="M293.466 183.096C293.839 184.009 294.157 184.945 294.417 185.897C294.69 186.632 294.825 187.412 294.815 188.197C294.809 188.229 294.794 188.258 294.771 188.281C294.749 188.304 294.72 188.32 294.688 188.327C294.656 188.333 294.623 188.33 294.593 188.318C294.563 188.306 294.537 188.285 294.519 188.258C294.063 187.57 293.718 186.815 293.497 186.019C293.17 185.161 292.832 184.292 292.536 183.423C292.492 183.299 292.5 183.164 292.556 183.046C292.613 182.928 292.714 182.837 292.837 182.794C292.961 182.751 293.096 182.758 293.214 182.815C293.332 182.871 293.423 182.972 293.466 183.096Z" fill="#263238"/>
<path d="M340.041 176.778C334.438 176.41 275.279 169.622 275.279 169.622L275.739 145.486H279.828H334.244L339.601 173.834L340.041 176.778Z" fill="#263238"/>
<path d="M298.607 90.0586C291.84 111.24 280.38 133.107 277.068 137.411C268.184 148.983 241.493 160.381 233.345 161.853C229.818 162.487 221.364 139.741 223.552 136.613C225.739 133.485 258.912 120.809 260.538 119.122C261.662 117.946 275.657 99.9134 285.072 89.0364C296.839 75.5116 300.386 84.5179 298.607 90.0586Z" fill="#AD6359"/>
<path d="M230.637 132.197L243.742 158.776C243.742 158.776 271.599 146.703 278.234 138.085C284.869 129.467 296.89 100.261 298.679 90.958C300.468 81.6552 297.381 75.0104 284.92 88.6067C272.458 102.203 262.133 115.748 259.905 118.018C257.676 120.287 230.637 132.197 230.637 132.197Z" fill="#EBEBEB"/>
<path d="M231.74 130.847L247.442 158.388C247.442 158.388 271.977 146.662 278.233 138.964C284.49 131.267 294.805 107.631 298.035 94.8735C301.265 82.1154 299.374 73.0683 284.929 88.6785C270.485 104.289 262.317 115.626 259.372 118.171C257.972 119.275 231.74 130.847 231.74 130.847Z" fill="#37474F"/>
<path d="M238.355 133.393C239.152 133.393 239.797 132.747 239.797 131.951C239.797 131.155 239.152 130.51 238.355 130.51C237.559 130.51 236.914 131.155 236.914 131.951C236.914 132.747 237.559 133.393 238.355 133.393Z" fill="#263238"/>
<path d="M245.152 130.265C245.948 130.265 246.594 129.619 246.594 128.823C246.594 128.027 245.948 127.382 245.152 127.382C244.356 127.382 243.711 128.027 243.711 128.823C243.711 129.619 244.356 130.265 245.152 130.265Z" fill="#263238"/>
<path d="M298.036 94.8324C294.805 107.59 284.501 131.185 278.234 138.923C275.556 142.225 269.565 146.253 263.564 149.79L295.183 80.541C300.08 79.212 300.234 86.1635 298.036 94.8324Z" fill="#263238"/>
<path d="M343.128 166.647C342.964 166.831 272.243 167.046 271.569 166.32C270.659 165.298 286.637 88.627 293.895 79.2118C295.439 77.1673 300.56 76.6255 304.915 77.1673C306.051 77.2954 307.173 77.5246 308.268 77.8522H308.391C309.274 78.1127 310.107 78.5206 310.855 79.0585C322.958 88.7292 333.161 122.536 335.543 132.687C339.53 149.442 343.711 165.983 343.128 166.647Z" fill="#EBEBEB"/>
<path d="M310.649 78.1592C310.649 78.1592 304.894 109.543 303.892 117.701C302.89 125.859 304.362 168.948 304.362 168.948L348.77 172.229C348.77 172.229 339.171 143.708 339.059 141.898C339.059 141.898 331.085 107.734 323.612 93.4627C320.348 87.5529 315.942 82.351 310.649 78.1592Z" fill="#37474F"/>
<path d="M348.77 172.229L328.631 170.736L314.258 81.3179V81.3792L323.274 92.9309C323.377 93.1149 323.479 93.299 323.571 93.483C331.044 107.795 339.017 141.918 339.017 141.918C339.171 143.707 348.77 172.229 348.77 172.229Z" fill="#263238"/>
<path d="M293.465 78.8442C293.465 78.8442 288.752 110.627 288.241 113.254C287.73 115.881 280.595 167.711 280.595 167.711L269.482 168.058L275.279 144.362C275.279 144.362 288.17 85.6117 293.465 78.8442Z" fill="#37474F"/>
<path d="M299.958 96.2841L296.809 90.1504L292.74 94.5871L293.742 99.0033L297.749 99.5247L299.958 96.2841Z" fill="#263238"/>
<path d="M297.748 99.5248L299.67 144.648L291.216 159.573L286.82 142.777L293.741 99.0034L297.748 99.5248Z" fill="#263238"/>
<path d="M295.977 224.238L295.922 277.232L383.388 277.324L383.443 224.329L295.977 224.238Z" fill="#6777EF"/>
<path opacity="0.1" d="M295.973 224.243L295.947 249.197L383.413 249.288L383.439 224.335L295.973 224.243Z" fill="black"/>
<path d="M293.89 241.165L385.496 241.261L385.522 216.532L293.916 216.436L293.89 241.165Z" fill="#6777EF"/>
<path d="M320.444 202.366L320.424 216.463L327.058 216.473L327.069 208.448L352.37 208.479L352.36 216.504H358.994L359.005 202.396L320.444 202.366Z" fill="#263238"/>
<path d="M366.94 247.138L372.91 247.144L372.923 235.327L366.952 235.32L366.94 247.138Z" fill="#263238"/>
<path d="M306.452 247.088L312.422 247.095L312.434 235.277L306.464 235.271L306.452 247.088Z" fill="#263238"/>
<path d="M320.423 87.5848C340.153 105.485 352.676 131.052 353.525 136.215C355.569 148.697 358.156 170.573 357.716 180.172C357.553 183.73 330.595 179.416 330.646 175.613C330.82 163.714 329.235 137.544 329.164 137.083C328.683 133.884 322.816 119.5 316.897 103.9C310.978 88.3004 312.123 80.0711 320.423 87.5848Z" fill="#AD6359"/>
<path d="M327.803 212.906C328.59 213.263 329.467 213.372 330.316 213.216C331.166 213.061 331.948 212.649 332.557 212.037C333.326 213.286 334.509 214.226 335.9 214.694C338.384 215.41 340.592 211.822 340.592 211.822C341.663 212.952 343.048 213.736 344.569 214.071C347.012 214.51 349.762 211.209 349.762 211.209C351.316 211.698 352.994 211.618 354.495 210.984C357.041 209.788 359.198 202.489 359.729 198.287C360.261 194.085 357.817 181.665 357.593 179.252L330.645 175.633C330.645 175.633 322.917 193.809 322.999 198.839C323.07 203.102 324.839 211.433 327.803 212.906Z" fill="#AD6359"/>
<path d="M332.149 211.791C330.993 207.303 331.229 202.713 331.208 198.134C331.208 198.112 331.217 198.091 331.232 198.076C331.247 198.06 331.268 198.052 331.29 198.052C331.312 198.052 331.332 198.06 331.348 198.076C331.363 198.091 331.372 198.112 331.372 198.134C331.372 202.693 332.21 207.201 332.394 211.76C332.398 211.793 332.389 211.826 332.369 211.852C332.349 211.878 332.319 211.894 332.287 211.899C332.254 211.903 332.221 211.894 332.195 211.873C332.169 211.853 332.153 211.824 332.149 211.791Z" fill="#263238"/>
<path d="M340.256 211.689C340.091 210.644 340.063 209.582 340.174 208.53C340.174 207.416 340.297 206.291 340.389 205.177C340.566 202.942 340.794 200.713 341.074 198.491C341.074 198.389 341.237 198.389 341.227 198.491C341.064 200.72 340.931 202.948 340.849 205.177C340.849 206.301 340.788 207.416 340.767 208.53C340.812 209.587 340.743 210.646 340.563 211.689C340.551 211.72 340.53 211.747 340.503 211.766C340.475 211.785 340.443 211.795 340.409 211.795C340.376 211.795 340.343 211.785 340.316 211.766C340.289 211.747 340.268 211.72 340.256 211.689Z" fill="#263238"/>
<path d="M349.763 211.117C349.632 210.168 349.659 209.204 349.845 208.264C349.947 207.242 350.039 206.22 350.131 205.198C350.315 203.153 350.489 201.109 350.591 199.064C350.591 198.962 350.754 198.962 350.754 199.064C350.652 201.109 350.581 203.214 350.468 205.29L350.284 208.356C350.306 209.291 350.164 210.221 349.865 211.106C349.86 211.115 349.854 211.123 349.845 211.129C349.837 211.135 349.827 211.138 349.817 211.139C349.807 211.14 349.796 211.139 349.787 211.135C349.778 211.131 349.769 211.125 349.763 211.117Z" fill="#263238"/>
<path d="M329.327 175.756L359.208 177.371C359.208 177.371 357 144.659 354.628 135.571C352.257 126.483 332.016 96.1924 320.065 85.2132C308.82 74.878 308.82 83.4753 313.083 95.5893C317.346 107.703 327.896 136.981 328.254 139.118C328.611 141.254 329.327 175.756 329.327 175.756Z" fill="#37474F"/>
<path d="M330.667 169.725C331.812 169.622 332.967 169.725 334.112 169.725C335.257 169.725 336.402 169.776 337.547 169.827C339.755 169.919 341.963 170.052 344.171 170.195L350.785 170.634C353.065 170.788 355.396 170.829 357.655 171.166C357.671 171.172 357.684 171.182 357.694 171.196C357.703 171.21 357.708 171.226 357.708 171.243C357.708 171.259 357.703 171.276 357.694 171.289C357.684 171.303 357.671 171.314 357.655 171.319C355.375 171.411 353.055 171.207 350.775 171.125L344.028 170.849C341.779 170.747 339.53 170.634 337.281 170.491C336.177 170.43 335.073 170.348 333.979 170.226C332.885 170.103 331.74 170.093 330.657 169.878C330.554 169.858 330.585 169.735 330.667 169.725Z" fill="#263238"/>
<path d="M297.871 89.3326C299.036 89.2814 306.775 83.1989 309.116 78.5169C309.28 78.1897 308.677 74.8571 308.145 70.7782C307.828 68.3043 307.532 65.5339 307.45 62.9885C307.45 62.4671 305.692 63.4894 305.692 63.4894L302.42 64.389L291.625 67.3945C292.642 70.5464 293.267 73.8116 293.486 77.1163C293.497 77.4587 293.473 77.8013 293.414 78.1386C293.418 78.1965 293.418 78.2546 293.414 78.3124C293.179 80.3263 295.99 89.4041 297.871 89.3326Z" fill="#AD6359"/>
<path d="M293.456 78.1591C293.46 78.2169 293.46 78.275 293.456 78.3329C294.003 78.3848 294.555 78.3848 295.102 78.3329C305.836 77.74 306.725 64.021 306.725 64.021L302.483 64.3481L291.688 67.3536C292.704 70.5056 293.329 73.7708 293.548 77.0755C293.558 77.439 293.527 77.8024 293.456 78.1591Z" fill="#263238"/>
<path d="M307.052 41.4183C309.628 46.7444 309.199 63.3666 305.774 67.5886C300.826 73.7223 291.462 75.6748 285.942 69.4287C280.595 63.3871 281.546 41.7352 285.482 37.7381C291.278 31.9316 303.249 33.5468 307.052 41.4183Z" fill="#AD6359"/>
<path d="M292.802 53.543C292.802 53.543 292.884 53.543 292.884 53.6452C292.822 54.7595 292.945 56.0578 293.906 56.4462C293.906 56.4462 293.906 56.5178 293.906 56.5076C292.71 56.3133 292.567 54.5959 292.802 53.543Z" fill="#263238"/>
<path d="M293.823 52.3976C295.622 52.2954 295.694 55.9143 294.017 56.0063C292.341 56.0983 292.31 52.4794 293.823 52.3976Z" fill="#263238"/>
<path d="M286.32 53.8496C286.32 53.8496 286.238 53.9007 286.238 53.9518C286.289 55.0661 286.166 56.3644 285.154 56.7529V56.8142C286.401 56.6098 286.555 54.8719 286.32 53.8496Z" fill="#263238"/>
<path d="M285.298 52.6843C283.499 52.582 283.417 56.2009 285.094 56.2929C286.771 56.3849 286.791 52.8274 285.298 52.6843Z" fill="#263238"/>
<path d="M295.223 50.7213C294.722 50.5986 294.283 50.4146 293.812 50.2511C293.29 50.1583 292.815 49.8917 292.463 49.4946C292.375 49.351 292.339 49.182 292.359 49.015C292.379 48.848 292.456 48.6928 292.575 48.5745C292.843 48.3696 293.16 48.2397 293.494 48.1984C293.828 48.157 294.168 48.2057 294.477 48.3394C295.146 48.5163 295.725 48.9353 296.102 49.515C296.181 49.652 296.218 49.8087 296.209 49.9662C296.2 50.1237 296.146 50.2754 296.053 50.4029C295.96 50.5304 295.833 50.6283 295.685 50.6848C295.538 50.7413 295.377 50.754 295.223 50.7213Z" fill="#263238"/>
<path d="M283.866 50.895C284.35 50.7886 284.828 50.6555 285.297 50.4963C285.819 50.4235 286.303 50.1832 286.677 49.8114C286.772 49.6718 286.818 49.5043 286.807 49.3357C286.796 49.1671 286.728 49.0071 286.616 48.8811C286.359 48.6618 286.048 48.5157 285.715 48.4582C285.382 48.4006 285.04 48.4337 284.725 48.554C284.049 48.6969 283.451 49.087 283.048 49.6478C282.963 49.7807 282.919 49.9351 282.92 50.0926C282.921 50.2501 282.967 50.404 283.054 50.5357C283.14 50.6675 283.263 50.7714 283.407 50.8352C283.551 50.8989 283.71 50.9197 283.866 50.895Z" fill="#263238"/>
<path d="M292.782 60.586C292.505 61.0339 292.139 61.4196 291.707 61.7187C291.274 62.0179 290.783 62.2239 290.267 62.3239C289.817 62.4213 289.356 62.4522 288.897 62.4159C288.809 62.4265 288.719 62.4265 288.631 62.4159H288.386C288.327 62.405 288.273 62.3752 288.232 62.3309C288.192 62.2866 288.167 62.2303 288.161 62.1705C288.156 62.1332 288.156 62.0954 288.161 62.0581V61.9559C288.161 61.0971 288.161 59.7886 288.161 59.7886C287.844 59.9522 286.249 60.6985 286.27 60.2487C286.303 56.3613 286.731 52.4875 287.548 48.6867C287.548 48.6596 287.558 48.6336 287.578 48.6144C287.597 48.5952 287.623 48.5845 287.65 48.5845C287.677 48.5845 287.703 48.5952 287.722 48.6144C287.741 48.6336 287.752 48.6596 287.752 48.6867C287.752 52.2851 287.098 55.8426 287.036 59.4615C287.603 59.1847 288.205 58.9885 288.825 58.8788C288.948 58.8788 288.662 61.414 288.713 61.8025C289.419 61.8608 290.13 61.7759 290.803 61.5528C291.476 61.3297 292.097 60.9731 292.628 60.5042C292.761 60.4224 292.843 60.494 292.782 60.586Z" fill="#263238"/>
<path d="M289.396 61.966C289.876 62.5747 290.507 63.0469 291.226 63.3359C291.622 63.4837 292.055 63.5052 292.463 63.3972C293.363 63.1417 293.363 62.375 293.189 61.6185C293.089 61.2629 292.948 60.9199 292.77 60.5962C291.82 61.3996 290.638 61.8794 289.396 61.966Z" fill="#263238"/>
<path d="M291.227 63.3361C291.623 63.4839 292.055 63.5053 292.464 63.3974C293.363 63.1418 293.363 62.3751 293.189 61.6187C292.718 61.6463 292.269 61.8301 291.914 62.1411C291.558 62.4521 291.317 62.8725 291.227 63.3361Z" fill="#FF9ABB"/>
<path d="M283.191 43.2994C283.774 41.8682 284.459 40.4268 285.307 40.1201C286.156 39.8135 286.759 41.8989 288.712 41.9909C291.339 42.1238 292.566 39.6908 296.236 39.3637C301.5 38.8934 303.903 43.2585 304.179 50.7416C304.414 57.4171 308.472 57.9691 308.472 57.9691C308.472 57.9691 310.64 43.187 306.428 38.3823C302.216 33.5776 292.607 31.6046 286.289 36.3377C283.948 38.1267 283.191 43.2994 283.191 43.2994Z" fill="#263238"/>
<path d="M305.048 55.4032C305.048 55.4032 308.002 49.6682 310.558 50.6496C313.114 51.631 311.386 59.6047 308.728 61.0257C308.4 61.2302 308.034 61.3661 307.652 61.4253C307.27 61.4846 306.88 61.4658 306.506 61.3703C306.132 61.2748 305.78 61.1044 305.474 60.8695C305.167 60.6346 304.911 60.34 304.721 60.0034L305.048 55.4032Z" fill="#AD6359"/>
<path d="M310.006 52.9292C310.006 52.9292 310.068 52.9803 310.006 53.0008C308.156 54.023 307.369 56.0063 306.94 57.9895C307.026 57.7768 307.157 57.5856 307.325 57.4291C307.493 57.2726 307.693 57.1547 307.911 57.0837C308.129 57.0126 308.36 56.99 308.588 57.0176C308.816 57.0451 309.035 57.1221 309.229 57.2432C309.281 57.2432 309.229 57.3557 309.229 57.3557C308.871 57.2919 308.501 57.3412 308.171 57.4969C307.841 57.6526 307.568 57.9069 307.389 58.2246C307.09 58.7557 306.851 59.3179 306.674 59.9011C306.612 60.0954 306.275 60.0442 306.316 59.8296C305.887 57.2943 307.359 53.5426 310.006 52.9292Z" fill="#263238"/>
<path d="M293.405 78.5476L297.259 88.0139L308.954 76.0532L312.287 79.8765C312.287 79.8765 300.858 98.8296 300.786 98.0015L296.881 89.8846L291.289 95.548L291.708 81.3486L293.405 78.5476Z" fill="#EBEBEB"/>
<path d="M291.093 88.525C291.247 86.1839 291.329 83.8123 291.584 81.4815C291.584 81.3997 291.727 81.369 291.748 81.4815C292.218 83.7407 291.605 92.7265 291.615 94.8426C291.85 94.5973 296.798 89.8641 296.849 89.9357C297.697 91.2238 300.56 97.0916 300.754 97.6743C302.563 94.6586 309.484 83.6998 311.631 80.8477C311.644 80.8362 311.661 80.8293 311.678 80.8279C311.695 80.8265 311.713 80.8306 311.727 80.8398C311.742 80.8489 311.754 80.8625 311.76 80.8786C311.767 80.8948 311.768 80.9126 311.764 80.9294C310.2 84.0576 301.04 98.8295 300.897 98.8295C299.389 96.0383 298.024 93.1723 296.808 90.2424C295.97 91.2647 290.971 96.6316 290.95 96.284C290.863 93.6969 290.911 91.1071 291.093 88.525Z" fill="#263238"/>
<path d="M161.358 88.3001C174.218 113.683 187.283 174.744 188.499 182.912C189.327 188.463 160.141 193.482 160.141 189.638C160.141 184.711 154.253 127.075 154.815 104.299C155.122 91.7349 158.7 83.0558 161.358 88.3001Z" fill="#EB9481"/>
<path d="M160.028 187.205C159.558 190.548 160.672 202.131 162.86 210.718C163.882 214.909 168.258 226.614 171.539 226.052C174.821 225.49 173.849 221.963 173.849 221.963C173.849 221.963 176.426 226.624 179.666 225.755C182.907 224.886 181.241 219.428 181.241 219.428C181.241 219.428 184.226 224.038 187.374 222.934C190.523 221.83 187.936 216.626 187.936 216.626C187.936 216.626 190.482 220.971 192.71 218.957C195.399 216.534 189.817 209.072 188.877 204.38C188.662 203.357 186.055 182.482 186.055 182.482L160.028 187.205Z" fill="#EB9481"/>
<path d="M187.977 216.555C183.888 211.055 183.05 207.937 182.539 201.221C182.531 201.198 182.517 201.178 182.498 201.164C182.479 201.15 182.455 201.142 182.431 201.142C182.407 201.142 182.384 201.15 182.365 201.164C182.345 201.178 182.331 201.198 182.324 201.221C182.232 207.856 182.723 211.914 187.722 216.79C187.967 217.005 188.171 216.811 187.977 216.555Z" fill="#263238"/>
<path d="M181.322 219.724C177.57 213.641 176.63 210.268 175.567 203.265C175.567 203.163 175.383 203.173 175.393 203.265C175.853 210.227 176.415 214.265 180.985 219.857C181.189 220.123 181.496 220 181.322 219.724Z" fill="#263238"/>
<path d="M173.553 221.503C170.353 215.369 169.168 211.699 169.014 204.768C169.006 204.741 168.99 204.716 168.966 204.699C168.943 204.681 168.915 204.672 168.886 204.672C168.858 204.672 168.829 204.681 168.806 204.699C168.783 204.716 168.767 204.741 168.759 204.768C168.227 211.853 169.679 216.422 173.359 221.595C173.614 221.891 173.758 221.851 173.553 221.503Z" fill="#263238"/>
<path d="M188.314 181.46C188.314 181.46 193.016 188.616 194.386 192.266C195.756 195.915 195.909 211.219 192.597 211.444C188.324 211.73 186.464 202.887 186.157 198.44C186.157 198.44 176.261 199.105 173.583 193.043C170.905 186.981 188.314 181.46 188.314 181.46Z" fill="#EB9481"/>
<path d="M191.401 211.127C187.312 208.581 187.251 202.713 186.607 198.42C186.6 198.356 186.578 198.294 186.543 198.241C186.508 198.187 186.46 198.143 186.403 198.112C186.347 198.081 186.284 198.064 186.22 198.062C186.156 198.061 186.092 198.075 186.034 198.103C181.874 198.103 175.996 196.897 173.481 193.298C173.476 193.284 173.467 193.272 173.457 193.261C173.446 193.251 173.433 193.243 173.419 193.238C173.405 193.233 173.39 193.231 173.375 193.233C173.361 193.234 173.346 193.239 173.334 193.247C173.321 193.254 173.31 193.264 173.301 193.277C173.293 193.289 173.287 193.303 173.285 193.317C173.282 193.332 173.283 193.347 173.287 193.361C173.291 193.376 173.298 193.389 173.307 193.4C175.474 197.633 181.158 199.289 185.718 198.992C186.311 203.398 186.627 209.287 191.371 211.168C191.401 211.178 191.422 211.147 191.401 211.127Z" fill="#263238"/>
<path d="M191.3 179.743L158.147 184.854C158.147 184.854 152.862 123.303 152.668 102.643C152.474 81.9825 159.895 76.9222 167.859 98.0527C175.822 119.183 191.3 179.743 191.3 179.743Z" fill="#6777EF"/>
<path d="M157.983 179.671C171.549 176.604 186.259 175.47 188.815 175.091C188.938 175.091 188.948 175.265 188.815 175.275C186.3 175.521 169.617 178.659 157.983 179.876C157.891 179.886 157.881 179.692 157.983 179.671Z" fill="#263238"/>
<path d="M231.465 405.124C229.165 405.871 161.745 404.858 159.271 403.233C158.975 403.049 158.934 396.956 159.016 388.604L155.734 338.993L198.394 339.116L201.768 382.051C201.768 382.051 211.336 386.468 219.228 390.332C222.681 391.901 226.037 393.676 229.277 395.648C231.822 397.774 233.765 404.388 231.465 405.124Z" fill="#EB9481"/>
<path d="M231.464 405.124C229.164 405.871 161.745 404.859 159.271 403.233C158.975 403.049 158.934 396.956 159.015 388.604C175.668 392.315 220.076 398.326 221.374 394.84C221.896 393.44 220.833 391.855 219.248 390.393C222.701 391.963 226.057 393.738 229.297 395.709C231.822 397.774 233.764 404.388 231.464 405.124Z" fill="#263238"/>
<path d="M137.723 158.428C137.723 158.428 149.806 286.642 150.072 288.196C150.072 288.401 150.205 290.772 150.317 294.626C150.992 315.777 152.648 381.734 152.648 381.734H203.332C203.332 381.734 200.03 303.612 198.129 285.395C195.706 262.138 180.812 158.428 180.812 158.428H137.723Z" fill="#37474F"/>
<path d="M156.112 292.53C154.551 265.91 152.203 239.331 149.068 212.793C147.289 197.868 145.143 182.993 143.016 168.109C143.016 167.976 142.791 167.986 142.812 168.109C146.737 194.596 149.508 221.267 151.9 247.959C154.292 274.651 155.989 301.281 157.011 328.003C157.635 343.133 158.105 358.283 158.586 373.423C158.598 373.489 158.633 373.547 158.684 373.59C158.736 373.632 158.8 373.656 158.867 373.656C158.933 373.656 158.998 373.632 159.049 373.59C159.1 373.547 159.135 373.489 159.148 373.423C158.473 346.476 157.696 319.488 156.112 292.53Z" fill="#263238"/>
<path d="M200.132 373.566C198.803 373.393 197.362 373.444 196.043 373.403C194.53 373.403 192.976 373.331 191.484 373.28C188.55 373.168 185.606 373.086 182.672 373.045C176.753 372.943 170.824 372.984 164.915 373.168L160.028 373.341C158.29 373.403 156.553 373.566 154.815 373.556C154.692 373.556 154.692 373.71 154.815 373.71C157.789 373.71 160.805 373.965 163.79 374.078C166.775 374.19 169.658 374.231 172.592 374.272C178.511 374.354 184.45 374.272 190.359 374.088C191.985 374.026 193.61 374.006 195.236 373.955L197.853 373.822C198.629 373.822 199.396 373.822 200.173 373.75C200.275 373.75 200.265 373.587 200.132 373.566Z" fill="#263238"/>
<path d="M174.341 158.428L151.186 325.427C150.859 312.976 150.532 301.465 150.317 294.626C150.205 290.772 150.113 288.4 150.072 288.196C149.786 286.642 137.723 158.428 137.723 158.428H174.341Z" fill="#263238"/>
<path d="M146.554 414.018C144.142 413.824 82.294 386.959 80.6379 384.505C80.4334 384.229 82.6824 378.586 86.0253 370.909L99.6625 322.862L139.122 338.697L127.99 381.357C127.99 381.357 135.146 389.116 140.932 395.668C143.516 398.45 145.933 401.382 148.169 404.45C149.713 407.363 148.957 414.223 146.554 414.018Z" fill="#EB9481"/>
<path d="M146.554 414.018C144.142 413.824 82.294 386.958 80.6379 384.505C80.4334 384.229 82.6824 378.586 86.0253 370.909C99.9794 380.743 138.652 403.356 141.228 400.637C142.251 399.553 141.872 397.672 140.973 395.709C143.557 398.49 145.974 401.423 148.21 404.49C149.713 407.363 148.957 414.223 146.554 414.018Z" fill="#263238"/>
<path d="M81.5879 365.961L131.035 381.295C131.035 381.295 155.182 296.599 157.032 276.706C158.862 256.986 160.63 216.698 161.418 187.471C161.418 187.471 169.678 182.585 171.773 179.917C173.869 177.248 175.75 167.649 179.88 158.449H119.381C104.926 186.531 115.804 199.023 115.804 205.146C115.804 234.711 111.336 273.956 109.915 279.773C106.951 291.897 81.5879 365.961 81.5879 365.961Z" fill="#37474F"/>
<path d="M130.923 370.479C129.686 369.968 128.285 369.651 126.997 369.253C125.535 368.813 124.063 368.404 122.612 367.954C119.811 367.085 116.989 366.257 114.168 365.46C108.477 363.838 102.745 362.345 96.973 360.982L92.2092 359.889C90.5224 359.5 88.7948 359.204 87.0978 358.754C86.9649 358.754 86.9342 358.866 87.0978 358.907C89.9806 359.664 92.8225 360.696 95.6747 361.575C98.5269 362.455 101.307 363.242 104.129 364.049C109.823 365.654 115.568 367.116 121.334 368.455C122.929 368.813 124.503 369.212 126.087 369.59L128.633 370.152C129.389 370.326 130.125 370.571 130.892 370.684C130.919 370.688 130.947 370.681 130.969 370.665C130.991 370.648 131.006 370.624 131.01 370.597C131.014 370.57 131.007 370.542 130.991 370.52C130.974 370.498 130.95 370.483 130.923 370.479Z" fill="#263238"/>
<path d="M173.185 179.252C170.298 180.579 167.557 182.203 165.007 184.098C162.298 185.958 159.803 188.095 157.197 190.088C157.094 190.17 157.197 190.333 157.299 190.262C160.049 188.504 162.932 186.96 165.651 185.151C168.381 183.494 170.954 181.592 173.338 179.467C173.41 179.385 173.318 179.201 173.185 179.252Z" fill="#263238"/>
<path d="M173.563 162.211C173.215 164.092 172.755 165.963 172.346 167.833C171.937 169.704 171.682 171.381 171.222 173.119C170.841 174.8 169.986 176.336 168.758 177.545C168.073 178.189 167.306 178.751 166.57 179.344C166.182 179.661 165.752 179.958 165.344 180.285C165.395 180.029 165.436 179.784 165.476 179.518C165.609 178.813 165.732 178.097 165.844 177.381C166.11 175.797 166.366 174.202 166.611 172.618C167.092 169.489 167.531 166.331 168.185 163.233C168.192 163.206 168.188 163.177 168.174 163.153C168.159 163.129 168.136 163.112 168.109 163.105C168.082 163.099 168.053 163.103 168.029 163.117C168.005 163.132 167.988 163.155 167.981 163.182C167.204 166.249 166.345 169.316 165.671 172.383C165.333 173.896 164.147 181.379 164.096 181.91C164.045 182.442 163.994 183.004 163.974 183.556C163.907 184.116 163.907 184.682 163.974 185.243C163.974 185.376 164.178 185.355 164.229 185.243C164.458 184.724 164.62 184.177 164.71 183.617C164.843 183.086 164.965 182.544 165.057 182.002C165.057 181.808 165.119 181.603 165.149 181.399C165.885 180.949 166.57 180.377 167.265 179.866C167.961 179.354 168.758 178.843 169.463 178.21C170.763 177.113 171.7 175.648 172.152 174.008C172.606 172.242 172.904 170.439 173.041 168.621C173.276 166.494 173.45 164.358 173.747 162.242C173.777 162.211 173.583 162.109 173.563 162.211Z" fill="#263238"/>
<path d="M172.296 80.6945C171.324 92.7063 170.118 105.055 167.317 116.791C165.129 125.93 160.161 133.035 150.245 133.986C141.045 134.865 128.317 132.964 121.57 126.002C118.422 122.761 117.737 118.693 118.565 114.358C119.72 108.337 129.094 75.7467 131.946 65.5648C133.684 59.3699 135.402 53.0829 138.223 47.2559C144.132 34.9886 150.49 36.0108 151.37 35.8575C152.198 35.469 157.35 33.9765 163.974 37.1251C165.717 37.9387 167.269 39.1116 168.527 40.5668C169.784 42.022 170.72 43.7267 171.273 45.5691C174.79 56.5279 173.236 69.4495 172.296 80.6945Z" fill="#263238"/>
<path d="M149.181 37.3603C141.075 39.8751 138.11 47.9511 135.248 55.1479C131.261 65.1764 127.437 75.2765 124.105 85.5504C122.51 90.488 121.038 95.4665 119.678 100.476C118.4 105.28 116.734 110.361 116.387 115.34C115.814 123.518 122.766 128.302 129.84 130.459C129.91 130.482 129.987 130.476 130.053 130.443C130.119 130.409 130.169 130.351 130.192 130.28C130.216 130.21 130.21 130.133 130.176 130.067C130.142 130.001 130.084 129.95 130.014 129.927C126.006 128.547 121.968 126.861 119.321 123.354C115.916 118.897 117.082 113.847 118.237 108.817C120.22 100.251 122.684 91.817 125.393 83.4752C128.102 75.1334 131.23 66.8734 134.42 58.685C137.486 50.885 140.318 40.4578 149.161 37.4932C149.294 37.4932 149.263 37.3296 149.181 37.3603Z" fill="#263238"/>
<path d="M173.531 54.7594C172.938 48.3293 170.526 41.8072 164.218 39.0981C172.335 42.9624 173.133 52.5206 173.194 60.4126C173.262 68.7339 173.027 77.0417 172.489 85.3357C171.977 93.3197 171.282 101.345 170.045 109.247C168.706 117.773 166.058 125.603 160.047 131.931C160.034 131.943 160.023 131.958 160.015 131.974C160.008 131.99 160.003 132.008 160.002 132.026C160.001 132.044 160.004 132.062 160.01 132.079C160.016 132.096 160.025 132.112 160.037 132.125C160.049 132.139 160.064 132.15 160.08 132.157C160.097 132.165 160.114 132.17 160.132 132.171C160.15 132.172 160.168 132.169 160.185 132.163C160.202 132.157 160.218 132.148 160.231 132.136C165.987 127.116 168.716 119.49 170.117 112.191C171.807 102.501 172.855 92.7102 173.255 82.8823C173.787 73.6306 174.39 64.0724 173.531 54.7594Z" fill="#263238"/>
<path d="M148.702 82.3301C149.09 83.3523 155.05 89.5882 159.875 88.7397C161.44 88.4535 160.284 79.8153 160.284 79.8153L160.346 79.161L161.184 69.9605L149.806 64.5833L148.181 63.8882C148.181 63.8882 148.109 66.4234 148.068 69.572C148.068 69.7254 148.068 69.8685 148.068 70.0218C148.058 70.1955 148.058 70.3696 148.068 70.5432C148.068 71.0135 148.068 71.4939 148.068 71.9744C148.068 72.4549 148.068 72.69 148.068 73.0682C148.068 73.4465 148.068 73.8349 148.068 74.2132C148.095 76.93 148.307 79.6419 148.702 82.3301Z" fill="#EB9481"/>
<path d="M148.066 69.572C149.293 71.9645 151.026 74.0614 153.144 75.7172C155.263 77.373 157.716 78.5481 160.334 79.161L161.172 69.9605L149.804 64.5833L148.179 63.8882C148.179 63.8882 148.107 66.4234 148.066 69.572Z" fill="#263238"/>
<path d="M172.877 56.4155C174.165 72.5675 164.638 75.1641 161.152 75.4401C157.983 75.6855 147.177 76.1353 144.233 60.1877C141.289 44.2402 148.394 38.5155 155.601 37.5954C162.808 36.6754 171.599 40.2533 172.877 56.4155Z" fill="#EB9481"/>
<path d="M170.16 52.9805C169.791 52.9262 169.426 52.8511 169.066 52.7556C168.666 52.7315 168.286 52.5771 167.982 52.316C167.905 52.2146 167.863 52.0907 167.863 51.9633C167.863 51.8359 167.905 51.712 167.982 51.6106C168.164 51.4347 168.39 51.31 168.636 51.249C168.882 51.188 169.139 51.1928 169.383 51.2631C169.904 51.3286 170.38 51.5922 170.712 51.9991C170.784 52.0944 170.827 52.2088 170.835 52.3282C170.844 52.4476 170.817 52.5668 170.758 52.6712C170.699 52.7755 170.611 52.8604 170.505 52.9153C170.399 52.9703 170.279 52.993 170.16 52.9805Z" fill="#263238"/>
<path d="M159.404 53.2053C159.782 53.1542 160.119 53.0519 160.498 52.9702C160.878 52.9275 161.236 52.7666 161.52 52.5101C161.599 52.4094 161.641 52.2853 161.641 52.1574C161.641 52.0296 161.599 51.9055 161.52 51.8048C161.335 51.6297 161.107 51.5071 160.859 51.4496C160.611 51.3921 160.352 51.4018 160.109 51.4776C159.595 51.5601 159.129 51.8295 158.801 52.2341C158.726 52.3329 158.684 52.4519 158.678 52.5753C158.673 52.6988 158.705 52.821 158.77 52.9259C158.835 53.0309 158.931 53.1137 159.044 53.1636C159.157 53.2134 159.282 53.228 159.404 53.2053Z" fill="#263238"/>
<path d="M161.93 57.2842C161.93 57.2842 161.848 57.2842 161.848 57.3762C161.92 58.4802 161.848 59.7581 160.826 60.1568C160.826 60.1568 160.826 60.2283 160.826 60.2181C162.073 59.983 162.176 58.3167 161.93 57.2842Z" fill="#263238"/>
<path d="M160.907 56.1598C159.128 56.0882 159.107 59.6457 160.753 59.7173C162.399 59.7888 162.399 56.2211 160.907 56.1598Z" fill="#263238"/>
<path d="M160.211 56.3439C159.894 56.5484 159.588 56.896 159.189 56.9368C158.79 56.9777 158.433 56.5995 158.167 56.2417H158.105C158.105 56.9164 158.341 57.6218 159.128 57.724C159.915 57.8262 160.283 57.2231 160.457 56.5382C160.446 56.4564 160.334 56.2622 160.211 56.3439Z" fill="#263238"/>
<path d="M168.064 57.0391C168.064 57.0391 168.145 57.0391 168.145 57.1311C168.094 58.2351 168.217 59.513 169.219 59.8912C169.219 59.8912 169.219 59.9628 169.219 59.9526C167.992 59.7685 167.839 58.0716 168.064 57.0391Z" fill="#263238"/>
<path d="M169.064 55.8938C170.833 55.7915 170.925 59.3491 169.279 59.4513C167.633 59.5535 167.571 55.9858 169.064 55.8938Z" fill="#263238"/>
<path d="M169.811 56.1189C170.097 56.2927 170.383 56.6301 170.72 56.6505C171.058 56.671 171.385 56.2723 171.63 55.894H171.681C171.681 56.5687 171.508 57.2843 170.864 57.4275C170.22 57.5706 169.841 56.9879 169.637 56.3234C169.606 56.2314 169.698 56.0372 169.811 56.1189Z" fill="#263238"/>
<path d="M166.448 62.0274C166.448 62.0274 166.683 63.6733 166.683 64.4502C166.683 64.532 166.499 64.5626 166.234 64.5831C165.567 64.7092 164.878 64.6491 164.243 64.4092C163.608 64.1693 163.052 63.759 162.635 63.2235C162.62 63.2072 162.612 63.1857 162.613 63.1636C162.614 63.1416 162.624 63.1208 162.64 63.1059C162.657 63.091 162.678 63.0831 162.7 63.0841C162.722 63.0851 162.743 63.0947 162.758 63.111C163.749 63.786 164.933 64.1197 166.131 64.0617C166.182 63.847 165.63 61.2505 165.753 61.2402C166.358 61.2887 166.953 61.4194 167.522 61.6287C167.133 58.1836 166.193 54.8306 165.845 51.4059C165.845 51.3788 165.856 51.3528 165.875 51.3337C165.894 51.3145 165.92 51.3037 165.947 51.3037C165.974 51.3037 166 51.3145 166.02 51.3337C166.039 51.3528 166.05 51.3788 166.05 51.4059C167.17 54.9709 167.934 58.6384 168.329 62.3545C168.36 62.7021 166.755 62.1296 166.448 62.0274Z" fill="#263238"/>
<path d="M167.696 58.1123C167.45 55.4748 168.667 53.2054 170.405 53.0009C172.142 52.7965 173.768 54.841 174.013 57.4785C174.259 60.116 172.991 62.3854 171.304 62.5899C169.617 62.7943 167.941 60.7498 167.696 58.1123ZM168.34 58.051C168.554 60.3306 169.853 62.0787 171.243 61.9561C172.633 61.8334 173.594 59.8604 173.379 57.5807C173.165 55.301 171.856 53.5529 170.466 53.6756C169.076 53.7983 168.125 55.7713 168.34 58.051Z" fill="#263238"/>
<path d="M155.683 59.2469C155.661 58.3732 155.895 57.5121 156.356 56.7694C156.816 56.0266 157.484 55.4345 158.276 55.0658C159.069 54.6971 159.952 54.5679 160.816 54.6939C161.681 54.8199 162.491 55.1957 163.145 55.7752C163.799 56.3546 164.27 57.1126 164.5 57.9559C164.729 58.7992 164.708 59.6912 164.437 60.5224C164.167 61.3536 163.66 62.0878 162.978 62.6348C162.297 63.1819 161.47 63.518 160.6 63.6018C159.372 63.6718 158.165 63.2533 157.244 62.4375C156.323 61.6217 155.762 60.4748 155.683 59.2469ZM156.327 59.1856C156.457 59.9206 156.799 60.6019 157.31 61.1461C157.82 61.6904 158.479 62.0741 159.204 62.2504C159.929 62.4267 160.69 62.388 161.394 62.139C162.098 61.89 162.714 61.4415 163.167 60.8482C163.62 60.2549 163.89 59.5426 163.945 58.7981C164 58.0537 163.837 57.3094 163.476 56.6561C163.115 56.0027 162.571 55.4687 161.912 55.1191C161.252 54.7696 160.505 54.6196 159.762 54.6876C158.711 54.8299 157.759 55.3834 157.115 56.2266C156.471 57.0698 156.188 58.1339 156.327 59.1856Z" fill="#263238"/>
<path d="M164.352 57.9896C166.662 56.9673 167.817 57.6114 167.827 57.6216L168.175 57.0798C168.124 57.0798 166.754 56.1802 164.086 57.4069L164.352 57.9896Z" fill="#263238"/>
<path d="M155.938 58.7975L155.999 58.1534C155.57 58.1534 145.654 57.2334 144.591 57.2743C143.528 57.3152 141.003 59.0224 140.727 59.2166L141.095 59.7482C142.145 58.954 143.319 58.3391 144.57 57.9285H144.693C145.47 57.9388 152.411 58.4806 155.938 58.7975Z" fill="#263238"/>
<path d="M144.694 59.0324C146.442 58.9302 151.002 54.0948 151.145 45.6304C151.145 45.6304 150.49 53.2259 149.928 54.3402C149.366 55.4544 152.474 51.6209 152.678 44.8023C154.832 46.3386 157.193 47.5606 159.691 48.4314C162.911 49.331 164.884 49.3003 165.119 49.0652C165.354 48.8301 160.601 47.3376 159.313 45.8655C159.313 45.8655 167.9 49.8421 171.846 50.1488C172.306 50.1488 172.868 40.7745 166.734 36.7877C160.601 32.8008 150.94 37.1148 148.333 39.6296C148.333 39.6296 145.267 40.059 141.965 44.5876C138.663 49.1163 142.813 59.1449 144.694 59.0324Z" fill="#263238"/>
<path d="M146.902 61.2304C146.902 61.2304 143.396 56.119 141.096 57.3866C138.796 58.6542 141.392 65.984 144.081 67.0063C144.417 67.1611 144.78 67.2466 145.15 67.2576C145.52 67.2687 145.888 67.205 146.233 67.0704C146.577 66.9358 146.891 66.7331 147.155 66.4744C147.42 66.2157 147.629 65.9064 147.771 65.5648L146.902 61.2304Z" fill="#EB9481"/>
<path d="M141.893 59.4717V59.5432C143.774 60.3304 144.755 62.0887 145.44 63.9084C145.333 63.7173 145.185 63.5521 145.007 63.4242C144.829 63.2963 144.625 63.2088 144.41 63.1679C144.195 63.127 143.973 63.1336 143.761 63.1874C143.549 63.2411 143.351 63.3407 143.181 63.479C143.181 63.479 143.181 63.5915 143.232 63.5812C143.565 63.4768 143.922 63.4787 144.253 63.5868C144.585 63.695 144.875 63.9038 145.082 64.1844C145.428 64.6526 145.723 65.1564 145.961 65.6871C146.043 65.8609 146.35 65.7689 146.288 65.5747C146.329 63.1212 144.479 59.7375 141.893 59.4717Z" fill="#263238"/>
<path d="M146.34 66.638C146.342 66.873 146.275 67.1033 146.146 67.2996C146.016 67.496 145.832 67.6495 145.615 67.7409C145.399 67.8322 145.16 67.8571 144.93 67.8125C144.699 67.7679 144.487 67.6558 144.32 67.4904C144.153 67.325 144.039 67.1137 143.992 66.8834C143.946 66.6531 143.969 66.4141 144.058 66.1968C144.147 65.9796 144.299 65.7937 144.495 65.663C144.69 65.5322 144.92 65.4624 145.155 65.4624C145.467 65.4624 145.767 65.5859 145.989 65.8061C146.212 66.0263 146.338 66.3253 146.34 66.638Z" fill="white"/>
<path d="M182.518 163.897C182.518 163.897 128.071 164.705 114.557 163.754C114.557 163.754 125.577 101.293 140.114 85.5091C140.655 84.9162 141.228 84.3531 141.831 83.8224C142.72 83.0761 142.598 77.1163 143.017 76.6665C143.436 76.2166 161.101 78.5372 161.326 78.9666C161.551 79.3959 162.461 85.0185 162.461 85.0185C166.468 90.1298 179.359 107.795 180.862 115.084C182.364 122.372 177.631 130.418 177.631 130.418L182.518 163.897Z" fill="#6777EF"/>
<path d="M135.953 96.6523C132.732 112.17 134.644 145.722 142.086 151.855C154.354 161.894 183.836 164.828 192.065 165.799C195.613 166.218 202.677 143.002 200.244 140.007C197.811 137.012 161.571 132.35 159.843 130.807C158.647 129.702 153.014 109.431 148.159 98.0017C141.626 82.5346 137.128 90.9275 135.953 96.6523Z" fill="#EB9481"/>
<path d="M194.11 138.136C194.11 138.136 204.987 138.024 212.102 138.29C216.078 138.433 222.856 139.312 225.729 140.743C230.012 142.9 246.573 154.656 243.803 158.735C241.298 162.426 236.371 157.57 236.371 157.57C236.371 157.57 242.259 162.364 238.65 165.268C235.042 168.171 229.204 161.24 229.204 161.24C229.204 161.24 235.808 165.901 231.658 168.621C228.06 170.992 220.505 163.714 220.505 163.714C220.505 163.714 227.978 167.803 224.522 170.635C220.709 173.701 208.013 164.215 208.013 164.215C198.914 166.259 193.179 166.259 186.494 165.165C185.267 164.961 194.11 138.136 194.11 138.136Z" fill="#EB9481"/>
<path d="M231.025 162.855L229.543 161.291C228.625 160.254 227.649 159.271 226.619 158.347C225.597 157.468 224.575 156.629 223.45 155.832C222.326 155.035 221.058 154.237 219.933 153.368C219.841 153.297 219.739 153.43 219.841 153.491C220.958 154.352 222.029 155.27 223.051 156.241C224.074 157.161 225.096 158.101 226.118 159.032C227.14 159.962 228.163 160.79 229.185 161.679C229.686 162.119 230.207 162.579 230.667 163.039C231.103 163.511 231.579 163.946 232.088 164.337C232.139 164.337 232.201 164.337 232.17 164.256C231.84 163.749 231.456 163.28 231.025 162.855Z" fill="#263238"/>
<path d="M237.578 158.592C235.938 156.61 234.162 154.745 232.262 153.01C230.339 151.287 228.246 149.763 226.016 148.461C225.934 148.461 225.853 148.522 225.914 148.584C227.836 150.311 229.788 152.008 231.741 153.695C232.692 154.523 236.903 158.428 237.394 158.806C237.507 158.868 237.65 158.704 237.578 158.592Z" fill="#263238"/>
<path d="M224.963 167.025C223.372 165.196 221.665 163.472 219.852 161.863C217.857 160.394 215.755 159.075 213.565 157.917C213.483 157.917 213.401 157.999 213.473 158.05C215.456 159.522 217.46 160.943 219.371 162.507C220.312 163.274 223.849 166.525 224.81 167.169C224.912 167.23 225.024 167.107 224.963 167.025Z" fill="#263238"/>
<path d="M183.909 166.76L196.882 136.511C196.882 136.511 161.348 130.633 160.254 129.917C159.16 129.201 152.679 105.607 148.518 96.3455C144.357 87.0837 137.212 81.6451 134.451 101.528C131.691 121.412 135.688 145.691 139.686 150.741C144.531 156.854 163.719 164.593 183.909 166.76Z" fill="#6777EF"/>
<path d="M165.65 162.937C160.335 161.495 155.152 158.98 150.071 156.803C145.706 154.973 141.249 152.714 138.826 148.431C137.696 146.25 136.907 143.909 136.485 141.489C135.923 138.791 135.463 136.061 135.074 133.311C134.604 130.176 134.181 127.034 133.806 123.886C133.622 122.271 133.438 120.655 133.275 119.04C133.111 117.425 132.815 115.81 132.754 114.184C132.754 114.163 132.745 114.142 132.73 114.126C132.714 114.111 132.693 114.103 132.672 114.103C132.65 114.103 132.629 114.111 132.614 114.126C132.599 114.142 132.59 114.163 132.59 114.184C132.702 115.677 132.59 117.18 132.713 118.682C132.713 119.705 132.835 120.645 132.907 121.626L132.621 121.003C132.306 120.287 132.066 119.54 131.905 118.774C131.905 118.682 131.731 118.723 131.752 118.774C131.936 119.541 132.12 120.318 132.334 121.074C132.437 121.442 132.559 121.811 132.702 122.179C132.788 122.426 132.887 122.668 132.999 122.904C133.244 125.842 133.561 128.765 133.95 131.675C134.328 134.497 134.767 137.298 135.268 140.099C135.639 142.576 136.298 145.002 137.231 147.327C138.159 149.518 139.579 151.466 141.382 153.021C143.249 154.554 145.311 155.833 147.515 156.823C152.498 159.125 157.648 161.046 162.921 162.569C169.228 164.552 171.15 164.419 165.65 162.937Z" fill="#263238"/>
<path d="M178.991 133.362C177.682 133.188 162.215 129.937 161.612 129.763C161.31 129.671 161.037 129.502 160.82 129.273C160.604 129.043 160.45 128.762 160.375 128.455C159.895 127.208 159.476 125.93 159.026 124.672C158.249 122.505 157.458 120.348 156.654 118.201C156.654 117.721 156.562 117.179 156.511 116.76C156.46 116.341 156.358 115.615 156.266 115.043C156.061 113.806 155.693 112.589 155.54 111.352C155.54 111.23 155.346 111.27 155.376 111.352C155.688 112.57 155.873 113.817 155.928 115.073C155.979 115.564 156.01 116.096 156.041 116.556C155.57 115.298 155.09 114.041 154.589 112.794C154.006 111.342 153.342 109.88 152.872 108.388C152.872 108.285 152.688 108.337 152.718 108.388C153.25 109.727 153.628 111.148 154.047 112.477C154.466 113.806 154.916 115.237 155.366 116.617C156.245 119.326 157.175 122.015 158.116 124.713C158.566 126.012 159.005 127.33 159.486 128.618C159.618 129.101 159.877 129.539 160.237 129.886C160.597 130.233 161.044 130.477 161.53 130.591C164.219 131.317 177.365 133.495 178.96 133.556C179.124 133.658 179.165 133.382 178.991 133.362Z" fill="#263238"/>
<path d="M190.308 136.981C188.263 141.326 186.219 145.64 184.368 150.076C182.497 154.441 180.855 158.901 179.451 163.437C179.443 163.458 179.443 163.48 179.452 163.501C179.461 163.521 179.477 163.537 179.497 163.545C179.518 163.553 179.54 163.553 179.56 163.544C179.581 163.535 179.596 163.519 179.605 163.499C181.649 159.236 183.438 154.809 185.248 150.424C187.057 146.038 188.703 141.53 190.533 137.134C190.625 136.95 190.39 136.807 190.308 136.981Z" fill="#263238"/>
<path d="M228.52 133.526C226.956 134.405 218.001 131.931 214.372 134.65C211.97 136.449 209.618 140.784 209.107 146.437C208.586 152.274 213.196 151.978 214.904 149.504C216.984 146.247 218.799 142.829 220.332 139.281C221.974 139.608 223.592 140.042 225.177 140.579L228.52 133.526Z" fill="#AD6359"/>
<path d="M217.542 153.9C214.772 150.996 200.93 161.638 205.275 166.474C209.619 171.309 220.67 157.191 217.542 153.9Z" fill="#AD6359"/>
<path d="M222.161 158.06C219.391 155.157 205.549 165.799 209.894 170.634C214.239 175.47 225.289 161.352 222.161 158.06Z" fill="#AD6359"/>
<path d="M225.801 159.532C222.887 157.273 211.785 168.876 216.437 172.658C221.088 176.441 229.103 162.088 225.801 159.532Z" fill="#AD6359"/>
<path d="M229.757 160.166C226.414 158.888 219.37 172.791 224.758 174.989C230.145 177.187 233.549 161.567 229.757 160.166Z" fill="#AD6359"/>
<path d="M217.133 158.684C216.364 159.199 215.639 159.777 214.965 160.411C214.219 161.066 213.483 161.73 212.808 162.456C212.15 163.142 211.533 163.866 210.958 164.623C210.355 165.441 209.854 166.33 209.241 167.128C209.23 167.135 209.22 167.145 209.214 167.156C209.207 167.168 209.204 167.18 209.203 167.194C209.203 167.207 209.205 167.22 209.211 167.232C209.217 167.244 209.225 167.254 209.236 167.262C209.246 167.27 209.259 167.275 209.272 167.277C209.285 167.279 209.298 167.278 209.311 167.274C209.323 167.27 209.334 167.263 209.344 167.253C209.353 167.244 209.36 167.232 209.363 167.22C209.969 166.449 210.629 165.721 211.336 165.042C212.001 164.347 212.624 163.621 213.289 162.916C213.953 162.211 214.546 161.526 215.201 160.871C215.855 160.217 216.591 159.543 217.245 158.827C217.276 158.735 217.204 158.643 217.133 158.684Z" fill="#263238"/>
<path d="M222.632 159.982C222.04 160.892 219.964 164.419 219.33 165.308C218.697 166.198 218.032 167.087 217.357 167.956C216.683 168.825 216.029 169.776 215.262 170.594C215.2 170.665 215.313 170.778 215.384 170.706C216.151 169.888 216.989 169.142 217.715 168.283C218.441 167.425 219.106 166.556 219.76 165.646C220.895 163.843 221.919 161.972 222.827 160.044C222.827 159.952 222.684 159.901 222.632 159.982Z" fill="#263238"/>
<path d="M226.475 161.965C225.862 163.315 225.33 164.715 224.707 166.054C224.4 166.719 224.083 167.383 223.776 168.099L223.347 169.07C223.212 169.457 223.041 169.83 222.836 170.184C222.775 170.266 222.938 170.358 222.979 170.246C223.184 169.841 223.424 169.455 223.695 169.091C223.868 168.784 224.052 168.477 224.216 168.17C224.564 167.489 224.88 166.824 225.167 166.177C225.764 164.853 226.263 163.486 226.659 162.088C226.675 162.064 226.681 162.034 226.676 162.005C226.67 161.976 226.653 161.951 226.629 161.935C226.604 161.918 226.574 161.912 226.545 161.918C226.517 161.924 226.491 161.941 226.475 161.965Z" fill="#263238"/>
<path d="M235.502 45.7738C235.013 50.4436 233.236 54.8857 230.37 58.6046C227.504 62.3236 223.661 65.1732 219.27 66.8355C214.878 68.4978 210.112 68.9076 205.501 68.019C200.891 67.1304 196.618 64.9784 193.159 61.8031L180.473 63.6636L186.821 52.7048C185.171 48.6508 184.6 44.2386 185.162 39.898C185.724 35.5574 187.401 31.4365 190.029 27.9365C192.657 24.4365 196.147 21.6769 200.158 19.9263C204.17 18.1757 208.566 17.494 212.92 17.9474C219.603 18.6459 225.736 21.9692 229.97 27.1869C234.204 32.4046 236.194 39.0899 235.502 45.7738Z" fill="white"/>
<path d="M235.502 45.7737C235.01 50.4419 233.241 54.8842 230.391 58.6135C229.686 59.5449 228.921 60.4293 228.101 61.2612C227.256 62.0691 226.361 62.8236 225.423 63.5205C223.552 64.9431 221.486 66.0896 219.289 66.9246C217.104 67.7858 214.809 68.333 212.47 68.5501C211.301 68.6606 210.126 68.6845 208.954 68.6216C207.777 68.5917 206.605 68.4687 205.447 68.2536C200.778 67.413 196.435 65.2892 192.904 62.1199L193.211 62.212L180.555 64.0725L179.635 64.2156L180.095 63.408L186.402 52.4288V52.8581C184.923 49.2359 184.293 45.3234 184.558 41.42C184.824 37.5165 185.979 33.7256 187.936 30.3374C189.908 26.9568 192.62 24.0665 195.869 21.8831C199.906 19.1802 204.63 17.684 209.487 17.57C214.344 17.456 219.133 18.7289 223.293 21.2395C227.452 23.75 230.81 27.3943 232.973 31.745C235.135 36.0958 236.013 40.9728 235.502 45.8044V45.7737ZM235.502 45.7737C235.906 41.9576 235.429 38.0996 234.108 34.4968C232.786 30.8941 230.655 27.6427 227.879 24.9931C225.103 22.3435 221.756 20.3664 218.096 19.214C214.435 18.0616 210.559 17.7646 206.766 18.346C203.012 18.8975 199.432 20.2958 196.298 22.4352C193.203 24.6094 190.618 27.4315 188.723 30.7054C186.85 33.9896 185.749 37.6566 185.503 41.4291C185.27 45.1923 185.878 48.96 187.281 52.4594L187.373 52.6843L187.251 52.899L180.872 63.8374L180.422 63.1627L193.108 61.3839H193.282L193.415 61.4964C196.799 64.6649 200.996 66.8309 205.539 67.7527C206.675 67.979 207.827 68.1192 208.984 68.1718C210.138 68.2535 211.296 68.2535 212.45 68.1718C214.764 67.993 217.042 67.4906 219.217 66.6793C221.415 65.8939 223.482 64.7844 225.351 63.3876C227.253 62.0413 228.932 60.4064 230.329 58.542C233.19 54.8396 234.979 50.4231 235.502 45.7737Z" fill="#263238"/>
<path d="M207.327 57.5912L196.512 46.6323L200.141 43.0442L206.469 49.4436L219.605 28.8447L223.909 31.5947L207.327 57.5912Z" fill="#6777EF"/>
</svg>
