<svg width="420" height="449" viewBox="0 0 420 449" fill="none" xmlns="http://www.w3.org/2000/svg">
<path d="M297.377 327.602H404.752C404.752 327.602 399.41 320.767 393.529 319.911C393.529 319.911 382.12 286.391 362.91 286.157C345.1 285.932 337.954 306.762 337.954 306.762C337.954 306.762 329.656 297.418 321.814 301.662C313.973 305.905 309.461 318.166 309.461 318.166C309.461 318.166 300.592 322.899 297.377 327.602Z" fill="#EBEBEB"/>
<path d="M135.785 197.329H0C0 197.329 0 188.801 18.6704 187.128C18.6704 187.128 35.7434 149.835 61.8196 154.853C78.0628 157.914 86.3608 179.896 86.3608 179.896C86.3608 179.896 98.6313 162.636 108.444 165.982C118.256 169.328 124.085 187.689 124.085 187.689C124.085 187.689 134.25 192.514 135.785 197.329Z" fill="#EBEBEB"/>
<path d="M398.871 168.523H306.557C306.557 168.523 315.269 160.546 319.138 160.546C323.007 160.546 334.313 133.769 348.752 134.912C363.19 136.054 370.855 155.986 370.855 155.986C370.855 155.986 388.405 150.58 398.871 168.523Z" fill="#EBEBEB"/>
<path d="M193.694 277.812H114.729C114.729 277.812 118.66 272.784 123.026 272.151C123.026 272.151 131.449 247.506 145.535 247.333C158.635 247.17 163.894 262.491 163.894 262.491C163.894 262.491 169.962 255.616 175.76 258.758C181.558 261.899 184.846 270.896 184.846 270.896C184.846 270.896 191.318 274.354 193.694 277.812Z" fill="#EBEBEB"/>
<path d="M125.061 100.984H232.457C232.457 100.984 227.125 94.1498 221.234 93.2929C221.234 93.2929 209.824 59.7735 190.625 59.5389C172.805 59.3145 165.658 80.1442 165.658 80.1442C165.658 80.1442 157.36 70.8004 149.519 75.0439C141.677 79.2874 137.176 91.5486 137.176 91.5486C137.176 91.5486 128.276 96.2817 125.061 100.984Z" fill="#EBEBEB"/>
<path d="M318.65 47.3076C318.65 62.731 307.023 79.0827 297.387 92.1905C293.518 97.4643 290.043 102.34 287.512 105.951C284.826 109.766 283.166 112.184 283.166 112.184H265.025C265.025 112.184 263.365 109.766 260.679 105.951C258.148 102.34 254.673 97.4643 250.804 92.1905C241.168 79.0623 229.541 62.7106 229.541 47.3076C229.541 22.112 248.606 5.68891 269.765 3.69978H269.983C271.342 3.58757 272.721 3.52637 274.132 3.52637C275.543 3.52637 276.891 3.58757 278.281 3.69978H278.499C299.586 5.68891 318.65 22.112 318.65 47.3076Z" fill="#EBEBEB"/>
<path d="M277.213 105.972C276.871 108.012 276.508 110.052 276.176 112.205H272.12C271.736 110.083 271.373 108.012 271.031 105.972C256.188 18.0423 274.143 3.49609 274.143 3.49609C274.143 3.49609 292.056 18.0423 277.213 105.972Z" fill="white"/>
<path d="M267.401 105.972C269.071 109.889 270.191 112.204 270.191 112.204H267.816C267.816 112.204 266.291 109.879 263.843 105.972C262.08 103.126 259.829 99.4433 257.329 95.1794C249.166 81.2045 238.659 63.8838 240.64 44.5535C243.337 17.787 266.353 5.3932 269.766 3.75089L270.191 3.54688L269.984 3.72029C268.034 5.4748 252.683 20.1434 252.683 47.2159C252.683 68.7597 262.453 94.394 267.401 105.972Z" fill="white"/>
<path d="M290.864 95.1797C288.364 99.4435 286.113 103.126 284.35 105.972C281.902 109.879 280.377 112.205 280.377 112.205H278.002C278.002 112.205 279.122 109.889 280.792 105.972C285.74 94.3942 295.511 68.7599 295.511 47.1651C295.511 20.0926 280.159 5.42402 278.209 3.6695L278.002 3.49609L278.427 3.70011C281.84 5.39342 304.856 17.7872 307.553 44.5538C309.503 63.884 299.027 81.2048 290.864 95.1797Z" fill="white"/>
<path d="M287.513 105.972C284.827 109.787 283.167 112.204 283.167 112.204H265.026C265.026 112.204 263.366 109.787 260.68 105.972H287.513Z" fill="#DBDBDB"/>
<path d="M247.01 70.1794L246.018 70.4756L264.341 129.863L265.334 129.566L247.01 70.1794Z" fill="#DBDBDB"/>
<path d="M265.357 70.3063L264.322 70.375L268.397 129.761L269.431 129.692L265.357 70.3063Z" fill="#DBDBDB"/>
<path d="M301.174 70.1869L282.871 129.58L283.864 129.876L302.167 70.4827L301.174 70.1869Z" fill="#DBDBDB"/>
<path d="M282.822 70.3055L278.748 129.691L279.783 129.76L283.857 70.3742L282.822 70.3055Z" fill="#DBDBDB"/>
<path d="M313.194 69.9023H234.986V71.9425H313.194V69.9023Z" fill="#DBDBDB"/>
<path d="M284.257 129.964L283.821 135.115L282.846 146.713H265.348L264.373 135.115L263.938 129.964H284.257Z" fill="#EBEBEB"/>
<path d="M284.257 129.964L283.821 135.115H264.373L263.938 129.964H284.257Z" fill="#DBDBDB"/>
<path d="M285.273 128.505H262.92V131.422H285.273V128.505Z" fill="#EBEBEB"/>
<path d="M9.43945 378.422L57.6712 378.177L105.913 378.085L202.377 377.912L298.84 378.085L347.082 378.177L395.314 378.422L347.082 378.666L298.84 378.758L202.377 378.932L105.913 378.758L57.6712 378.666L9.43945 378.422Z" fill="#263238"/>
<path d="M202.376 449C302.07 449 382.888 440.099 382.888 429.119C382.888 418.139 302.07 409.238 202.376 409.238C102.683 409.238 21.8652 418.139 21.8652 429.119C21.8652 440.099 102.683 449 202.376 449Z" fill="#EBEBEB"/>
<path d="M84.588 28.7632C84.2457 28.5184 67.4424 25.3664 56.4269 38.9639C46.293 51.4597 46.4486 70.2085 48.2223 70.2289C50.3901 70.2289 53.8234 60.4261 63.3556 53.153C66.737 50.5722 73.2094 50.715 73.2094 50.715L84.588 28.7632Z" fill="#6777EF"/>
<path d="M116.711 51.3984C117.054 51.6331 125.486 66.271 115.944 80.8988C107.169 94.3534 89.0585 100.28 88.4776 98.5867C87.7723 96.5466 96.1117 90.2222 100.053 79.0014C101.454 75.0232 99.2338 69.0456 99.2338 69.0456L116.711 51.3984Z" fill="#6777EF"/>
<path d="M87.7931 78.4201L67.9922 64.4656C67.9922 64.4656 68.8738 43.8399 82.1609 27.8656C88.8291 20.129 96.7963 13.5736 105.717 8.48435C117.023 1.88452 127.302 -1.19608 129.573 0.425824C131.845 2.04773 132.208 12.6666 129.501 25.2644C127.471 35.1948 123.735 44.7123 118.454 53.4081C107.366 70.9634 87.7931 78.4201 87.7931 78.4201Z" fill="#EBEBEB"/>
<path d="M86.2863 77.3419L69.5156 65.5254L65.8669 70.5338L82.6376 82.3503L86.2863 77.3419Z" fill="#6777EF"/>
<path d="M112.386 44.401C111.001 46.304 109.072 47.7601 106.845 48.585C104.617 49.41 102.191 49.5667 99.8733 49.0354C97.5553 48.5042 95.4497 47.3087 93.8226 45.6004C92.1956 43.892 91.1203 41.7475 90.7328 39.4381C90.3453 37.1286 90.663 34.758 91.6456 32.6262C92.6283 30.4943 94.2318 28.6969 96.2533 27.4614C98.2748 26.2259 100.623 25.6078 103.002 25.6852C105.381 25.7626 107.683 26.5321 109.617 27.8963C110.901 28.8007 111.992 29.9452 112.826 31.2643C113.661 32.5835 114.223 34.0514 114.48 35.5842C114.737 37.117 114.685 38.6847 114.325 40.1975C113.966 41.7104 113.307 43.1388 112.386 44.401Z" fill="#6777EF"/>
<path d="M102.615 45.7171C107.221 45.7171 110.954 42.0453 110.954 37.5158C110.954 32.9863 107.221 29.3145 102.615 29.3145C98.0091 29.3145 94.2754 32.9863 94.2754 37.5158C94.2754 42.0453 98.0091 45.7171 102.615 45.7171Z" fill="#A6A6A6"/>
<path d="M129.532 25.3152L105.676 8.53513C116.982 1.9353 127.261 -1.1453 129.532 0.476606C131.804 2.09851 132.24 12.6664 129.532 25.3152Z" fill="#6777EF"/>
<path d="M110.705 8.91245C110.637 9.00511 110.551 9.08366 110.452 9.14359C110.353 9.20352 110.244 9.24364 110.129 9.26165C110.014 9.27966 109.897 9.2752 109.784 9.24854C109.671 9.22187 109.565 9.17352 109.471 9.10627C109.281 8.971 109.153 8.76711 109.117 8.53947C109.08 8.31182 109.136 8.07906 109.274 7.89238C109.411 7.70571 109.618 7.58043 109.85 7.54408C110.081 7.50773 110.318 7.5633 110.508 7.69857C110.603 7.76447 110.684 7.84852 110.746 7.94573C110.808 8.04295 110.849 8.15136 110.867 8.26455C110.886 8.37773 110.881 8.49339 110.853 8.60468C110.825 8.71597 110.775 8.82062 110.705 8.91245Z" fill="#EBEBEB"/>
<path d="M115.248 12.1361C115.18 12.2287 115.094 12.3073 114.995 12.3672C114.896 12.4271 114.786 12.4673 114.672 12.4853C114.557 12.5033 114.44 12.4988 114.327 12.4722C114.214 12.4455 114.108 12.3972 114.014 12.3299C113.92 12.2629 113.84 12.1784 113.779 12.0811C113.718 11.9839 113.678 11.8758 113.659 11.7631C113.641 11.6504 113.646 11.5352 113.673 11.4242C113.7 11.3132 113.748 11.2084 113.817 11.116C113.885 11.0236 113.971 10.9453 114.07 10.8855C114.168 10.8257 114.278 10.7857 114.393 10.7677C114.508 10.7497 114.625 10.7541 114.738 10.7806C114.85 10.8071 114.957 10.8552 115.051 10.9222C115.146 10.9881 115.227 11.0722 115.289 11.1694C115.351 11.2666 115.392 11.375 115.41 11.4882C115.429 11.6014 115.424 11.717 115.396 11.8283C115.368 11.9396 115.318 12.0443 115.248 12.1361Z" fill="#EBEBEB"/>
<path d="M119.853 15.3695C119.786 15.4621 119.7 15.5407 119.601 15.6006C119.502 15.6605 119.392 15.7007 119.277 15.7187C119.163 15.7367 119.045 15.7322 118.932 15.7056C118.819 15.6789 118.713 15.6305 118.619 15.5633C118.525 15.4963 118.445 15.4118 118.385 15.3145C118.324 15.2173 118.283 15.1092 118.265 14.9965C118.247 14.8838 118.251 14.7686 118.278 14.6576C118.305 14.5466 118.354 14.4418 118.422 14.3494C118.49 14.257 118.576 14.1787 118.675 14.1189C118.774 14.0591 118.884 14.0191 118.998 14.0011C119.113 13.9831 119.23 13.9875 119.343 14.014C119.456 14.0405 119.562 14.0886 119.656 14.1556C119.751 14.2224 119.83 14.3068 119.891 14.4041C119.952 14.5013 119.993 14.6095 120.011 14.7223C120.03 14.8351 120.025 14.9503 119.998 15.0614C119.971 15.1724 119.922 15.2772 119.853 15.3695Z" fill="#EBEBEB"/>
<path d="M124.428 18.5833C124.36 18.676 124.274 18.7546 124.175 18.8145C124.076 18.8744 123.966 18.9145 123.851 18.9325C123.737 18.9506 123.62 18.9461 123.507 18.9194C123.394 18.8928 123.287 18.8444 123.193 18.7772C123.099 18.7102 123.02 18.6257 122.959 18.5284C122.898 18.4311 122.857 18.3231 122.839 18.2104C122.821 18.0976 122.825 17.9825 122.852 17.8715C122.879 17.7604 122.928 17.6557 122.996 17.5633C123.064 17.4709 123.15 17.3925 123.249 17.3328C123.348 17.273 123.458 17.233 123.573 17.215C123.687 17.197 123.804 17.2014 123.917 17.2279C124.03 17.2544 124.137 17.3025 124.231 17.3695C124.325 17.4363 124.405 17.5207 124.466 17.618C124.527 17.7152 124.567 17.8233 124.586 17.9361C124.604 18.0489 124.599 18.1642 124.572 18.2752C124.545 18.3863 124.496 18.491 124.428 18.5833Z" fill="#EBEBEB"/>
<path d="M129.002 21.8067C128.865 21.9932 128.659 22.1192 128.428 22.1573C128.197 22.1955 127.96 22.1428 127.768 22.0107C127.578 21.8738 127.449 21.669 127.411 21.4403C127.372 21.2115 127.426 20.9769 127.561 20.7866C127.7 20.5988 127.909 20.4729 128.142 20.4366C128.376 20.4002 128.614 20.4564 128.805 20.5928C128.9 20.6596 128.979 20.7441 129.04 20.8413C129.101 20.9385 129.142 21.0467 129.16 21.1595C129.179 21.2723 129.174 21.3875 129.147 21.4986C129.12 21.6097 129.071 21.7144 129.002 21.8067Z" fill="#EBEBEB"/>
<path d="M117.498 201.215C117.498 200.522 117.426 199.828 117.426 199.175H118.204C118.204 199.828 118.204 200.501 118.276 201.215H117.498Z" fill="#263238"/>
<path d="M192.284 256.228H191.049V255.463C192.429 255.463 193.808 255.463 195.198 255.463V256.228C194.254 256.207 193.269 256.228 192.284 256.228ZM185.811 255.973C184.421 255.86 183.011 255.707 181.662 255.524L181.766 254.769C183.135 254.953 184.525 255.095 185.915 255.208L185.811 255.973ZM200.488 255.809L200.405 255.055C201.774 254.912 203.164 254.738 204.554 254.534L204.668 255.289C203.268 255.493 201.868 255.677 200.488 255.809ZM176.445 254.667C175.097 254.402 173.717 254.086 172.358 253.749L172.545 253.004C173.893 253.341 175.262 253.657 176.601 253.922L176.445 254.667ZM209.792 254.341L209.626 253.586C210.964 253.3 212.323 252.974 213.672 252.566L213.869 253.31C212.52 253.708 211.151 254.065 209.803 254.341H209.792ZM167.265 252.3C165.938 251.882 164.61 251.413 163.303 250.923L163.583 250.209C164.869 250.699 166.187 251.158 167.504 251.576L167.265 252.3ZM218.837 251.841L218.588 251.117C219.895 250.689 221.212 250.22 222.498 249.72L222.789 250.434C221.544 250.934 220.217 251.403 218.899 251.841H218.837ZM158.532 248.965C157.266 248.404 156.001 247.792 154.756 247.159L155.119 246.476C156.343 247.108 157.609 247.71 158.853 248.271L158.532 248.965ZM227.674 248.455L227.353 247.761C228.597 247.19 229.842 246.578 231.045 245.925L231.419 246.598C230.195 247.21 228.94 247.833 227.674 248.414V248.455ZM150.172 244.64C148.979 243.926 147.786 243.181 146.635 242.426L147.06 241.784C148.201 242.538 149.383 243.283 150.576 243.987L150.172 244.64ZM235.92 243.956L235.495 243.314C236.626 242.579 237.777 241.794 238.897 240.978L239.364 241.59C238.223 242.375 237.072 243.171 235.92 243.915V243.956ZM142.361 239.417C141.262 238.581 140.162 237.703 139.094 236.816L139.602 236.234C140.639 237.122 141.739 237.979 142.838 238.805L142.361 239.417ZM243.44 238.397L242.932 237.816C243.969 236.948 245.007 236.02 246.044 235.072L246.583 235.622C245.525 236.51 244.478 237.448 243.44 238.326V238.397ZM135.204 233.378C134.167 232.419 133.213 231.42 132.279 230.42L132.85 229.9C133.773 230.92 134.758 231.879 135.754 232.827L135.204 233.378ZM250.214 231.94L249.643 231.42C250.556 230.4 251.479 229.38 252.392 228.359L252.983 228.859C252.06 229.849 251.126 230.889 250.214 231.869V231.94ZM128.856 226.503C127.985 225.412 127.134 224.3 126.346 223.188L126.979 222.749C127.757 223.851 128.597 224.952 129.468 226.024L128.856 226.503ZM256.313 224.759L255.701 224.289C256.52 223.269 257.35 222.127 258.169 220.995L258.802 221.433C257.931 222.576 257.09 223.698 256.313 224.759ZM123.546 218.761C122.83 217.547 122.166 216.313 121.575 215.109L122.27 214.772C122.851 215.966 123.504 217.18 124.22 218.383L123.546 218.761ZM261.748 217.19L261.094 216.761C261.851 215.629 262.609 214.476 263.345 213.314L264.009 213.711C263.221 214.884 262.463 216.047 261.706 217.19H261.748ZM119.552 210.325C119.084 209.02 118.686 207.692 118.359 206.346L119.117 206.163C119.436 207.484 119.824 208.788 120.278 210.07L119.552 210.325ZM266.706 209.305L266.042 208.917C266.737 207.744 267.432 206.561 268.116 205.357L268.791 205.734C268.064 206.938 267.37 208.162 266.685 209.305H266.706ZM271.321 201.226L270.637 200.859C271.29 199.665 271.944 198.451 272.597 197.237L273.282 197.594L271.321 201.226ZM275.688 193.065L274.993 192.718L276.891 189.056L277.586 189.393C276.929 190.603 276.283 191.814 275.647 193.024L275.688 193.065ZM279.931 184.803L279.236 184.456L281.103 180.784L281.798 181.12L279.931 184.803ZM284.142 176.53L283.447 176.183L285.324 172.511L286.019 172.858L284.142 176.53ZM288.394 168.278L287.71 167.931C288.343 166.717 288.986 165.503 289.639 164.279L290.334 164.636C289.639 165.809 288.996 167.023 288.353 168.237L288.394 168.278ZM292.792 160.117L292.108 159.75C292.772 158.556 293.435 157.353 294.12 156.159L294.794 156.537C294.079 157.679 293.404 158.873 292.751 160.066L292.792 160.117ZM297.367 152.079L296.692 151.702C297.398 150.518 298.103 149.335 298.819 148.162L299.483 148.56C298.736 149.695 298.017 150.862 297.325 152.059L297.367 152.079ZM302.221 144.204L301.557 143.796C302.304 142.643 303.061 141.491 303.829 140.348L304.472 140.777C303.673 141.858 302.916 143.011 302.179 144.153L302.221 144.204ZM307.407 136.533L306.774 136.095C307.573 134.972 308.382 133.85 309.212 132.749L309.834 133.198C308.991 134.265 308.168 135.36 307.366 136.482L307.407 136.533ZM312.987 129.117L312.324 128.597C313.185 127.516 314.066 126.455 314.958 125.394L315.56 125.884C314.678 126.934 313.807 127.995 312.946 129.066L312.987 129.117ZM319.003 122.048L318.423 121.538C319.349 120.518 320.293 119.498 321.254 118.478L321.814 118.998C320.819 119.977 319.885 120.977 318.962 121.997L319.003 122.048ZM325.465 115.377L324.926 114.836C325.963 113.877 326.938 112.929 327.965 112.001L328.494 112.562C327.426 113.439 326.409 114.377 325.424 115.336L325.465 115.377ZM332.394 109.185L331.896 108.604C332.934 107.716 334.054 106.849 335.143 106.003L335.62 106.604C334.5 107.39 333.411 108.257 332.353 109.134L332.394 109.185ZM339.779 103.524L339.323 102.902C340.454 102.106 341.615 101.31 342.767 100.555L343.202 101.188C342.009 101.892 340.858 102.677 339.738 103.473L339.779 103.524ZM347.59 98.4234L347.175 97.7706C348.368 97.0668 349.592 96.3629 350.795 95.7305L351.179 96.4037C349.934 96.975 348.731 97.6788 347.59 98.3826V98.4234Z" fill="#263238"/>
<path d="M355.888 93.8022L355.535 93.1188C356.147 92.8128 356.769 92.5068 357.402 92.2109L357.744 92.8944L355.888 93.8022Z" fill="#263238"/>
<path d="M353.056 80.0619L345.723 99.8818L361.126 88.0491L420 67.0459L353.056 80.0619Z" fill="#6777EF"/>
<path opacity="0.2" d="M353.056 80.0619L345.723 99.8818L361.126 88.0491L420 67.0459L353.056 80.0619Z" fill="#222221"/>
<path d="M363.096 92.6697L345.723 99.8816L361.126 88.0488L363.096 92.6697Z" fill="#263238"/>
<path d="M361.125 88.0491L419.999 67.0459L371.705 113.398L361.125 88.0491Z" fill="#6777EF"/>
<path d="M353.056 80.062L328.588 64.5264L420 67.0459L353.056 80.062Z" fill="#6777EF"/>
<path d="M219.936 182.793C219.936 182.793 213.599 238.407 209.253 274.507C208.464 281.025 207.749 286.911 207.178 291.705C206.359 298.193 205.747 302.712 205.467 304.181C205.218 305.436 205.301 310.434 205.353 317.442C205.353 321.389 205.353 325.98 205.353 330.907C205.125 349.931 205.176 375.147 205.228 390.958C205.228 399.965 204.917 405.922 204.917 405.922H161.104C161.104 405.922 160.98 400.128 160.876 390.958C160.596 366.089 160.43 316.422 163.075 290.155C166.747 253.688 178.519 182.793 178.519 182.793H219.936Z" fill="#EB9481"/>
<path d="M130.215 440.442C132.59 441.217 200.384 441.023 202.967 439.422C203.942 438.82 204.492 429.099 204.813 417.347C204.882 414.804 204.938 412.196 204.979 409.523C205.031 406.371 205.072 403.179 205.093 400.078C205.176 386.154 204.979 373.893 204.979 373.893H160.886V400.078V409.523L161.114 417.347C161.114 417.347 135.183 428.844 132.559 430.914C129.935 432.985 127.85 439.717 130.215 440.442Z" fill="#EB9481"/>
<path d="M130.215 440.441C132.59 441.216 200.384 441.023 202.967 439.421C203.942 438.819 204.492 429.098 204.813 417.347C204.882 414.803 204.938 412.196 204.979 409.523C205.031 406.371 205.072 403.178 205.093 400.077H160.886V409.523L161.114 417.347C161.114 417.347 135.183 428.843 132.559 430.914C129.935 432.984 127.85 439.717 130.215 440.441Z" fill="white"/>
<path d="M130.007 440.543C131.553 441.043 199.108 442.145 203.164 439.523C204.346 438.748 204.927 424.508 205.238 409.462H160.886L161.114 417.327C161.114 417.327 135.048 428.884 132.393 430.965C129.737 433.046 127.632 439.717 130.007 440.543Z" fill="#6777EF"/>
<path d="M130.984 437.861C142.393 437.544 188.519 437.361 199.846 437.912C199.939 437.912 199.939 437.983 199.846 437.983C188.519 438.534 142.404 438.35 130.984 438.044C130.735 438.034 130.735 437.861 130.984 437.861Z" fill="#263238"/>
<path d="M159.456 414.818C163.947 413.971 169.444 414.644 172.94 417.776C173.064 417.898 172.888 418.082 172.743 418.041C168.443 416.693 164.01 415.797 159.518 415.368C159.444 415.377 159.369 415.355 159.311 415.309C159.252 415.264 159.215 415.197 159.207 415.124C159.199 415.051 159.22 414.977 159.267 414.92C159.314 414.863 159.381 414.826 159.456 414.818Z" fill="#263238"/>
<path d="M156.208 416.745C160.71 415.909 166.207 416.572 169.692 419.714C169.827 419.836 169.692 420.02 169.505 419.979C165.191 418.612 160.74 417.706 156.229 417.276C156.174 417.257 156.126 417.222 156.092 417.176C156.057 417.13 156.038 417.075 156.035 417.017C156.033 416.96 156.048 416.904 156.079 416.855C156.11 416.807 156.155 416.768 156.208 416.745Z" fill="#263238"/>
<path d="M152.973 418.683C157.465 417.837 162.972 418.51 166.457 421.642C166.592 421.764 166.406 421.948 166.26 421.907C161.961 420.558 157.528 419.662 153.036 419.234C152.961 419.242 152.887 419.221 152.828 419.175C152.77 419.129 152.733 419.062 152.724 418.989C152.716 418.916 152.738 418.843 152.784 418.786C152.831 418.728 152.899 418.691 152.973 418.683Z" fill="#263238"/>
<path d="M149.726 420.611C154.228 419.775 159.725 420.438 163.211 423.58C163.345 423.702 163.211 423.886 163.024 423.845C158.722 422.491 154.285 421.595 149.789 421.172C149.719 421.169 149.654 421.142 149.603 421.095C149.553 421.049 149.521 420.986 149.513 420.918C149.506 420.85 149.523 420.782 149.562 420.726C149.601 420.67 149.66 420.629 149.726 420.611Z" fill="#263238"/>
<path d="M153.15 410.9C156.334 413.328 160.483 414.307 164.196 415.654C164.282 415.674 164.37 415.675 164.456 415.656C164.542 415.637 164.622 415.599 164.69 415.545C164.758 415.491 164.813 415.422 164.85 415.343C164.886 415.265 164.904 415.179 164.902 415.093C164.92 415.092 164.938 415.088 164.954 415.079C164.97 415.07 164.984 415.058 164.994 415.043C165.004 415.028 165.01 415.011 165.012 414.993C165.014 414.975 165.012 414.957 165.005 414.94C163.627 411.028 161.231 407.539 158.056 404.821C156.168 403.28 152.87 402.209 151.117 404.606C149.364 407.004 151.293 409.493 153.15 410.9ZM151.998 407.35C151.189 402.495 156.49 405.035 157.838 406.228C158.691 407.013 159.488 407.855 160.224 408.748C161.706 410.615 163.091 412.556 164.373 414.562C162.589 413.797 160.753 413.185 158.948 412.522C156.821 411.645 152.444 410.023 151.998 407.35Z" fill="#263238"/>
<path d="M180.003 408.156C178.903 405.402 175.439 405.627 173.23 406.657C169.45 408.501 166.231 411.291 163.894 414.746C163.884 414.761 163.877 414.778 163.874 414.796C163.872 414.813 163.873 414.832 163.88 414.849C163.886 414.866 163.896 414.881 163.909 414.893C163.923 414.906 163.939 414.915 163.957 414.919C163.884 415.256 164.091 415.674 164.496 415.634C168.437 415.246 172.701 415.317 176.404 413.746C178.592 412.839 181.04 410.758 180.003 408.156ZM170.377 413.848C168.448 414.083 166.519 414.226 164.589 414.532C166.354 412.906 168.203 411.37 170.128 409.931C171.07 409.244 172.057 408.621 173.084 408.065C174.682 407.238 180.469 406.096 178.457 410.594C177.347 413.073 172.69 413.563 170.377 413.848Z" fill="#263238"/>
<path d="M219.938 182.793C219.938 182.793 213.6 238.407 209.254 274.507C208.466 281.025 207.75 286.911 207.18 291.705C206.36 298.193 205.748 302.712 205.468 304.181C205.219 305.436 205.302 310.434 205.354 317.442C205.354 321.389 205.354 325.98 205.354 330.907C205.126 349.931 205.178 375.147 205.23 390.958H160.888C160.607 366.089 160.441 316.422 163.086 290.155C166.748 253.688 178.521 182.793 178.521 182.793H219.938Z" fill="#455A64"/>
<path d="M205.311 317.462C205.259 310.434 205.176 305.436 205.425 304.201C207.085 295.602 219.947 182.813 219.947 182.813H184.535L205.311 317.462Z" fill="#263238"/>
<path d="M358.471 303.824C358.471 303.824 356.987 304.416 354.322 305.415C351.998 306.303 348.762 307.455 344.831 308.894L343.296 309.424L343.016 309.526L342.051 309.863C315.083 319.268 262.059 335.507 237.808 327.265C213.558 319.023 179.194 182.344 178.52 182.793H237.3C237.3 182.793 248.233 210.529 238.908 227.982C238.047 229.594 259.787 286.534 272.94 284.973C283.208 283.749 311.847 273.181 329.915 267.714L332.861 266.826L336.149 265.806H336.201L341.802 264.113L345.578 262.97L358.471 303.824Z" fill="#EB9481"/>
<path d="M403.477 322.063C403.529 319.605 383.355 255.952 381.021 254.004C380.15 253.259 370.545 255.616 359.042 258.778C356.552 259.451 353.949 260.063 351.387 260.92C348.172 262.001 317.428 271.855 317.428 271.855L330.072 313.862L354.405 305.701L364.384 302.365L371.914 299.856C371.914 299.856 390.73 320.818 393.509 322.685C396.289 324.552 403.425 324.511 403.477 322.063Z" fill="#EB9481"/>
<path d="M403.477 322.063C403.529 319.605 383.355 255.952 381.021 254.004C380.15 253.259 370.545 255.616 359.042 258.778C356.552 259.451 353.949 260.063 351.387 260.92C348.171 262.001 344.883 262.909 341.803 263.98C345.641 276.415 351.086 294.521 354.405 305.66L364.383 302.325L371.914 299.815C371.914 299.815 390.729 320.778 393.509 322.644C396.289 324.511 403.425 324.511 403.477 322.063Z" fill="white"/>
<path d="M403.601 322.226C403.653 319.757 383.365 255.748 381.021 253.79C379.983 252.882 365.918 256.564 351.221 260.747L364.29 302.416L371.862 299.887C371.862 299.887 390.781 320.982 393.582 322.858C396.382 324.735 403.601 324.695 403.601 322.226Z" fill="#6777EF"/>
<path d="M400.739 322.114C397.067 311.464 383.293 268.173 380.492 257.38C380.492 257.289 380.492 257.268 380.565 257.38C384.434 267.856 397.845 311.25 400.915 322.073C400.978 322.287 400.812 322.338 400.739 322.114Z" fill="#263238"/>
<path d="M369.953 302.141C367.816 298.173 366.841 292.797 368.915 288.635C368.988 288.472 369.226 288.584 369.226 288.737C369.17 293.191 369.608 297.637 370.533 301.998C370.553 302.074 370.541 302.154 370.5 302.221C370.459 302.288 370.393 302.336 370.316 302.355C370.239 302.374 370.157 302.362 370.089 302.322C370.021 302.281 369.972 302.216 369.953 302.141Z" fill="#263238"/>
<path d="M372.785 304.62C370.648 300.641 369.673 295.276 371.747 291.114C371.83 290.951 372.059 291.063 372.059 291.216C372.009 295.67 372.447 300.115 373.365 304.477C373.385 304.553 373.373 304.633 373.332 304.7C373.291 304.767 373.225 304.815 373.148 304.834C373.071 304.853 372.989 304.841 372.921 304.801C372.853 304.76 372.804 304.695 372.785 304.62Z" fill="#263238"/>
<path d="M375.595 307.108C373.458 303.13 372.483 297.765 374.558 293.603C374.641 293.439 374.869 293.552 374.869 293.705C374.824 298.158 375.262 302.603 376.176 306.966C376.195 307.041 376.183 307.121 376.142 307.188C376.101 307.255 376.035 307.304 375.958 307.323C375.881 307.341 375.8 307.33 375.732 307.289C375.663 307.249 375.614 307.184 375.595 307.108Z" fill="#263238"/>
<path d="M378.449 309.567C376.312 305.589 375.337 300.223 377.411 296.061C377.494 295.898 377.723 296.01 377.723 296.163C377.677 300.617 378.115 305.062 379.03 309.424C379.049 309.5 379.037 309.58 378.996 309.647C378.955 309.714 378.889 309.762 378.812 309.781C378.735 309.8 378.653 309.788 378.585 309.748C378.517 309.708 378.468 309.643 378.449 309.567Z" fill="#263238"/>
<path d="M369.238 297.091C369.157 297.018 369.058 296.965 368.952 296.939C368.845 296.912 368.733 296.912 368.626 296.938C368.614 296.925 368.6 296.915 368.584 296.908C368.568 296.901 368.55 296.897 368.533 296.897C368.515 296.897 368.497 296.901 368.481 296.908C368.465 296.915 368.451 296.925 368.439 296.938L368.118 297.173H368.055L367.931 297.265C367.772 297.38 367.616 297.503 367.464 297.632C366.16 298.68 364.971 299.86 363.917 301.151C363.429 301.743 362.963 302.365 362.537 302.998C361.804 304.076 361.175 305.22 360.66 306.415C359.716 308.639 359.623 312.046 362.496 312.994C365.369 313.943 367.184 311.393 368.014 309.23C368.902 306.502 369.323 303.648 369.259 300.784C369.259 299.682 369.31 298.591 369.373 297.52C369.397 297.443 369.397 297.362 369.373 297.285C369.348 297.209 369.302 297.141 369.238 297.091ZM367.972 301.172C367.972 301.865 367.879 302.549 367.827 303.212C367.651 305.487 367.371 310.087 364.902 311.291C360.421 313.484 361.324 307.751 362.091 306.139C362.603 305.102 363.185 304.1 363.834 303.14C364.01 302.865 364.197 302.6 364.384 302.335C365.514 300.753 366.78 299.274 368.014 297.785L368.19 297.561C368.19 297.561 368.19 297.632 368.19 297.663C368.185 297.731 368.185 297.799 368.19 297.867C368.076 298.979 368.004 300.08 367.941 301.182L367.972 301.172Z" fill="#263238"/>
<path d="M369.258 297.132C368.76 295.949 368.283 294.715 367.785 293.491C366.899 290.983 365.599 288.636 363.937 286.544C362.671 285.075 360.565 283.667 358.626 284.239C358.198 284.358 357.799 284.563 357.454 284.84C355.099 286.677 356.334 289.869 357.993 291.644C359.183 292.901 360.524 294.011 361.986 294.949C363.694 296.08 365.541 296.992 367.484 297.663C367.681 297.734 367.868 297.795 368.065 297.846L368.241 297.897H368.314L368.583 297.979C368.602 297.985 368.622 297.987 368.641 297.985C368.661 297.982 368.679 297.975 368.695 297.964C368.712 297.953 368.725 297.939 368.734 297.922C368.744 297.905 368.749 297.886 368.749 297.867C368.837 297.864 368.923 297.84 369 297.798C369.077 297.757 369.143 297.698 369.193 297.626C369.242 297.555 369.274 297.473 369.285 297.387C369.296 297.301 369.287 297.214 369.258 297.132ZM367.93 297.255C365.909 296.121 363.949 294.885 362.059 293.552L361.375 293.032C360.678 292.499 360.013 291.926 359.383 291.318C358.232 290.186 355.815 285.911 359.02 285.524C359.43 285.473 359.844 285.473 360.254 285.524C362.982 285.83 364.839 290.063 365.793 292.144C366.561 293.817 367.235 295.51 368.054 297.153C368.088 297.233 368.126 297.311 368.168 297.387L367.93 297.255Z" fill="#263238"/>
<path d="M344.831 308.894L343.296 309.424L343.016 309.526L342.051 309.863C315.083 319.268 262.059 335.507 237.808 327.265C213.558 319.023 179.194 182.344 178.52 182.793H237.3C237.3 182.793 248.233 210.529 238.908 227.982C238.047 229.594 259.787 286.534 272.94 284.973C283.208 283.749 311.847 273.181 329.915 267.714L332.861 266.826L344.831 308.894Z" fill="#455A64"/>
<path d="M177.378 129.77C177.382 129.911 177.438 130.045 177.535 130.148C177.633 130.251 177.765 130.316 177.907 130.331L180.199 130.168C181.548 124.282 183.186 119.518 182.823 121.334C182.295 124.194 182.173 127.112 182.46 130.005L186.983 129.607C187.522 119.488 188.881 111.858 189.057 114.132C189.628 123.313 190.499 126.19 191.495 129.229C202.417 128.209 216.721 126.822 227.041 125.547C227.549 119.916 227.861 113.867 228.078 114.255C229.873 117.152 230.806 121.569 231.273 125.006C234.551 124.578 237.165 124.17 238.752 123.833C238.752 123.833 238.949 119.141 238.866 117.621C238.683 113.721 237.809 109.882 236.283 106.278C234.602 102.749 232.562 99.396 230.194 96.271L230.132 96.1996C228.661 94.1011 227.443 91.8418 226.502 89.4672C225.849 87.7251 225.339 85.9342 224.977 84.1119C223.66 77.4406 219.334 72.1057 213.101 71.157C200.363 61.4562 189.586 67.7704 187.232 76.8796C187.004 77.767 186.806 78.7769 186.63 79.8786C185.956 83.9588 185.593 89.1408 185.074 93.1395C184.908 94.7212 184.645 96.2916 184.286 97.842C182.222 105.329 176.164 110.236 177.378 129.77Z" fill="#263238"/>
<path d="M215.86 72.5644C217.942 73.2758 219.801 74.5058 221.255 76.1345C222.71 77.7633 223.71 79.735 224.158 81.8573C224.69 84.6726 225.572 87.4132 226.782 90.0178C228.258 92.5142 230.096 94.7856 232.238 96.7604C235.474 100.014 237.87 103.37 238.907 108.134C239.945 112.898 240.453 118.794 239.457 123.588C240.011 118.214 239.515 112.785 237.995 107.594C236.47 102.381 233.182 99.433 229.749 95.7608C226.984 92.8682 225.032 89.3175 224.085 85.4581C223.484 83.0711 223.204 80.5312 222.011 78.3176C220.569 75.7369 218.142 74.3088 215.787 73.0643C215.352 72.9317 215.57 72.493 215.86 72.5644Z" fill="#263238"/>
<path d="M178.519 106.359C180.822 102.157 183.311 98.4947 184.349 93.527C185.303 88.9979 185.573 84.3464 186.548 79.7969C186.548 79.7255 186.672 79.7357 186.651 79.7969C185.282 87.7738 185.801 95.5773 181.911 102.667C179.837 106.523 177.648 110.113 176.497 114.551C175.341 119.2 175.032 124.015 175.584 128.77C175.584 128.944 175.397 128.954 175.356 128.77C173.709 121.166 174.829 113.235 178.519 106.359Z" fill="#263238"/>
<path d="M196.433 127.658C187.253 136.421 153.294 152.711 141.179 148.529C133.275 145.805 110.611 124.047 106.151 117.6C100.965 110.072 117.198 95.4853 121.772 98.3925C127.487 102.034 145.204 121.038 150.587 124.057C153.699 125.802 175.398 118.814 196.288 114.55C204.389 112.888 201.92 122.476 196.433 127.658Z" fill="#EB9481"/>
<path d="M122.074 106.247C122.074 106.247 108.424 96.771 107.552 96.5364C106.681 96.3018 106.339 97.4544 106.007 98.3419C105.929 98.9097 105.908 99.4837 105.945 100.056C105.945 102.759 105.945 107.533 102.47 106.951C97.9683 106.186 98.1135 95.4551 98.404 93.7822C98.6338 93.0603 99.0195 92.3957 99.5346 91.8339C101.267 89.7223 104.721 87.0804 107.988 87.5802C112.51 88.2636 116.701 90.977 120.508 93.0783L122.074 106.247Z" fill="#EB9481"/>
<path d="M122.072 106.247C122.072 106.247 108.422 96.771 107.551 96.5364C106.68 96.3018 106.337 97.4544 106.006 98.3419C105.928 98.9097 105.907 99.4837 105.943 100.056C103.651 97.1382 101.131 93.9352 99.5332 91.8339C101.265 89.7223 104.719 87.0804 107.987 87.5802C112.509 88.2636 116.7 90.977 120.506 93.0783L122.072 106.247Z" fill="#263238"/>
<path d="M115.642 128.046C115.071 127.261 109.169 121.334 104.72 116.825C105.342 112.041 105.446 102.361 105.477 99.8006C106.016 96.9546 105.477 90.6199 105.228 90.6199C104.689 90.6199 102.78 90.62 100.457 90.3955C97.3449 90.1201 93.6316 89.5285 91.3704 88.2432C90.8122 88.004 90.3314 87.6189 89.9803 87.1297C89.6292 86.6405 89.4212 86.066 89.3789 85.4686C89.3789 83.4285 94.0672 83.2143 99.5854 82.5512C107.095 81.6434 116.378 80.9293 119.366 83.6529C123.774 87.7332 125.734 96.3935 126.626 98.9539C127.518 101.514 132.995 108.4 132.995 108.4C128.939 122.242 116.399 129.087 115.642 128.046Z" fill="#EB9481"/>
<path d="M77.0155 82.4902C77.0155 82.4902 86.9108 85.8156 97.304 88.8146C107.697 91.8136 128.67 102.708 128.784 103.585C128.898 104.462 105.695 97.7402 95.8726 93.5988C86.0499 89.4573 76.3828 84.6528 76.3828 84.6528L77.0155 82.4902Z" fill="#455A64"/>
<path d="M76.8399 82.3066L83.7583 84.2958L82.3062 87.8558L75.9375 84.7548L76.8399 82.3066Z" fill="#EBEBEB"/>
<path d="M76.8705 82.3066C76.3234 81.5992 75.6127 81.0304 74.7973 80.6472C73.982 80.264 73.0855 80.0775 72.1822 80.1032C71.4255 80.1565 70.6659 80.0543 69.9516 79.8032C69.2373 79.5521 68.584 79.1575 68.0332 78.6445C68.0332 78.6445 69.9936 85.173 75.9162 84.7649L76.8705 82.3066Z" fill="#455A64"/>
<path d="M67.8462 78.4506C68.2611 78.4506 69.402 79.8073 70.9579 79.9399C72.5138 80.0725 71.8707 84.3568 70.4185 82.9389C68.7589 81.3374 67.0994 78.4098 67.8462 78.4506Z" fill="#6777EF"/>
<path d="M104.721 116.876C103.196 115.356 101.827 114.03 100.872 113.143C97.9023 110.576 96.0461 106.987 95.6862 103.115C95.209 99.6982 87.5542 92.5373 93.3109 92.0069C99.0676 91.4765 103.611 101.891 104.949 101.126C105.198 100.983 105.384 100.514 105.509 99.8512C105.447 102.412 105.343 112.092 104.721 116.876Z" fill="#EB9481"/>
<path d="M105.675 97.9947C105.675 97.8621 105.581 97.8825 105.56 97.9947C105.56 98.4639 105.239 100.575 104.751 100.575C103.88 100.575 100.862 96.3524 99.2747 94.8019C99.1814 94.7203 99.0569 94.8019 99.1502 94.9039C99.5963 95.2915 100.934 97.1378 101.277 97.5764C101.93 98.4333 103.735 101.167 104.824 101.167C105.55 101.228 105.726 98.5353 105.675 97.9947Z" fill="#263238"/>
<path d="M165.43 120.069L170.025 134.197C171.726 139.522 173.302 144.398 173.406 144.959C181.697 140.464 189.584 135.284 196.983 129.474C206.961 121.508 205.913 114.826 200.094 113.796C199.21 113.654 198.31 113.626 197.418 113.714C189.494 114.438 165.43 120.069 165.43 120.069Z" fill="#6777EF"/>
<path d="M181.911 121.61H181.102C180.901 121.615 180.701 121.581 180.513 121.509C180.326 121.437 180.155 121.329 180.011 121.191C179.867 121.053 179.753 120.888 179.675 120.706C179.596 120.524 179.556 120.328 179.556 120.13C179.543 119.869 179.428 119.622 179.235 119.442C179.042 119.262 178.785 119.161 178.519 119.161H177.669V118.651H178.519C178.717 118.65 178.914 118.687 179.098 118.761C179.281 118.835 179.448 118.944 179.589 119.081C179.73 119.218 179.842 119.382 179.918 119.562C179.994 119.742 180.033 119.935 180.033 120.13C180.024 120.267 180.045 120.403 180.094 120.531C180.143 120.659 180.219 120.775 180.317 120.872C180.415 120.968 180.533 121.043 180.663 121.091C180.793 121.139 180.932 121.16 181.071 121.151H181.88L181.911 121.61ZM173.042 130.525C173.234 130.353 173.483 130.258 173.743 130.258C174.002 130.258 174.251 130.353 174.443 130.525C174.729 130.795 175.11 130.946 175.506 130.946C175.902 130.946 176.283 130.795 176.569 130.525L177.171 129.923L176.808 129.566L176.196 130.158C176.005 130.327 175.757 130.421 175.501 130.421C175.244 130.421 174.996 130.327 174.806 130.158C174.525 129.898 174.154 129.754 173.768 129.754C173.383 129.754 173.012 129.898 172.731 130.158L172.15 130.729L172.524 131.086L173.042 130.525Z" fill="white"/>
<path d="M170.025 134.197C171.726 139.522 173.303 144.398 173.407 144.959C181.698 140.464 189.585 135.284 196.983 129.474C206.962 121.508 205.914 114.826 200.095 113.796L170.025 134.197Z" fill="#263238"/>
<path d="M254.809 264.501H162.961L163.49 261.257L174.993 190.485L175.149 189.556L180.553 156.282C180.553 156.282 175.802 149.213 177.244 142.827C177.97 139.594 185.542 126.68 189.566 121.406C190.848 119.642 192.274 117.984 193.829 116.448C198.248 112.368 204.202 111.848 208.444 112.46C209.192 112.574 209.928 112.755 210.643 113C216.742 115.041 224.241 122.079 228.276 132.708C229.676 136.401 231.066 140.705 232.425 145.469C232.487 145.704 232.549 145.938 232.622 146.173C236.636 160.342 240.474 178.376 243.783 196.075C245.66 206.081 247.372 215.986 248.855 225.014L249.042 226.207C252.599 248.078 254.809 264.501 254.809 264.501Z" fill="#6777EF"/>
<path d="M209.128 186.68H208.309C207.91 186.68 207.527 186.524 207.245 186.247C206.963 185.969 206.805 185.593 206.805 185.201C206.805 184.93 206.695 184.671 206.501 184.479C206.306 184.288 206.042 184.181 205.767 184.181H204.906V183.681H205.767C206.167 183.684 206.55 183.842 206.831 184.121C207.113 184.4 207.271 184.777 207.271 185.17C207.284 185.423 207.392 185.663 207.574 185.842C207.756 186.021 207.999 186.127 208.257 186.139H209.076L209.128 186.68ZM222.011 231.512H221.202C220.944 231.499 220.701 231.393 220.519 231.214C220.337 231.035 220.229 230.796 220.216 230.543C220.216 230.15 220.058 229.774 219.776 229.497C219.494 229.219 219.111 229.064 218.712 229.064H217.851V229.574H218.712C218.969 229.586 219.213 229.692 219.395 229.871C219.577 230.05 219.685 230.29 219.698 230.543C219.698 230.935 219.856 231.311 220.138 231.589C220.42 231.866 220.803 232.022 221.202 232.022H222.011V231.512ZM238.057 188.669H237.248C236.982 188.656 236.731 188.543 236.548 188.353C236.364 188.163 236.262 187.911 236.262 187.649C236.26 187.256 236.099 186.88 235.815 186.602C235.531 186.325 235.148 186.17 234.748 186.17H233.887V186.68H234.748C235.014 186.68 235.27 186.78 235.464 186.96C235.657 187.141 235.772 187.387 235.785 187.649C235.785 188.041 235.944 188.417 236.226 188.695C236.508 188.972 236.89 189.128 237.289 189.128H238.098L238.057 188.669ZM197.044 165.605H196.225C195.967 165.593 195.724 165.487 195.542 165.308C195.36 165.129 195.252 164.889 195.239 164.636C195.239 164.244 195.081 163.868 194.799 163.59C194.517 163.313 194.134 163.157 193.735 163.157H192.874V163.667H193.735C194.002 163.667 194.258 163.767 194.451 163.948C194.644 164.128 194.759 164.375 194.773 164.636C194.773 165.029 194.931 165.405 195.213 165.682C195.495 165.96 195.878 166.115 196.277 166.115H197.096L197.044 165.605ZM181.911 146.53H181.102C180.835 146.53 180.579 146.43 180.386 146.25C180.193 146.069 180.078 145.823 180.065 145.561C180.065 145.366 180.025 145.173 179.949 144.993C179.873 144.812 179.761 144.649 179.62 144.512C179.48 144.374 179.313 144.265 179.129 144.192C178.945 144.118 178.749 144.081 178.55 144.082H177.7V144.592H178.55C178.825 144.592 179.089 144.699 179.284 144.891C179.478 145.082 179.587 145.341 179.587 145.612C179.587 146.004 179.746 146.381 180.028 146.658C180.31 146.935 180.692 147.091 181.091 147.091H181.9L181.911 146.53ZM222.291 165.085H221.471C221.205 165.085 220.949 164.985 220.756 164.805C220.562 164.624 220.447 164.378 220.434 164.116C220.434 163.724 220.275 163.348 219.993 163.07C219.711 162.793 219.329 162.637 218.93 162.637H218.069V163.147H218.971C219.237 163.16 219.488 163.273 219.672 163.463C219.855 163.653 219.957 163.905 219.957 164.167C219.957 164.559 220.115 164.936 220.397 165.213C220.679 165.49 221.062 165.646 221.461 165.646H222.28L222.291 165.085ZM207.354 139.135H206.525C206.267 139.122 206.024 139.016 205.842 138.837C205.66 138.658 205.552 138.419 205.539 138.166C205.539 137.773 205.381 137.397 205.099 137.12C204.817 136.842 204.434 136.686 204.035 136.686H203.174V137.196H204.035C204.301 137.21 204.552 137.323 204.735 137.513C204.919 137.703 205.021 137.955 205.021 138.217C205.021 138.609 205.179 138.985 205.461 139.262C205.743 139.54 206.126 139.696 206.525 139.696H207.344L207.354 139.135ZM190.841 205.102H190.032C189.766 205.089 189.516 204.976 189.332 204.786C189.149 204.596 189.047 204.344 189.047 204.082C189.044 203.689 188.884 203.313 188.6 203.036C188.316 202.759 187.933 202.603 187.533 202.603H186.672V203.113H187.533C187.808 203.113 188.072 203.221 188.266 203.412C188.461 203.603 188.57 203.863 188.57 204.133C188.57 204.526 188.728 204.904 189.01 205.183C189.292 205.462 189.674 205.62 190.074 205.623H190.883L190.841 205.102ZM211.794 247.619H210.974C210.699 247.619 210.435 247.511 210.241 247.32C210.046 247.129 209.937 246.869 209.937 246.599C209.937 246.206 209.779 245.83 209.497 245.553C209.215 245.275 208.832 245.119 208.433 245.119H207.572V245.63H208.433C208.69 245.642 208.934 245.748 209.116 245.927C209.298 246.106 209.406 246.346 209.418 246.599C209.418 246.991 209.577 247.367 209.859 247.644C210.141 247.922 210.524 248.078 210.922 248.078H211.742L211.794 247.619ZM239.001 262.093H238.181C237.915 262.08 237.664 261.967 237.481 261.777C237.298 261.587 237.195 261.335 237.196 261.073C237.196 260.681 237.037 260.305 236.755 260.027C236.473 259.75 236.091 259.594 235.692 259.594H234.831V260.104H235.692C235.949 260.117 236.192 260.223 236.375 260.402C236.557 260.581 236.665 260.82 236.677 261.073C236.677 261.467 236.835 261.844 237.117 262.123C237.399 262.402 237.781 262.56 238.181 262.563H239.001V262.093ZM181.828 252.025H181.008C180.742 252.026 180.486 251.925 180.293 251.745C180.1 251.564 179.984 251.318 179.971 251.056C179.971 250.664 179.813 250.288 179.531 250.01C179.249 249.733 178.866 249.577 178.467 249.577H177.606V250.087H178.519C178.776 250.1 179.02 250.206 179.202 250.385C179.384 250.564 179.492 250.803 179.504 251.056C179.504 251.449 179.663 251.825 179.945 252.102C180.227 252.38 180.61 252.535 181.008 252.535H181.828V252.025ZM204.823 224.341H204.004C203.747 224.328 203.503 224.222 203.321 224.043C203.139 223.864 203.031 223.625 203.019 223.372C203.019 222.979 202.86 222.603 202.578 222.326C202.296 222.048 201.914 221.893 201.515 221.893H200.654V222.403H201.515C201.781 222.402 202.037 222.503 202.23 222.683C202.423 222.864 202.539 223.11 202.552 223.372C202.552 223.764 202.71 224.14 202.992 224.418C203.274 224.695 203.657 224.851 204.056 224.851H204.875L204.823 224.341ZM179.743 228.421H178.924C178.666 228.409 178.423 228.303 178.241 228.123C178.059 227.944 177.951 227.705 177.938 227.452C177.938 227.059 177.78 226.681 177.498 226.402C177.217 226.123 176.834 225.965 176.434 225.963H175.573V226.473H176.445C176.711 226.486 176.961 226.599 177.145 226.789C177.328 226.979 177.43 227.231 177.43 227.493C177.43 227.885 177.588 228.261 177.87 228.539C178.152 228.816 178.535 228.972 178.934 228.972H179.753L179.743 228.421ZM216.368 205.684H215.549C215.291 205.671 215.048 205.565 214.866 205.386C214.684 205.207 214.576 204.968 214.563 204.715C214.563 204.322 214.405 203.946 214.123 203.669C213.841 203.391 213.458 203.236 213.059 203.236H212.198V203.746H213.059C213.325 203.759 213.576 203.872 213.759 204.062C213.943 204.252 214.045 204.504 214.045 204.766C214.045 205.158 214.203 205.534 214.485 205.812C214.767 206.089 215.15 206.245 215.549 206.245H216.368V205.684ZM248.439 236.286H247.62C247.354 236.273 247.103 236.159 246.92 235.969C246.736 235.78 246.634 235.528 246.635 235.266C246.632 234.874 246.473 234.5 246.191 234.223C245.91 233.946 245.529 233.789 245.131 233.787H244.27V234.297H245.131C245.388 234.309 245.631 234.415 245.813 234.594C245.996 234.773 246.104 235.013 246.116 235.266C246.116 235.659 246.274 236.036 246.556 236.315C246.838 236.594 247.22 236.752 247.62 236.755H248.439V236.286ZM191.09 177.05C191.281 176.881 191.529 176.788 191.785 176.788C192.042 176.788 192.29 176.881 192.48 177.05C192.761 177.31 193.132 177.455 193.518 177.455C193.903 177.455 194.274 177.31 194.555 177.05L195.167 176.449L194.804 176.092L194.192 176.693C194.001 176.865 193.751 176.961 193.492 176.961C193.232 176.961 192.983 176.865 192.791 176.693C192.506 176.423 192.125 176.273 191.728 176.273C191.332 176.273 190.951 176.423 190.665 176.693L190.095 177.254L190.458 177.611L191.09 177.05ZM181.755 161.749C181.946 161.58 182.193 161.487 182.45 161.487C182.707 161.487 182.955 161.58 183.145 161.749C183.284 161.888 183.45 161.998 183.632 162.073C183.815 162.148 184.01 162.187 184.208 162.187C184.406 162.187 184.602 162.148 184.784 162.073C184.967 161.998 185.133 161.888 185.271 161.749L185.883 161.158L185.52 160.791L184.908 161.392C184.718 161.562 184.47 161.655 184.213 161.655C183.957 161.655 183.709 161.562 183.519 161.392C183.231 161.122 182.848 160.971 182.45 160.971C182.052 160.971 181.669 161.122 181.382 161.392L180.811 161.964L181.174 162.321L181.755 161.749ZM228.753 203.735C228.943 203.566 229.191 203.473 229.448 203.473C229.704 203.473 229.952 203.566 230.143 203.735C230.426 203.991 230.796 204.132 231.18 204.132C231.564 204.132 231.934 203.991 232.217 203.735L232.829 203.134L232.466 202.777L231.854 203.378C231.663 203.548 231.416 203.641 231.159 203.641C230.902 203.641 230.655 203.548 230.464 203.378C230.324 203.24 230.158 203.129 229.974 203.054C229.791 202.979 229.594 202.94 229.396 202.94C229.197 202.94 229 202.979 228.817 203.054C228.634 203.129 228.467 203.24 228.327 203.378L227.757 203.939L228.12 204.307L228.753 203.735ZM205.238 154.089C205.429 153.92 205.677 153.826 205.933 153.826C206.19 153.826 206.438 153.92 206.628 154.089C206.914 154.359 207.295 154.509 207.691 154.509C208.088 154.509 208.469 154.359 208.755 154.089L209.367 153.487L209.004 153.13L208.392 153.722C208.2 153.894 207.951 153.989 207.691 153.989C207.432 153.989 207.183 153.894 206.991 153.722C206.703 153.456 206.323 153.309 205.928 153.309C205.533 153.309 205.153 153.456 204.865 153.722L204.294 154.293L204.658 154.65L205.238 154.089ZM199.824 122.191C200.015 122.019 200.265 121.924 200.524 121.924C200.783 121.924 201.033 122.019 201.224 122.191C201.508 122.466 201.89 122.62 202.287 122.62C202.685 122.62 203.067 122.466 203.351 122.191L203.963 121.589L203.589 121.232L202.988 121.824C202.796 121.996 202.547 122.091 202.287 122.091C202.028 122.091 201.778 121.996 201.587 121.824C201.306 121.564 200.935 121.42 200.55 121.42C200.165 121.42 199.794 121.564 199.513 121.824L198.932 122.395L199.305 122.752L199.824 122.191ZM189.234 139.583C189.424 139.414 189.672 139.321 189.929 139.321C190.185 139.321 190.433 139.414 190.624 139.583C190.763 139.722 190.928 139.832 191.111 139.907C191.293 139.982 191.489 140.021 191.687 140.021C191.885 140.021 192.08 139.982 192.263 139.907C192.446 139.832 192.611 139.722 192.75 139.583L193.362 138.992L192.999 138.625L192.387 139.226C192.196 139.398 191.946 139.494 191.687 139.494C191.428 139.494 191.178 139.398 190.987 139.226C190.706 138.967 190.335 138.822 189.949 138.822C189.564 138.822 189.193 138.967 188.912 139.226L188.342 139.798L188.705 140.155L189.234 139.583ZM206.037 171.012C206.05 170.759 206.157 170.519 206.34 170.34C206.522 170.161 206.765 170.055 207.022 170.043C207.421 170.043 207.804 169.887 208.086 169.609C208.368 169.332 208.526 168.956 208.526 168.563V167.717H208.008V168.563C208.008 168.825 207.906 169.077 207.723 169.267C207.539 169.457 207.288 169.57 207.022 169.584C206.624 169.584 206.241 169.739 205.959 170.017C205.677 170.294 205.518 170.67 205.518 171.063V171.869H206.037V171.012ZM200.509 211.223C200.522 210.961 200.637 210.715 200.83 210.534C201.023 210.354 201.279 210.253 201.546 210.254C201.945 210.254 202.327 210.098 202.609 209.82C202.891 209.543 203.05 209.167 203.05 208.775V207.928H202.531V208.775C202.531 209.036 202.429 209.288 202.246 209.478C202.062 209.668 201.812 209.781 201.546 209.795C201.348 209.788 201.151 209.819 200.966 209.887C200.781 209.956 200.611 210.059 200.467 210.191C200.322 210.324 200.206 210.483 200.124 210.66C200.042 210.837 199.997 211.028 199.99 211.223V212.029H200.509V211.223ZM229.344 241.233C229.357 240.971 229.472 240.725 229.665 240.544C229.859 240.364 230.115 240.264 230.381 240.264C230.78 240.264 231.163 240.108 231.445 239.831C231.727 239.553 231.885 239.177 231.885 238.785V237.938H231.367V238.764C231.367 239.026 231.265 239.278 231.081 239.468C230.898 239.658 230.647 239.771 230.381 239.785C229.981 239.785 229.598 239.94 229.314 240.217C229.03 240.494 228.869 240.87 228.867 241.264V242.069H229.385L229.344 241.233ZM249.29 260.777C249.303 260.524 249.41 260.285 249.593 260.106C249.775 259.927 250.018 259.821 250.275 259.808C250.674 259.808 251.057 259.653 251.339 259.375C251.621 259.098 251.779 258.722 251.779 258.329V257.483H251.261V258.329C251.247 258.591 251.132 258.837 250.939 259.018C250.746 259.198 250.49 259.299 250.224 259.298C249.825 259.298 249.442 259.454 249.16 259.732C248.878 260.009 248.72 260.385 248.72 260.777V261.583H249.238L249.29 260.777ZM242.029 204.194C242.021 204.063 242.04 203.93 242.086 203.806C242.132 203.682 242.203 203.568 242.295 203.473C242.388 203.377 242.5 203.301 242.623 203.25C242.747 203.198 242.88 203.173 243.015 203.174C243.415 203.172 243.797 203.014 244.079 202.735C244.361 202.456 244.519 202.078 244.519 201.685V200.838H244V201.685C244 201.947 243.898 202.199 243.715 202.389C243.531 202.579 243.281 202.692 243.015 202.705C242.616 202.705 242.233 202.861 241.951 203.138C241.669 203.416 241.511 203.792 241.511 204.184V204.98H242.029V204.194ZM177.907 212.692C177.92 212.43 178.035 212.183 178.229 212.003C178.422 211.823 178.678 211.722 178.944 211.723C179.343 211.723 179.726 211.567 180.008 211.289C180.29 211.012 180.448 210.636 180.448 210.243V209.397H179.93V210.203C179.938 210.334 179.919 210.467 179.873 210.591C179.827 210.715 179.756 210.829 179.664 210.924C179.571 211.02 179.459 211.096 179.336 211.147C179.212 211.199 179.079 211.224 178.944 211.223C178.545 211.223 178.163 211.379 177.881 211.656C177.599 211.933 177.44 212.309 177.44 212.702V213.508H177.959L177.907 212.692ZM179.152 176.54C179.164 176.287 179.272 176.048 179.454 175.869C179.636 175.69 179.88 175.584 180.137 175.571C180.534 175.569 180.914 175.412 181.194 175.135C181.474 174.857 181.631 174.483 181.631 174.092V173.246H181.112V174.092C181.112 174.363 181.003 174.622 180.808 174.814C180.614 175.005 180.35 175.112 180.075 175.112C179.676 175.112 179.293 175.268 179.011 175.546C178.729 175.823 178.571 176.199 178.571 176.591V177.397H179.09L179.152 176.54ZM192.563 153.079C192.563 152.817 192.665 152.565 192.849 152.375C193.032 152.185 193.283 152.072 193.549 152.059C193.948 152.059 194.33 151.903 194.612 151.626C194.894 151.348 195.053 150.972 195.053 150.58V149.733H194.534V150.58C194.521 150.833 194.414 151.072 194.231 151.251C194.049 151.43 193.806 151.536 193.549 151.549C193.15 151.549 192.767 151.705 192.485 151.982C192.203 152.259 192.045 152.636 192.045 153.028V153.834H192.563V153.079ZM187.491 129.444C187.504 129.182 187.62 128.936 187.813 128.755C188.006 128.575 188.262 128.475 188.528 128.475C188.928 128.472 189.311 128.314 189.593 128.035C189.874 127.756 190.032 127.379 190.032 126.986V126.139H189.514V126.986C189.514 127.248 189.412 127.5 189.229 127.689C189.045 127.879 188.794 127.993 188.528 128.006C188.13 128.006 187.747 128.161 187.465 128.439C187.183 128.716 187.024 129.092 187.024 129.485V130.28H187.543L187.491 129.444ZM188.964 189.414C188.964 189.152 189.066 188.9 189.249 188.71C189.433 188.52 189.683 188.407 189.949 188.394C190.348 188.394 190.731 188.238 191.013 187.96C191.295 187.683 191.453 187.307 191.453 186.914V186.068H190.966V186.914C190.953 187.168 190.845 187.407 190.663 187.586C190.481 187.765 190.238 187.871 189.981 187.884C189.582 187.884 189.199 188.039 188.917 188.317C188.635 188.594 188.477 188.97 188.477 189.363V190.169H188.995L188.964 189.414ZM221.295 194.3C221.295 194.038 221.397 193.786 221.58 193.596C221.764 193.406 222.014 193.293 222.28 193.28C222.679 193.28 223.062 193.124 223.344 192.846C223.626 192.569 223.784 192.193 223.784 191.801V190.954H223.266V191.841C223.253 192.094 223.145 192.334 222.963 192.513C222.781 192.692 222.538 192.798 222.28 192.81C221.881 192.81 221.499 192.966 221.217 193.244C220.935 193.521 220.776 193.897 220.776 194.29V195.095H221.295V194.3ZM191.412 235.102C191.425 234.849 191.532 234.61 191.714 234.431C191.897 234.252 192.14 234.146 192.397 234.133C192.796 234.133 193.179 233.978 193.461 233.7C193.743 233.423 193.901 233.047 193.901 232.654V231.808H193.383V232.644C193.369 232.906 193.254 233.152 193.061 233.333C192.868 233.513 192.612 233.613 192.345 233.613C191.947 233.613 191.564 233.769 191.282 234.046C191 234.324 190.841 234.7 190.841 235.092V235.898H191.36L191.412 235.102ZM168.52 245.905C168.52 245.643 168.622 245.391 168.805 245.201C168.989 245.011 169.239 244.898 169.505 244.885C169.904 244.885 170.287 244.729 170.569 244.452C170.851 244.174 171.009 243.798 171.009 243.406V242.559H170.491V243.406C170.478 243.659 170.37 243.898 170.188 244.077C170.006 244.256 169.763 244.362 169.505 244.375C169.107 244.375 168.724 244.531 168.442 244.808C168.16 245.085 168.001 245.462 168.001 245.854V246.66H168.52V245.905ZM198.424 258.146C198.436 257.893 198.544 257.653 198.726 257.474C198.908 257.295 199.152 257.189 199.409 257.177C199.808 257.177 200.19 257.021 200.473 256.743C200.755 256.466 200.913 256.09 200.913 255.698V254.851H200.394V255.698C200.381 255.959 200.266 256.206 200.073 256.386C199.88 256.567 199.624 256.667 199.357 256.667C198.958 256.667 198.576 256.822 198.294 257.1C198.012 257.377 197.853 257.753 197.853 258.146V258.952H198.372L198.424 258.146ZM232.124 217.465C232.123 217.204 232.225 216.952 232.409 216.762C232.592 216.572 232.843 216.459 233.109 216.445C233.307 216.445 233.504 216.407 233.687 216.332C233.87 216.257 234.036 216.147 234.176 216.009C234.316 215.87 234.427 215.706 234.502 215.525C234.577 215.345 234.614 215.151 234.613 214.956V214.109H234.094V214.956C234.095 215.218 233.993 215.47 233.809 215.66C233.626 215.85 233.375 215.963 233.109 215.976C232.71 215.976 232.328 216.132 232.046 216.409C231.764 216.687 231.605 217.063 231.605 217.455V218.251H232.124V217.465ZM218.37 177.56C218.561 177.388 218.811 177.293 219.07 177.293C219.329 177.293 219.579 177.388 219.77 177.56C219.909 177.699 220.075 177.809 220.257 177.884C220.44 177.959 220.635 177.998 220.833 177.998C221.031 177.998 221.227 177.959 221.409 177.884C221.592 177.809 221.758 177.699 221.896 177.56L222.477 176.989L222.104 176.632L221.533 177.203C221.342 177.375 221.092 177.471 220.833 177.471C220.574 177.471 220.324 177.375 220.133 177.203C219.994 177.065 219.829 176.955 219.646 176.88C219.464 176.805 219.268 176.766 219.07 176.766C218.872 176.766 218.676 176.805 218.494 176.88C218.311 176.955 218.146 177.065 218.007 177.203L217.395 177.795L217.758 178.162L218.37 177.56ZM199.928 195.799C200.119 195.627 200.369 195.532 200.628 195.532C200.887 195.532 201.137 195.627 201.328 195.799C201.611 196.054 201.981 196.196 202.365 196.196C202.749 196.196 203.119 196.054 203.402 195.799L203.973 195.228L203.61 194.871L203.029 195.442C202.838 195.611 202.591 195.705 202.334 195.705C202.077 195.705 201.83 195.611 201.639 195.442C201.5 195.304 201.335 195.194 201.152 195.119C200.97 195.044 200.774 195.005 200.576 195.005C200.378 195.005 200.182 195.044 200 195.119C199.817 195.194 199.652 195.304 199.513 195.442L198.901 196.034L199.264 196.401L199.928 195.799ZM187.149 220.546C187.34 220.374 187.59 220.279 187.849 220.279C188.108 220.279 188.358 220.374 188.549 220.546C188.688 220.685 188.854 220.795 189.036 220.87C189.219 220.945 189.415 220.983 189.612 220.983C189.81 220.983 190.006 220.945 190.189 220.87C190.371 220.795 190.537 220.685 190.675 220.546L191.256 219.975L190.883 219.618L190.312 220.189C190.121 220.361 189.871 220.457 189.612 220.457C189.353 220.457 189.103 220.361 188.912 220.189C188.773 220.051 188.608 219.941 188.425 219.866C188.243 219.791 188.047 219.752 187.849 219.752C187.651 219.752 187.455 219.791 187.273 219.866C187.09 219.941 186.925 220.051 186.786 220.189L186.174 220.781L186.547 221.148L187.149 220.546ZM192.677 246.262C192.868 246.093 193.116 245.999 193.372 245.999C193.629 245.999 193.877 246.093 194.067 246.262C194.35 246.517 194.72 246.659 195.105 246.659C195.489 246.659 195.859 246.517 196.142 246.262L196.723 245.691L196.36 245.334L195.779 245.895C195.689 245.987 195.581 246.06 195.461 246.11C195.342 246.16 195.214 246.185 195.084 246.185C194.954 246.185 194.826 246.16 194.706 246.11C194.587 246.06 194.479 245.987 194.389 245.895C194.104 245.619 193.72 245.465 193.32 245.465C192.921 245.465 192.537 245.619 192.252 245.895L191.651 246.497L192.014 246.864L192.677 246.262ZM210.674 261.328C210.865 261.156 211.114 261.061 211.374 261.061C211.633 261.061 211.883 261.156 212.074 261.328C212.361 261.596 212.741 261.745 213.137 261.745C213.533 261.745 213.913 261.596 214.2 261.328L214.781 260.757L214.408 260.4L213.837 260.961C213.646 261.133 213.396 261.229 213.137 261.229C212.878 261.229 212.628 261.133 212.437 260.961C212.153 260.686 211.772 260.532 211.374 260.532C210.976 260.532 210.594 260.686 210.31 260.961L209.699 261.563L210.072 261.92L210.674 261.328ZM217.436 218.016C217.628 217.844 217.877 217.749 218.136 217.749C218.396 217.749 218.645 217.844 218.837 218.016C219.124 218.284 219.504 218.433 219.9 218.433C220.295 218.433 220.676 218.284 220.963 218.016L221.533 217.445L221.17 217.088L220.6 217.649C220.409 217.821 220.159 217.917 219.9 217.917C219.641 217.917 219.391 217.821 219.2 217.649C218.916 217.374 218.534 217.22 218.136 217.22C217.739 217.22 217.357 217.374 217.073 217.649L216.461 218.251L216.835 218.608L217.436 218.016ZM222.011 251.821C222.202 251.649 222.452 251.554 222.711 251.554C222.97 251.554 223.22 251.649 223.411 251.821C223.693 252.098 224.075 252.254 224.474 252.254C224.873 252.254 225.255 252.098 225.537 251.821L226.118 251.25L225.745 250.893L225.174 251.464C224.983 251.636 224.733 251.732 224.474 251.732C224.215 251.732 223.965 251.636 223.774 251.464C223.491 251.209 223.121 251.068 222.737 251.068C222.353 251.068 221.983 251.209 221.699 251.464L221.046 252.025L221.419 252.393L222.011 251.821ZM241.21 249.71C241.401 249.541 241.648 249.447 241.905 249.447C242.162 249.447 242.409 249.541 242.6 249.71C242.886 249.98 243.267 250.13 243.663 250.13C244.059 250.13 244.44 249.98 244.726 249.71L245.307 249.139L244.944 248.782L244.363 249.353C244.173 249.522 243.925 249.616 243.668 249.616C243.411 249.616 243.164 249.522 242.973 249.353C242.833 249.214 242.667 249.104 242.484 249.029C242.3 248.953 242.104 248.915 241.905 248.915C241.706 248.915 241.509 248.953 241.326 249.029C241.143 249.104 240.976 249.214 240.836 249.353L240.235 249.944L240.598 250.312L241.21 249.71ZM242.745 218.016C242.836 217.924 242.945 217.851 243.065 217.801C243.185 217.751 243.315 217.725 243.445 217.725C243.576 217.725 243.705 217.751 243.825 217.801C243.946 217.851 244.054 217.924 244.145 218.016C244.426 218.276 244.797 218.421 245.183 218.421C245.568 218.421 245.939 218.276 246.22 218.016L246.79 217.445L246.427 217.088L245.857 217.649C245.666 217.821 245.416 217.917 245.157 217.917C244.897 217.917 244.648 217.821 244.456 217.649C244.171 217.379 243.79 217.228 243.393 217.228C242.997 217.228 242.616 217.379 242.33 217.649L241.718 218.251L242.081 218.608L242.745 218.016ZM234.447 228.217C234.638 228.048 234.885 227.954 235.142 227.954C235.399 227.954 235.646 228.048 235.837 228.217C236.118 228.477 236.489 228.621 236.874 228.621C237.26 228.621 237.631 228.477 237.911 228.217L238.492 227.646L238.129 227.289L237.548 227.85C237.358 228.019 237.11 228.113 236.853 228.113C236.597 228.113 236.349 228.019 236.159 227.85C235.873 227.574 235.49 227.42 235.09 227.42C234.691 227.42 234.307 227.574 234.022 227.85L233.42 228.452L233.783 228.809L234.447 228.217ZM205.819 235.99C206.01 235.818 206.26 235.722 206.519 235.722C206.779 235.722 207.028 235.818 207.22 235.99C207.503 236.265 207.885 236.419 208.283 236.419C208.681 236.419 209.062 236.265 209.346 235.99L209.927 235.419L209.553 235.062L208.983 235.623C208.792 235.795 208.542 235.89 208.283 235.89C208.024 235.89 207.774 235.795 207.583 235.623C207.294 235.357 206.914 235.21 206.519 235.21C206.125 235.21 205.744 235.357 205.456 235.623L204.844 236.225L205.218 236.582L205.819 235.99ZM179.484 239.53C179.674 239.36 179.922 239.267 180.179 239.267C180.435 239.267 180.683 239.36 180.874 239.53C181.157 239.785 181.527 239.926 181.911 239.926C182.295 239.926 182.665 239.785 182.948 239.53L183.529 238.958L183.166 238.601L182.585 239.172C182.394 239.342 182.147 239.435 181.89 239.435C181.633 239.435 181.386 239.342 181.195 239.172C180.907 238.902 180.525 238.751 180.127 238.751C179.729 238.751 179.346 238.902 179.058 239.172L178.519 239.785L178.882 240.152L179.484 239.53ZM183.965 262.695C184.155 262.526 184.403 262.432 184.659 262.432C184.916 262.432 185.164 262.526 185.354 262.695C185.638 262.97 186.02 263.124 186.418 263.124C186.816 263.124 187.197 262.97 187.481 262.695L188.062 262.124L187.688 261.767L187.118 262.328C187.027 262.42 186.918 262.494 186.798 262.544C186.678 262.594 186.548 262.62 186.418 262.62C186.287 262.62 186.158 262.594 186.037 262.544C185.917 262.494 185.808 262.42 185.717 262.328C185.437 262.068 185.066 261.924 184.68 261.924C184.295 261.924 183.924 262.068 183.643 262.328L183.031 262.93L183.404 263.287L183.965 262.695ZM167.369 259.635C167.559 259.466 167.807 259.372 168.064 259.372C168.32 259.372 168.568 259.466 168.759 259.635C169.039 259.895 169.41 260.039 169.796 260.039C170.181 260.039 170.552 259.895 170.833 259.635L171.414 259.064L171.051 258.707L170.47 259.278C170.279 259.45 170.029 259.545 169.77 259.545C169.511 259.545 169.261 259.45 169.07 259.278C168.931 259.14 168.765 259.03 168.583 258.955C168.4 258.879 168.204 258.841 168.007 258.841C167.809 258.841 167.613 258.879 167.43 258.955C167.248 259.03 167.082 259.14 166.943 259.278L166.342 259.87L166.705 260.237L167.369 259.635ZM177.388 196.33C177.579 196.161 177.827 196.067 178.083 196.067C178.34 196.067 178.588 196.161 178.778 196.33C179.061 196.585 179.432 196.726 179.816 196.726C180.2 196.726 180.57 196.585 180.853 196.33L181.434 195.758L181.071 195.401L180.49 195.973C180.299 196.145 180.049 196.24 179.79 196.24C179.53 196.24 179.281 196.145 179.09 195.973C178.951 195.834 178.785 195.724 178.603 195.649C178.42 195.574 178.224 195.536 178.026 195.536C177.829 195.536 177.633 195.574 177.45 195.649C177.268 195.724 177.102 195.834 176.963 195.973L176.362 196.564L176.725 196.932L177.388 196.33Z" fill="white"/>
<path d="M254.808 264.5H239.654L210.674 113.041C216.773 115.081 224.272 122.12 228.307 132.749C229.707 136.441 231.097 140.746 232.456 145.51C232.518 145.744 232.58 145.979 232.653 146.214C236.667 160.382 240.505 178.417 243.814 196.115C245.691 206.122 247.403 216.027 248.886 225.055L249.073 226.248C252.599 248.077 254.808 264.5 254.808 264.5Z" fill="#263238"/>
<path d="M263.055 234.204C264.932 238.366 263.905 245.364 267.328 244.966C270.367 244.609 270.606 239.692 270.606 239.692C270.606 239.692 272.162 245.323 275.325 244.017C278.489 242.712 277.628 237.275 277.628 237.275C277.628 237.275 278.717 242.018 281.777 240.488C284.837 238.958 284.972 234.215 284.972 234.215C284.972 234.215 286.227 235.357 287.897 233.327C290.293 230.42 288.467 222.545 286.517 218.648C284.567 214.752 274.516 201.919 272.909 200.001L247.393 212.069C247.393 212.069 247.61 220.566 248.254 224.86C248.897 229.155 255.006 242.722 258.533 241.457C262.059 240.192 257.578 230.685 256.997 228.114C256.417 225.544 256.925 224.983 258.097 225.942C258.896 226.523 262.225 232.358 263.055 234.204Z" fill="#EB9481"/>
<path d="M270.502 239.458C270.325 232.573 269.05 229.594 265.233 223.953C265.16 223.841 265.305 223.708 265.398 223.82C269.641 229.002 271.798 232.522 270.834 239.468C270.834 239.784 270.502 239.784 270.502 239.458Z" fill="#263238"/>
<path d="M277.567 237.56C276.758 230.42 275.399 227.186 271.841 220.994C271.789 220.903 271.934 220.811 271.997 220.892C276 226.686 278.075 230.236 277.93 237.469C277.919 237.795 277.608 237.887 277.567 237.56Z" fill="#263238"/>
<path d="M284.9 234.143C283.614 227.298 282.276 223.677 278.044 218.097C278.028 218.071 278.022 218.04 278.027 218.01C278.032 217.979 278.047 217.952 278.07 217.931C278.094 217.911 278.123 217.899 278.154 217.898C278.186 217.896 278.216 217.906 278.241 217.924C283.116 223.208 284.828 227.717 285.108 234.082C285.128 234.52 284.983 234.571 284.9 234.143Z" fill="#263238"/>
<path d="M220.009 120.131C239.717 140.256 270.087 193.8 273.645 201.114C276.062 206.081 249.675 219.21 248.544 215.599C247.102 210.967 224.594 158.567 218.464 137.053C215.072 125.149 215.943 115.969 220.009 120.131Z" fill="#EB9481"/>
<path d="M211.068 122.588C212.386 129.933 221.275 154.425 221.275 154.425L237.643 150.559L237.933 150.497L248.357 148.049C248.357 148.049 228.37 125.108 219.003 118.039C209.637 110.97 209.637 114.316 211.068 122.588Z" fill="#6777EF"/>
<path d="M237.54 146.958H236.72C236.321 146.958 235.939 146.803 235.657 146.525C235.375 146.248 235.216 145.872 235.216 145.479C235.216 145.209 235.107 144.949 234.912 144.758C234.718 144.567 234.454 144.459 234.179 144.459H233.318V143.949H234.179C234.578 143.949 234.961 144.105 235.243 144.382C235.525 144.66 235.683 145.036 235.683 145.428C235.696 145.681 235.803 145.921 235.986 146.1C236.168 146.279 236.411 146.385 236.668 146.397H237.488L237.54 146.958ZM223.796 134.004C223.987 133.832 224.237 133.736 224.496 133.736C224.756 133.736 225.005 133.832 225.197 134.004C225.482 134.274 225.863 134.424 226.26 134.424C226.656 134.424 227.037 134.274 227.323 134.004L227.935 133.402L227.561 133.045L226.96 133.647C226.769 133.819 226.519 133.914 226.26 133.914C226.001 133.914 225.751 133.819 225.56 133.647C225.421 133.508 225.255 133.398 225.073 133.323C224.89 133.248 224.694 133.209 224.496 133.209C224.299 133.209 224.103 133.248 223.92 133.323C223.738 133.398 223.572 133.508 223.433 133.647L222.852 134.208L223.226 134.575L223.796 134.004ZM219.222 145.5C219.235 145.247 219.342 145.007 219.525 144.828C219.707 144.649 219.95 144.543 220.207 144.531C220.606 144.531 220.989 144.375 221.271 144.097C221.553 143.82 221.711 143.444 221.711 143.052V142.205H221.193V143.052C221.193 143.314 221.091 143.566 220.908 143.755C220.724 143.945 220.473 144.059 220.207 144.072C219.809 144.072 219.426 144.227 219.144 144.505C218.862 144.782 218.703 145.158 218.703 145.551V146.357H219.222V145.5ZM213.289 127.322C213.287 127.19 213.313 127.059 213.366 126.937C213.418 126.816 213.495 126.706 213.592 126.615C213.69 126.524 213.805 126.454 213.932 126.409C214.058 126.364 214.192 126.345 214.326 126.353C214.725 126.353 215.108 126.197 215.39 125.92C215.672 125.642 215.83 125.266 215.83 124.874V124.027H215.312V124.874C215.312 125.136 215.21 125.388 215.026 125.578C214.843 125.768 214.592 125.881 214.326 125.894C213.927 125.894 213.545 126.05 213.263 126.327C212.981 126.605 212.822 126.981 212.822 127.373V128.169H213.341L213.289 127.322Z" fill="white"/>
<path d="M219.916 118.753C220.123 118.284 206.898 129.974 195.997 127.934C190.552 126.914 189.525 114.969 190.168 114.847C199.337 113.021 208.039 108.104 219.916 118.753Z" fill="#EB9481"/>
<path d="M209.533 114.459C209.128 115.479 202.998 121.6 198.123 120.702C196.536 120.396 197.833 111.797 197.833 111.797L197.781 111.134L197.055 101.953L208.672 96.7406L210.331 96.0674C210.331 96.0674 210.331 98.5971 210.331 101.739V102.188C210.331 102.371 210.331 102.535 210.331 102.708C210.331 103.177 210.331 103.657 210.331 104.136C210.331 104.616 210.331 104.85 210.331 105.238V106.37C210.256 109.081 209.989 111.784 209.533 114.459Z" fill="#EB9481"/>
<path d="M210.363 101.739C209.084 104.111 207.295 106.18 205.121 107.802C202.946 109.425 200.438 110.562 197.771 111.134L197.045 101.953L208.662 96.7406L210.322 96.0674C210.322 96.0674 210.353 98.5971 210.363 101.739Z" fill="#263238"/>
<path d="M186.818 85.979C183.012 101.719 192.16 105.738 195.614 106.533C198.726 107.268 209.513 109.359 214.948 94.0987C220.383 78.8385 214.16 72.1163 207.076 70.0762C199.991 68.036 190.604 70.2394 186.818 85.979Z" fill="#EB9481"/>
<path d="M190.325 84.2748C190.705 84.2954 191.086 84.2954 191.466 84.2748C191.865 84.3129 192.267 84.2196 192.607 84.0096C192.702 83.9233 192.765 83.8087 192.788 83.6834C192.81 83.5581 192.79 83.429 192.731 83.3159C192.577 83.1109 192.369 82.9505 192.13 82.8518C191.891 82.753 191.629 82.7196 191.372 82.7549C190.843 82.7485 190.33 82.9337 189.93 83.2751C189.859 83.3591 189.812 83.4603 189.793 83.5684C189.775 83.6765 189.787 83.7873 189.827 83.8895C189.868 83.9916 189.935 84.0812 190.022 84.149C190.11 84.2167 190.214 84.2602 190.325 84.2748Z" fill="#263238"/>
<path d="M201.506 86.4374C201.152 86.3219 200.806 86.1856 200.469 86.0294C200.064 85.9428 199.7 85.7277 199.432 85.4173C199.37 85.3047 199.35 85.1751 199.372 85.0494C199.395 84.9237 199.459 84.809 199.556 84.7237C199.768 84.5796 200.016 84.4942 200.273 84.4762C200.53 84.4583 200.788 84.5085 201.019 84.6217C201.525 84.7764 201.952 85.1159 202.211 85.5703C202.264 85.6748 202.286 85.792 202.273 85.908C202.26 86.0241 202.214 86.1342 202.14 86.2253C202.066 86.3164 201.967 86.3848 201.855 86.4224C201.742 86.46 201.621 86.4652 201.506 86.4374Z" fill="#263238"/>
<path d="M198.662 90.1094C198.662 90.1094 198.735 90.1808 198.725 90.2216C198.486 91.3029 198.393 92.5677 199.316 93.1186C199.316 93.1186 199.316 93.19 199.316 93.1696C198.113 92.782 198.227 91.0886 198.662 90.1094Z" fill="#263238"/>
<path d="M199.867 89.1608C201.661 89.3648 201.122 92.8738 199.462 92.7004C197.803 92.527 198.363 88.9976 199.867 89.1608Z" fill="#263238"/>
<path d="M200.54 89.4571C200.82 89.702 201.069 90.0998 201.443 90.1916C201.816 90.2834 202.262 89.9774 202.594 89.6612C202.511 90.3344 202.138 90.9872 201.391 90.977C200.644 90.9668 200.354 90.3038 200.25 89.5999C200.302 89.5285 200.426 89.3551 200.54 89.4571Z" fill="#263238"/>
<path d="M191.797 88.6006C191.797 88.6006 191.703 88.6006 191.703 88.6822C191.579 89.7839 191.247 91.0181 190.199 91.2324V91.2936C191.444 91.3038 191.859 89.6513 191.797 88.6006Z" fill="#263238"/>
<path d="M190.967 87.3253C189.193 86.9376 188.55 90.3855 190.189 90.7935C191.828 91.2015 192.45 87.6415 190.967 87.3253Z" fill="#263238"/>
<path d="M190.188 87.4164C189.877 87.5592 189.535 87.8448 189.151 87.804C188.767 87.7632 188.539 87.3348 188.352 86.9268C188.352 86.9268 188.301 86.9268 188.29 86.9268C188.155 87.6 188.29 88.3344 188.881 88.5793C189.473 88.8241 190.002 88.3038 190.282 87.6714C190.375 87.5694 190.313 87.3654 190.188 87.4164Z" fill="#263238"/>
<path d="M192.876 93.7313C192.876 93.7313 192.378 95.3124 192.254 96.0774C192.254 96.1488 192.42 96.2202 192.689 96.2713C193.338 96.4976 194.038 96.5431 194.712 96.4027C195.385 96.2623 196.007 95.9415 196.506 95.4756C196.569 95.4144 196.506 95.3226 196.403 95.3532C195.301 95.866 194.06 96.0128 192.866 95.7714C192.866 95.547 193.809 93.0784 193.685 93.0478C193.071 93.0071 192.454 93.0448 191.849 93.16C192.783 89.8244 194.255 86.6622 195.127 83.3266C195.138 83.3009 195.138 83.272 195.127 83.2461C195.117 83.2203 195.096 83.1997 195.07 83.1889C195.044 83.1781 195.014 83.1779 194.988 83.1884C194.962 83.199 194.941 83.2193 194.93 83.245C193.259 86.5923 191.932 90.0948 190.967 93.7007C190.843 94.1291 192.544 93.8129 192.876 93.7313Z" fill="#263238"/>
<path d="M192.844 95.7001C193.139 96.4169 193.613 97.0485 194.223 97.5363C194.57 97.7868 194.986 97.9289 195.416 97.9443C196.35 97.9443 196.599 97.1792 196.63 96.455C196.645 96.0719 196.614 95.6883 196.536 95.3125C195.379 95.827 194.085 95.9628 192.844 95.7001Z" fill="#263238"/>
<path d="M194.225 97.5355C194.572 97.7861 194.987 97.9282 195.417 97.9436C196.351 97.9436 196.6 97.1785 196.631 96.4543C196.165 96.3425 195.674 96.3884 195.237 96.5846C194.801 96.7807 194.444 97.1157 194.225 97.5355Z" fill="#FF9BBC"/>
<path d="M214.823 94.149C212.987 93.741 208.994 87.9369 210.321 79.0929C210.321 79.0929 209.689 87.1106 210.093 88.3755C210.498 89.6404 207.863 85.1011 208.838 77.9606C206.291 79.1959 203.577 80.0651 200.779 80.5414C197.211 80.929 195.126 80.5414 194.918 80.2761C194.711 80.0109 200.001 79.2561 201.619 77.93C201.619 77.93 191.838 80.6128 187.595 80.2455C187.108 80.2455 188.176 70.3101 195.344 67.1989C202.511 64.0877 212.022 70.2591 214.336 73.3193C214.336 73.3193 217.499 74.3394 220.237 79.5825C222.976 84.8256 216.773 94.5979 214.823 94.149Z" fill="#263238"/>
<path d="M212.096 94.7106C212.096 94.7106 216.401 90.2325 218.517 91.8137C220.633 93.3948 216.878 100.239 214.015 100.841C213.655 100.942 213.277 100.971 212.906 100.924C212.534 100.878 212.175 100.759 211.852 100.573C211.528 100.387 211.246 100.139 211.023 99.8432C210.799 99.5475 210.639 99.2104 210.551 98.8521L212.096 94.7106Z" fill="#EB9481"/>
<path d="M217.386 93.7519C217.386 93.7519 217.386 93.8131 217.386 93.8233C215.374 94.3027 214.108 95.8634 213.144 97.5771C213.282 97.4062 213.456 97.2666 213.654 97.1682C213.852 97.0698 214.07 97.0148 214.291 97.0071C214.513 96.9993 214.734 97.039 214.939 97.1233C215.144 97.2076 215.327 97.3346 215.477 97.4955C215.487 97.5052 215.494 97.5178 215.496 97.5314C215.497 97.545 215.494 97.5588 215.487 97.5706C215.48 97.5824 215.469 97.5914 215.456 97.5963C215.443 97.6012 215.429 97.6016 215.415 97.5975C215.099 97.4396 214.74 97.3842 214.39 97.4391C214.039 97.4941 213.716 97.6567 213.465 97.9036C213.042 98.3096 212.666 98.7613 212.345 99.25C212.231 99.4031 211.94 99.2501 212.034 99.0868C212.376 96.6693 214.751 93.6091 217.386 93.7519Z" fill="#263238"/>
<path opacity="0.5" d="M71.7777 81.7255C66.2492 94.9864 51.0329 148.479 60.98 184.66C69.6929 216.211 89.9295 232.716 99.109 238.061C112.593 245.915 126.98 250.904 126.399 253.892C125.818 256.881 111.649 250.414 111.006 251.567C110.363 252.719 141.823 282.495 197.761 288.575C284.215 297.969 334.988 267.398 342.456 266.082C349.924 264.766 314.254 307.15 288.063 317.085C282.037 319.36 303.975 313.525 318.87 304.753C324.46 301.458 309.057 345.872 257.6 356.858C247.704 358.969 269.082 358.847 276.706 357.96C284.329 357.072 254.685 378.075 177.607 372.036C117.634 367.293 61.758 321.268 38.8038 270.519C36.2211 264.807 30.9 268.54 29.1989 264.501C25.5686 255.881 27.2489 239.214 25.4752 235.939C23.7015 232.665 17.8826 235.939 16.1401 227.207C14.3975 218.476 15.331 192.28 29.6968 150.274C31.3979 145.296 29.0537 146.979 25.9835 151.427C22.9132 155.874 19.2829 159.832 15.86 159.669C12.4371 159.506 14.2523 147.153 28.7322 124.415C53.5534 85.3468 76.798 69.7398 71.7777 81.7255Z" fill="#6777EF"/>
<path opacity="0.5" d="M130.912 259.105C131.057 254.943 147.404 256.993 145.921 262.573C144.438 268.153 130.715 264.756 130.912 259.105Z" fill="#6777EF"/>
<path opacity="0.5" d="M283.521 356.572C284.559 360.469 298.81 357.755 297.68 352.492C296.549 347.228 282.318 351.88 283.521 356.572Z" fill="#6777EF"/>
<path opacity="0.5" d="M12.4997 164.361C9.77178 164.024 7.90474 169.798 11.1824 170.869C14.4601 171.94 16.0678 164.82 12.4997 164.361Z" fill="#6777EF"/>
<path opacity="0.5" d="M346.617 263.461C348.691 266.082 362.964 257.473 357.041 253.393C352.913 250.537 344.563 260.839 346.617 263.461Z" fill="#6777EF"/>
<path d="M221.919 340.751L216.255 341.781L214.99 347.657L213.724 341.781L208.051 340.751L213.693 339.394L214.99 333.845L216.276 339.394L221.919 340.751Z" fill="#FEFEFE"/>
<path d="M86.0515 255.708L80.3882 256.738L79.1227 262.614L77.8573 256.738L72.1836 255.708L77.8262 254.351L79.1227 248.802L80.4089 254.351L86.0515 255.708Z" fill="#FEFEFE"/>
<path d="M57.299 100.933L51.6356 101.963L50.3702 107.839L49.1048 101.963L43.4414 100.933L49.0736 99.5765L50.3702 94.0273L51.6564 99.5765L57.299 100.933Z" fill="#FEFEFE"/>
<path d="M328.776 280.741L325.602 281.322L324.896 284.607L324.191 281.322L321.027 280.741L324.181 279.986L324.896 276.885L325.622 279.986L328.776 280.741Z" fill="#FEFEFE"/>
<path d="M154.363 297.959L151.199 298.541L150.494 301.815L149.789 298.541L146.625 297.959L149.768 297.205L150.494 294.104L151.22 297.205L154.363 297.959Z" fill="#FEFEFE"/>
<path d="M289.07 337.701L285.907 338.283L285.202 341.567L284.486 338.283L281.322 337.701L284.475 336.946L285.202 333.845L285.917 336.946L289.07 337.701Z" fill="#FEFEFE"/>
<path d="M187.545 361.448L184.381 362.019L183.666 365.304L182.96 362.019L179.797 361.448L182.95 360.683L183.666 357.582L184.392 360.683L187.545 361.448Z" fill="#FEFEFE"/>
<path d="M65.2638 280.741L62.0899 281.322L61.3845 284.607L60.6792 281.322L57.5156 280.741L60.6688 279.986L61.3845 276.885L62.1106 279.986L65.2638 280.741Z" fill="#FEFEFE"/>
<path d="M61.3849 188.721L58.2213 189.292L57.516 192.576L56.8107 189.292L53.6367 188.721L56.7899 187.956L57.516 184.854L58.2317 187.956L61.3849 188.721Z" fill="#FEFEFE"/>
<path d="M232.001 305.977C231.775 306.001 231.565 306.106 231.412 306.273C231.26 306.439 231.176 306.656 231.176 306.88C231.176 307.104 231.26 307.32 231.412 307.487C231.565 307.653 231.775 307.759 232.001 307.783C232.228 307.759 232.438 307.653 232.59 307.487C232.742 307.32 232.827 307.104 232.827 306.88C232.827 306.656 232.742 306.439 232.59 306.273C232.438 306.106 232.228 306.001 232.001 305.977Z" fill="#FEFEFE"/>
<path d="M37.4563 136.023C37.2297 136.047 37.02 136.153 36.8676 136.319C36.7152 136.486 36.6309 136.702 36.6309 136.926C36.6309 137.15 36.7152 137.367 36.8676 137.533C37.02 137.7 37.2297 137.805 37.4563 137.829C37.6829 137.805 37.8926 137.7 38.045 137.533C38.1974 137.367 38.2817 137.15 38.2817 136.926C38.2817 136.702 38.1974 136.486 38.045 136.319C37.8926 136.153 37.6829 136.047 37.4563 136.023Z" fill="#FEFEFE"/>
<path d="M289.712 308.405C289.486 308.429 289.276 308.534 289.123 308.701C288.971 308.867 288.887 309.083 288.887 309.308C288.887 309.532 288.971 309.748 289.123 309.915C289.276 310.081 289.486 310.187 289.712 310.21C289.939 310.187 290.148 310.081 290.301 309.915C290.453 309.748 290.538 309.532 290.538 309.308C290.538 309.083 290.453 308.867 290.301 308.701C290.148 308.534 289.939 308.429 289.712 308.405Z" fill="#FEFEFE"/>
<path d="M43.4407 262.573C43.214 262.597 43.0043 262.702 42.8519 262.869C42.6996 263.036 42.6152 263.252 42.6152 263.476C42.6152 263.7 42.6996 263.916 42.8519 264.083C43.0043 264.25 43.214 264.355 43.4407 264.379C43.6673 264.355 43.877 264.25 44.0294 264.083C44.1818 263.916 44.2661 263.7 44.2661 263.476C44.2661 263.252 44.1818 263.036 44.0294 262.869C43.877 262.702 43.6673 262.597 43.4407 262.573Z" fill="#FEFEFE"/>
<path d="M21.4619 207.316C21.3041 207.336 21.159 207.411 21.0538 207.529C20.9487 207.646 20.8906 207.797 20.8906 207.953C20.8906 208.11 20.9487 208.261 21.0538 208.378C21.159 208.496 21.3041 208.571 21.4619 208.591C21.6197 208.571 21.7648 208.496 21.87 208.378C21.9752 208.261 22.0332 208.11 22.0332 207.953C22.0332 207.797 21.9752 207.646 21.87 207.529C21.7648 207.411 21.6197 207.336 21.4619 207.316Z" fill="#FEFEFE"/>
<path d="M166.405 322.41C166.247 322.43 166.102 322.505 165.997 322.623C165.892 322.74 165.834 322.891 165.834 323.048C165.834 323.204 165.892 323.355 165.997 323.473C166.102 323.59 166.247 323.666 166.405 323.685C166.563 323.666 166.708 323.59 166.813 323.473C166.919 323.355 166.977 323.204 166.977 323.048C166.977 322.891 166.919 322.74 166.813 322.623C166.708 322.505 166.563 322.43 166.405 322.41Z" fill="#FEFEFE"/>
<path d="M102.356 320.115C102.199 320.135 102.054 320.211 101.948 320.328C101.843 320.445 101.785 320.596 101.785 320.753C101.785 320.909 101.843 321.06 101.948 321.178C102.054 321.295 102.199 321.371 102.356 321.39C102.514 321.371 102.659 321.295 102.765 321.178C102.87 321.06 102.928 320.909 102.928 320.753C102.928 320.596 102.87 320.445 102.765 320.328C102.659 320.211 102.514 320.135 102.356 320.115Z" fill="#FEFEFE"/>
<path d="M212.47 314.862C212.027 314.895 211.613 315.092 211.311 315.413C211.01 315.733 210.842 316.154 210.842 316.591C210.842 317.028 211.01 317.449 211.311 317.769C211.613 318.09 212.027 318.286 212.47 318.32C212.913 318.286 213.327 318.09 213.629 317.769C213.93 317.449 214.098 317.028 214.098 316.591C214.098 316.154 213.93 315.733 213.629 315.413C213.327 315.092 212.913 314.895 212.47 314.862Z" fill="#FEFEFE"/>
<path d="M110.675 314.25C110.232 314.283 109.818 314.48 109.516 314.8C109.215 315.121 109.047 315.542 109.047 315.979C109.047 316.415 109.215 316.836 109.516 317.157C109.818 317.477 110.232 317.674 110.675 317.708C111.118 317.674 111.532 317.477 111.834 317.157C112.136 316.836 112.303 316.415 112.303 315.979C112.303 315.542 112.136 315.121 111.834 314.8C111.532 314.48 111.118 314.283 110.675 314.25Z" fill="#FEFEFE"/>
<path d="M114.003 186.487C113.795 187.561 113.268 188.55 112.488 189.329C111.708 190.108 110.71 190.643 109.622 190.864C108.533 191.086 107.402 190.986 106.371 190.575C105.341 190.165 104.457 189.463 103.832 188.559C103.207 187.655 102.868 186.588 102.86 185.495C102.851 184.402 103.172 183.33 103.782 182.416C104.392 181.502 105.264 180.787 106.288 180.36C107.311 179.933 108.441 179.815 109.533 180.019C110.258 180.155 110.949 180.43 111.567 180.829C112.184 181.228 112.715 181.742 113.13 182.342C113.546 182.943 113.836 183.618 113.986 184.329C114.136 185.04 114.142 185.773 114.003 186.487Z" fill="#455A64"/>
<path d="M119.275 159.135L115.057 158.346L109.777 185.643L113.995 186.432L119.275 159.135Z" fill="#455A64"/>
<path d="M133.4 181.926C133.193 183.001 132.667 183.992 131.888 184.772C131.109 185.553 130.112 186.089 129.023 186.312C127.934 186.536 126.802 186.436 125.771 186.027C124.74 185.617 123.855 184.916 123.229 184.012C122.603 183.107 122.264 182.041 122.254 180.947C122.245 179.853 122.565 178.781 123.176 177.866C123.786 176.952 124.658 176.236 125.683 175.809C126.707 175.382 127.837 175.264 128.929 175.469C130.392 175.744 131.685 176.578 132.523 177.788C133.361 178.999 133.676 180.487 133.4 181.926Z" fill="#455A64"/>
<path d="M138.678 154.578L134.459 153.789L129.179 181.086L133.398 181.875L138.678 154.578Z" fill="#455A64"/>
<path d="M138.68 154.629L114.367 161.984L115.073 158.342L139.385 150.978L138.68 154.629Z" fill="#455A64"/>
<path d="M137.352 161.504L113.039 168.859L113.744 165.217L138.057 157.853L137.352 161.504Z" fill="#455A64"/>
<path d="M356.283 40.2193C356.071 41.2916 355.54 42.278 354.759 43.0542C353.977 43.8303 352.979 44.3613 351.891 44.5802C350.803 44.799 349.673 44.696 348.644 44.2839C347.615 43.8719 346.734 43.1694 346.111 42.2651C345.487 41.3608 345.151 40.2952 345.143 39.2029C345.135 38.1105 345.456 37.0403 346.066 36.1274C346.676 35.2144 347.547 34.4997 348.57 34.0733C349.593 33.6469 350.721 33.528 351.812 33.7317C352.54 33.8661 353.234 34.1411 353.854 34.5406C354.473 34.9402 355.006 35.4564 355.422 36.0595C355.838 36.6627 356.128 37.3408 356.275 38.0547C356.423 38.7687 356.426 39.5044 356.283 40.2193Z" fill="#C7C7C7"/>
<path d="M361.576 12.8741L357.357 12.085L352.078 39.3821L356.296 40.1713L361.576 12.8741Z" fill="#C7C7C7"/>
<path d="M377.256 8.53427L373.037 7.74512L371.512 15.6316L375.73 16.4208L377.256 8.53427Z" fill="#C7C7C7"/>
<path d="M377.059 9.5659L356.656 15.7169L357.362 12.0753L377.764 5.91406L377.059 9.5659Z" fill="#C7C7C7"/>
<path d="M375.731 16.4409L355.328 22.6021L356.033 18.9503L376.436 12.7891L375.731 16.4409Z" fill="#C7C7C7"/>
<path d="M363.833 205.296C355.711 222.933 342.652 222.545 339.063 226.799C337.055 229.556 335.209 232.423 333.535 235.388L314.076 229.267C314.458 225.897 314.642 222.509 314.626 219.118C314.222 213.609 303.331 206.479 307.116 187.496C309.585 175.01 324.957 158.934 345.494 165.36C366.032 171.787 369.164 193.708 363.833 205.296Z" fill="#6777EF"/>
<path d="M322.222 199.751L318.09 232.006L319.119 232.133L323.251 199.879L322.222 199.751Z" fill="white"/>
<path d="M343.418 206.24L327.736 234.858L328.649 235.342L344.331 206.724L343.418 206.24Z" fill="white"/>
<path d="M330.995 213.406C330.644 213.416 330.293 213.368 329.958 213.263C328.433 212.783 327.282 211.11 326.711 208.55C326.711 208.438 326.711 208.315 326.639 208.203C326.356 208.395 326.035 208.526 325.698 208.589C325.36 208.653 325.013 208.646 324.678 208.57C321.764 207.652 322.511 201.379 322.542 201.114L323.06 201.175C323.06 201.236 322.324 207.295 324.834 208.081C325.134 208.136 325.444 208.126 325.74 208.05C326.035 207.974 326.311 207.835 326.545 207.642C326.12 204.766 326.483 201.297 327.832 200.083C328.042 199.887 328.303 199.75 328.586 199.689C328.87 199.628 329.165 199.644 329.439 199.737C330.715 200.134 331.13 201.379 330.559 203.133C329.889 205.008 328.695 206.658 327.116 207.897C327.116 208.081 327.178 208.254 327.22 208.438C327.531 209.815 328.309 212.212 330.113 212.773C331.327 213.161 332.841 212.6 334.397 211.212C334.522 211.1 334.657 210.978 334.781 210.845C334.063 209.028 334.019 207.02 334.657 205.174C335.352 203.042 336.586 201.981 337.903 202.389C338.156 202.472 338.382 202.621 338.555 202.821C338.729 203.02 338.844 203.262 338.889 203.521C339.272 205.265 337.654 208.621 335.393 210.957C335.758 211.622 336.366 212.125 337.094 212.365C338.878 212.926 341.814 209.233 342.799 207.765L343.224 208.04C343.079 208.275 339.459 213.65 336.939 212.855C336.135 212.588 335.457 212.045 335.03 211.325L334.74 211.59C333.746 212.608 332.421 213.251 330.995 213.406ZM337.426 202.817C336.389 202.817 335.621 204.113 335.227 205.327C334.681 206.984 334.681 208.769 335.227 210.427C337.302 208.224 338.795 205.123 338.453 203.582C338.429 203.411 338.356 203.25 338.242 203.118C338.128 202.986 337.978 202.889 337.81 202.838C337.674 202.808 337.533 202.801 337.395 202.817H337.426ZM328.993 200.165C328.857 200.164 328.721 200.19 328.595 200.241C328.469 200.292 328.354 200.366 328.257 200.461C327.22 201.42 326.711 204.439 327.095 207.306C328.475 206.15 329.523 204.659 330.134 202.98C330.414 202.124 330.674 200.634 329.346 200.216C329.208 200.179 329.064 200.161 328.921 200.165H328.993Z" fill="white"/>
<path d="M336.055 235.309L312.045 227.769L310.546 232.385L334.557 239.925L336.055 235.309Z" fill="#A6A6A6"/>
<path d="M334.305 240.665L310.295 233.125L308.796 237.74L332.807 245.281L334.305 240.665Z" fill="#A6A6A6"/>
<path d="M332.563 246.03L308.553 238.49L307.054 243.105L331.064 250.646L332.563 246.03Z" fill="#A6A6A6"/>
<path d="M349.766 149.683L347.285 157.342L348.273 157.651L350.754 149.993L349.766 149.683Z" fill="#DBDBDB"/>
<path d="M326.951 148.637L325.938 148.854L327.677 156.708L328.691 156.491L326.951 148.637Z" fill="#DBDBDB"/>
<path d="M305.611 159.087L304.844 159.773L310.345 165.719L311.112 165.032L305.611 159.087Z" fill="#DBDBDB"/>
<path d="M292.482 178.727L292.166 179.698L299.952 182.143L300.268 181.172L292.482 178.727Z" fill="#DBDBDB"/>
<path d="M299.023 200.435L291.037 202.146L291.258 203.143L299.244 201.432L299.023 200.435Z" fill="#DBDBDB"/>
<path d="M362.08 220.343L361.312 221.029L366.812 226.975L367.58 226.289L362.08 220.343Z" fill="#DBDBDB"/>
<path d="M372.507 203.978L372.191 204.95L379.978 207.395L380.293 206.424L372.507 203.978Z" fill="#DBDBDB"/>
<path d="M381.17 182.908L373.184 184.619L373.404 185.616L381.391 183.905L381.17 182.908Z" fill="#DBDBDB"/>
<path d="M369.992 162.179L363.951 167.594L364.65 168.348L370.69 162.933L369.992 162.179Z" fill="#DBDBDB"/>
</svg>
