<svg width="24" height="21" viewBox="0 0 24 21" fill="none" xmlns="http://www.w3.org/2000/svg">
<path fill-rule="evenodd" clip-rule="evenodd" d="M5.108 4.25863C5.825 4.17375 6.703 4.15887 7.759 4.15712C7.82174 3.44265 8.19044 2.77525 8.79134 2.28839C9.39224 1.80154 10.1811 1.53113 11 1.53125H13C13.8186 1.53133 14.607 1.80172 15.2077 2.28837C15.8084 2.77502 16.177 3.44209 16.24 4.15625C17.297 4.15887 18.175 4.17375 18.892 4.25863C19.792 4.36363 20.55 4.59113 21.152 5.117C21.754 5.64375 22.012 6.307 22.134 7.0945C22.25 7.85312 22.25 8.81825 22.25 10.0144V13.6106C22.25 14.8068 22.25 15.7719 22.134 16.5305C22.012 17.318 21.754 17.9813 21.152 18.508C20.55 19.0347 19.792 19.2605 18.892 19.3673C18.025 19.4688 16.922 19.4688 15.555 19.4688H8.445C7.078 19.4688 5.975 19.4688 5.108 19.3673C4.208 19.2605 3.45 19.0347 2.848 18.508C2.246 17.9813 1.988 17.318 1.867 16.5305C1.75 15.7719 1.75 14.8068 1.75 13.6106V10.0144C1.75 8.81825 1.75 7.85312 1.867 7.0945C1.987 6.307 2.247 5.64375 2.848 5.117C3.45 4.59025 4.208 4.3645 5.108 4.25863ZM14.732 4.15625H9.268C9.32811 3.79182 9.53629 3.45855 9.85439 3.2175C10.1725 2.97645 10.5792 2.84376 11 2.84375H13C13.4208 2.84376 13.8275 2.97645 14.1456 3.2175C14.4637 3.45855 14.6719 3.79182 14.732 4.15625ZM5.308 18.0661C4.574 17.9795 4.186 17.8211 3.909 17.5796C3.632 17.3372 3.452 16.9978 3.353 16.3546C3.252 15.694 3.25 14.8181 3.25 13.5625V10.6138C6.938 11.9683 9.092 12.7085 11.36 12.8013C11.786 12.8188 12.214 12.8188 12.64 12.8013C14.908 12.7085 17.062 11.9683 20.75 10.6138V13.5625C20.75 14.8181 20.748 15.694 20.647 16.3555C20.548 16.9977 20.367 17.3372 20.091 17.5796C19.814 17.822 19.426 17.9795 18.691 18.0661C17.936 18.1545 16.935 18.1562 15.5 18.1562H8.5C7.065 18.1562 6.063 18.1545 5.308 18.0661ZM20.748 9.19013C16.623 10.7083 14.639 11.4056 12.57 11.4896C12.19 11.5054 11.81 11.5054 11.43 11.4896C9.36 11.4056 7.377 10.7083 3.252 9.19013C3.257 8.3825 3.277 7.76562 3.353 7.2695C3.452 6.62725 3.633 6.28775 3.909 6.04537C4.186 5.803 4.574 5.6455 5.309 5.55888C6.063 5.4705 7.065 5.46875 8.5 5.46875H15.5C16.935 5.46875 17.936 5.4705 18.692 5.55888C19.426 5.6455 19.814 5.80387 20.091 6.04537C20.368 6.28775 20.548 6.62725 20.647 7.27038C20.723 7.76562 20.743 8.38163 20.748 9.19013Z" fill="#515151"/>
</svg>
