<?xml version="1.0" encoding="UTF-8" standalone="no"?>
<!DOCTYPE svg PUBLIC "-//W3C//DTD SVG 1.1//EN" "http://www.w3.org/Graphics/SVG/1.1/DTD/svg11.dtd">
<svg width="100%" height="100%" viewBox="0 0 512 512" version="1.1" xmlns="http://www.w3.org/2000/svg" xmlns:xlink="http://www.w3.org/1999/xlink" xml:space="preserve" xmlns:serif="http://www.serif.com/" style="fill-rule:evenodd;clip-rule:evenodd;stroke-linejoin:round;stroke-miterlimit:2;">
    <path d="M464,32L48,32C21.49,32 0,53.49 0,80L0,432C0,458.51 21.49,480 48,480L464,480C490.51,480 512,458.51 512,432L512,80C512,53.49 490.51,32 464,32ZM458,432L54,432C50.708,432 48,429.292 48,426L48,86C48,82.708 50.708,80 54,80L458,80C461.292,80 464,82.708 464,86L464,426C464,429.292 461.292,432 458,432ZM416,340L416,364C416,370.627 410.627,376 404,376L204,376C197.373,376 192,370.627 192,364L192,340C192,333.373 197.373,328 204,328L404,328C410.627,328 416,333.373 416,340ZM416,244L416,268C416,274.627 410.627,280 404,280L204,280C197.373,280 192,274.627 192,268L192,244C192,237.373 197.373,232 204,232L404,232C410.627,232 416,237.373 416,244ZM416,148L416,172C416,178.627 410.627,184 404,184L204,184C197.373,184 192,178.627 192,172L192,148C192,141.373 197.373,136 204,136L404,136C410.627,136 416,141.373 416,148ZM164,160C164,179.882 147.882,196 128,196C108.118,196 92,179.882 92,160C92,140.118 108.118,124 128,124C147.882,124 164,140.118 164,160ZM164,256C164,275.882 147.882,292 128,292C108.118,292 92,275.882 92,256C92,236.118 108.118,220 128,220C147.882,220 164,236.118 164,256ZM164,352C164,371.882 147.882,388 128,388C108.118,388 92,371.882 92,352C92,332.118 108.118,316 128,316C147.882,316 164,332.118 164,352Z" style="fill:rgb(211,211,211);fill-rule:nonzero;"/>
</svg>
