<svg width="21" height="21" viewBox="0 0 21 21" fill="none" xmlns="http://www.w3.org/2000/svg">
<path d="M10.5 19.6875C10.648 19.6866 10.7914 19.6358 10.9069 19.5431C11.1563 19.32 17.7188 14.0306 17.7188 8.53125C17.7188 6.61672 16.9582 4.7806 15.6044 3.42682C14.2506 2.07304 12.4145 1.3125 10.5 1.3125C8.58547 1.3125 6.74935 2.07304 5.39557 3.42682C4.04179 4.7806 3.28125 6.61672 3.28125 8.53125C3.28125 14.0306 9.84375 19.32 10.0931 19.5431C10.2086 19.6358 10.352 19.6866 10.5 19.6875ZM4.59375 8.53125C4.59375 6.96482 5.21601 5.46254 6.32365 4.3549C7.43129 3.24726 8.93357 2.625 10.5 2.625C12.0664 2.625 13.5687 3.24726 14.6763 4.3549C15.784 5.46254 16.4062 6.96482 16.4062 8.53125C16.4062 12.6656 11.8978 16.9378 10.5 18.1716C9.10219 16.9378 4.59375 12.6656 4.59375 8.53125Z" fill="#515151"/>
<path d="M13.7813 8.53125C13.7813 7.88228 13.5888 7.24789 13.2283 6.70829C12.8677 6.16869 12.3553 5.74812 11.7557 5.49977C11.1561 5.25142 10.4964 5.18644 9.85986 5.31305C9.22336 5.43966 8.6387 5.75217 8.17981 6.21106C7.72092 6.66995 7.40841 7.25461 7.2818 7.89111C7.15519 8.52761 7.22017 9.18736 7.46852 9.78693C7.71687 10.3865 8.13744 10.899 8.67704 11.2595C9.21664 11.6201 9.85103 11.8125 10.5 11.8125C11.3702 11.8125 12.2048 11.4668 12.8202 10.8514C13.4355 10.2361 13.7813 9.40149 13.7813 8.53125ZM8.53125 8.53125C8.53125 8.14187 8.64672 7.76123 8.86305 7.43747C9.07938 7.11371 9.38685 6.86137 9.74659 6.71236C10.1063 6.56335 10.5022 6.52437 10.8841 6.60033C11.266 6.6763 11.6168 6.8638 11.8921 7.13914C12.1675 7.41447 12.355 7.76527 12.4309 8.14717C12.5069 8.52907 12.4679 8.92492 12.3189 9.28466C12.1699 9.6444 11.9175 9.95188 11.5938 10.1682C11.27 10.3845 10.8894 10.5 10.5 10.5C9.97786 10.5 9.4771 10.2926 9.10789 9.92337C8.73867 9.55416 8.53125 9.0534 8.53125 8.53125Z" fill="#515151"/>
</svg>
