<svg width="131" height="45" viewBox="0 0 131 45" fill="none" xmlns="http://www.w3.org/2000/svg">
<path d="M14.5238 16.4339L11.1496 23.7034H5.33639L0 9.56058H6.87679L9.16906 17.2091L12.5066 9.8362H16.5777L19.8602 17.2091L22.1708 9.56058H29.0476L23.7479 23.7034H17.953L14.5238 16.4339Z" fill="black"/>
<path d="M41.5307 23.7034V21.5845C41.4084 21.8027 41.1333 22.1185 40.7054 22.532C40.2776 22.9339 39.7091 23.3014 39 23.6345C38.3032 23.956 37.4841 24.1168 36.5427 24.1168C35.0512 24.1168 33.7614 23.7723 32.6734 23.0832C31.5853 22.3942 30.7417 21.4812 30.1427 20.3442C29.5559 19.2073 29.2625 17.9727 29.2625 16.6406C29.2625 15.3084 29.5559 14.0739 30.1427 12.9369C30.7417 11.8 31.5853 10.887 32.6734 10.198C33.7614 9.49742 35.0512 9.14715 36.5427 9.14715C37.4352 9.14715 38.2115 9.27348 38.8716 9.52613C39.544 9.77878 40.0942 10.0774 40.5221 10.4219C40.9622 10.7664 41.2739 11.0937 41.4573 11.4038V9.56058H47.9123V23.7034H41.5307ZM35.6258 16.6406C35.6258 17.1459 35.7542 17.611 36.0109 18.0359C36.2676 18.4493 36.616 18.7766 37.0562 19.0178C37.4963 19.259 37.9975 19.3796 38.5599 19.3796C39.1223 19.3796 39.6174 19.259 40.0453 19.0178C40.4854 18.7766 40.8277 18.4493 41.0722 18.0359C41.3289 17.611 41.4573 17.1459 41.4573 16.6406C41.4573 16.1353 41.3289 15.6759 41.0722 15.2625C40.8277 14.8376 40.4854 14.5045 40.0453 14.2634C39.6174 14.0107 39.1223 13.8844 38.5599 13.8844C37.9975 13.8844 37.4963 14.0107 37.0562 14.2634C36.616 14.5045 36.2676 14.8376 36.0109 15.2625C35.7542 15.6759 35.6258 16.1353 35.6258 16.6406Z" fill="black"/>
<path d="M61.8731 9.56058H69.1166L62.2582 16.3133L69.9235 23.7034H62.4966L57.1418 18.2426V23.7034H50.6501V0H57.1418V14.2117L61.8731 9.56058Z" fill="black"/>
<path d="M69.8481 9.56058H72.2688V3.75533H78.6871V9.56058H81.8779V14.539H78.6871V17.2952C78.6871 17.789 78.7543 18.2139 78.8888 18.5699C79.0355 18.9145 79.3412 19.0867 79.8057 19.0867C80.0869 19.0867 80.3375 19.0293 80.5576 18.9145C80.7776 18.7881 80.9121 18.702 80.961 18.6561L83.1249 22.9626C83.0271 23.0315 82.7276 23.1636 82.2264 23.3588C81.7374 23.5426 81.1138 23.7148 80.3559 23.8756C79.6101 24.0364 78.7788 24.1168 77.8619 24.1168C76.2359 24.1168 74.8972 23.6976 73.8458 22.8593C72.7945 22.0094 72.2688 20.706 72.2688 18.9489V14.539H69.8481V9.56058Z" fill="black"/>
<path d="M43.4063 28.9574C44.4577 28.9574 45.4174 29.0378 46.2854 29.1985C47.1656 29.3593 47.893 29.5373 48.4676 29.7326C49.0544 29.9163 49.4212 30.0599 49.5679 30.1632L47.5324 33.7118C47.3123 33.5625 46.8844 33.3673 46.2487 33.1261C45.6252 32.8735 44.9345 32.7472 44.1765 32.7472C43.6753 32.7472 43.2596 32.8046 42.9295 32.9194C42.6117 33.0228 42.4527 33.2065 42.4527 33.4707C42.4527 33.7233 42.6422 33.9358 43.0212 34.108C43.4002 34.2688 43.9748 34.4124 44.745 34.5387C45.4418 34.665 46.1754 34.8775 46.9456 35.1761C47.7158 35.4632 48.3637 35.9053 48.8894 36.5025C49.4273 37.0882 49.6963 37.8748 49.6963 38.8625C49.6963 39.919 49.4518 40.7803 48.9628 41.4464C48.4737 42.101 47.8319 42.6121 47.0373 42.9796C46.2548 43.3356 45.4052 43.5825 44.4883 43.7203C43.5836 43.8581 42.7156 43.927 41.8842 43.927C40.6617 43.927 39.6042 43.8236 38.7118 43.6169C37.8193 43.4217 37.1041 43.1978 36.5662 42.9451C36.0405 42.6925 35.6798 42.4972 35.4842 42.3594L37.4831 38.4146C37.801 38.6558 38.3144 38.9314 39.0235 39.2415C39.7448 39.5515 40.4905 39.7066 41.2607 39.7066C41.9454 39.7066 42.4588 39.6377 42.8011 39.4999C43.1557 39.3506 43.333 39.1496 43.333 38.8969C43.333 38.7017 43.2474 38.5409 43.0762 38.4146C42.9051 38.2883 42.6544 38.1734 42.3244 38.0701C41.9943 37.9667 41.5786 37.8691 41.0774 37.7772C40.625 37.6968 40.1238 37.5648 39.5736 37.381C39.0235 37.1858 38.4978 36.9159 37.9966 36.5714C37.5075 36.2269 37.098 35.7905 36.7679 35.2622C36.45 34.7224 36.2911 34.0678 36.2911 33.2984C36.2911 32.3108 36.6334 31.5011 37.3181 30.8695C38.0027 30.2264 38.8829 29.7498 39.9587 29.4397C41.0468 29.1181 42.196 28.9574 43.4063 28.9574Z" fill="black"/>
<path d="M63.8874 43.5136V41.3947C63.7651 41.6129 63.4901 41.9288 63.0622 42.3422C62.6343 42.7441 62.0658 43.1116 61.3567 43.4447C60.6599 43.7662 59.8408 43.927 58.8994 43.927C57.4079 43.927 56.1182 43.5825 55.0301 42.8934C53.942 42.2044 53.0985 41.2914 52.4994 40.1544C51.9126 39.0175 51.6192 37.783 51.6192 36.4508C51.6192 35.1186 51.9126 33.8841 52.4994 32.7472C53.0985 31.6102 53.942 30.6972 55.0301 30.0082C56.1182 29.3076 57.4079 28.9574 58.8994 28.9574C59.7919 28.9574 60.5682 29.0837 61.2284 29.3363C61.9008 29.589 62.4509 29.8876 62.8788 30.2321C63.3189 30.5766 63.6307 30.9039 63.814 31.214V29.3708H70.2691V43.5136H63.8874ZM57.9825 36.4508C57.9825 36.9561 58.1109 37.4212 58.3676 37.8461C58.6244 38.2596 58.9728 38.5869 59.4129 38.828C59.853 39.0692 60.3542 39.1898 60.9166 39.1898C61.479 39.1898 61.9741 39.0692 62.402 38.828C62.8421 38.5869 63.1844 38.2596 63.4289 37.8461C63.6857 37.4212 63.814 36.9561 63.814 36.4508C63.814 35.9455 63.6857 35.4861 63.4289 35.0727C63.1844 34.6478 62.8421 34.3147 62.402 34.0736C61.9741 33.8209 61.479 33.6946 60.9166 33.6946C60.3542 33.6946 59.853 33.8209 59.4129 34.0736C58.9728 34.3147 58.6244 34.6478 58.3676 35.0727C58.1109 35.4861 57.9825 35.9455 57.9825 36.4508Z" fill="black"/>
<path d="M84.2298 29.3708H91.4734L84.6149 36.1235L92.2802 43.5136H84.8533L79.4986 38.0528V43.5136H73.0069V19.8102H79.4986V34.0219L84.2298 29.3708Z" fill="black"/>
<path d="M119.564 3.72088H130.7V28.0788C130.7 31.3547 130.026 34.1985 128.679 36.6101C127.331 39.0218 125.362 40.9009 122.774 42.2474C120.185 43.5739 117.04 44.2371 113.339 44.2371C109.637 44.2371 106.482 43.5739 103.872 42.2474C101.262 40.9009 99.2718 39.0218 97.9026 36.6101C96.5547 34.1985 95.8808 31.3547 95.8808 28.0788V3.72088H107.049V27.5061C107.049 29.1339 107.284 30.4805 107.755 31.5456C108.247 32.6108 108.964 33.4147 109.905 33.9573C110.846 34.4798 111.991 34.7411 113.339 34.7411C114.665 34.7411 115.788 34.4798 116.708 33.9573C117.628 33.4147 118.334 32.6108 118.826 31.5456C119.318 30.4805 119.564 29.1339 119.564 27.5061V3.72088Z" fill="#6777EF"/>
</svg>
