<svg width="21" height="21" viewBox="0 0 21 21" fill="none" xmlns="http://www.w3.org/2000/svg">
<path d="M17.7188 6.5625H3.28125C2.7591 6.5625 2.25835 6.76992 1.88913 7.13913C1.51992 7.50835 1.3125 8.0091 1.3125 8.53125V15.0938C1.3125 15.6159 1.51992 16.1167 1.88913 16.4859C2.25835 16.8551 2.7591 17.0625 3.28125 17.0625H17.7188C18.2409 17.0625 18.7417 16.8551 19.1109 16.4859C19.4801 16.1167 19.6875 15.6159 19.6875 15.0938V8.53125C19.6875 8.0091 19.4801 7.50835 19.1109 7.13913C18.7417 6.76992 18.2409 6.5625 17.7188 6.5625ZM18.375 15.0938C18.375 15.2678 18.3059 15.4347 18.1828 15.5578C18.0597 15.6809 17.8928 15.75 17.7188 15.75H3.28125C3.1072 15.75 2.94028 15.6809 2.81721 15.5578C2.69414 15.4347 2.625 15.2678 2.625 15.0938V8.53125C2.625 8.3572 2.69414 8.19028 2.81721 8.06721C2.94028 7.94414 3.1072 7.875 3.28125 7.875H17.7188C17.8928 7.875 18.0597 7.94414 18.1828 8.06721C18.3059 8.19028 18.375 8.3572 18.375 8.53125V15.0938Z" fill="#515151"/>
<path d="M10.5 8.53125C9.85103 8.53125 9.21663 8.72369 8.67704 9.08424C8.13744 9.44479 7.71687 9.95725 7.46852 10.5568C7.22017 11.1564 7.15519 11.8161 7.2818 12.4526C7.40841 13.0891 7.72091 13.6738 8.17981 14.1327C8.6387 14.5916 9.22336 14.9041 9.85986 15.0307C10.4964 15.1573 11.1561 15.0923 11.7557 14.844C12.3553 14.5956 12.8677 14.1751 13.2283 13.6355C13.5888 13.0959 13.7812 12.4615 13.7812 11.8125C13.7812 10.9423 13.4355 10.1077 12.8202 9.49231C12.2048 8.87695 11.3702 8.53125 10.5 8.53125ZM10.5 13.7812C10.1106 13.7812 9.72998 13.6658 9.40622 13.4495C9.08246 13.2331 8.83012 12.9256 8.68111 12.5659C8.5321 12.2062 8.49311 11.8103 8.56908 11.4284C8.64504 11.0465 8.83255 10.6957 9.10788 10.4204C9.38322 10.145 9.73402 9.95754 10.1159 9.88158C10.4978 9.80561 10.8937 9.8446 11.2534 9.99361C11.6132 10.1426 11.9206 10.395 12.137 10.7187C12.3533 11.0425 12.4688 11.4231 12.4688 11.8125C12.4688 12.3346 12.2613 12.8354 11.8921 13.2046C11.5229 13.5738 11.0221 13.7812 10.5 13.7812ZM5.25 9.1875H4.59375C4.4197 9.1875 4.25278 9.25664 4.12971 9.37971C4.00664 9.50278 3.9375 9.6697 3.9375 9.84375C3.9375 10.0178 4.00664 10.1847 4.12971 10.3078C4.25278 10.4309 4.4197 10.5 4.59375 10.5H5.25C5.42405 10.5 5.59097 10.4309 5.71404 10.3078C5.83711 10.1847 5.90625 10.0178 5.90625 9.84375C5.90625 9.6697 5.83711 9.50278 5.71404 9.37971C5.59097 9.25664 5.42405 9.1875 5.25 9.1875ZM16.4062 13.125H15.75C15.576 13.125 15.409 13.1941 15.286 13.3172C15.1629 13.4403 15.0938 13.6072 15.0938 13.7812C15.0938 13.9553 15.1629 14.1222 15.286 14.2453C15.409 14.3684 15.576 14.4375 15.75 14.4375H16.4062C16.5803 14.4375 16.7472 14.3684 16.8703 14.2453C16.9934 14.1222 17.0625 13.9553 17.0625 13.7812C17.0625 13.6072 16.9934 13.4403 16.8703 13.3172C16.7472 13.1941 16.5803 13.125 16.4062 13.125ZM4.59375 5.25H16.4062C16.5803 5.25 16.7472 5.18086 16.8703 5.05779C16.9934 4.93472 17.0625 4.7678 17.0625 4.59375C17.0625 4.4197 16.9934 4.25278 16.8703 4.12971C16.7472 4.00664 16.5803 3.9375 16.4062 3.9375H4.59375C4.4197 3.9375 4.25278 4.00664 4.12971 4.12971C4.00664 4.25278 3.9375 4.4197 3.9375 4.59375C3.9375 4.7678 4.00664 4.93472 4.12971 5.05779C4.25278 5.18086 4.4197 5.25 4.59375 5.25Z" fill="#515151"/>
</svg>
