<svg width="19" height="19" viewBox="0 0 19 19" fill="none" xmlns="http://www.w3.org/2000/svg">
<path d="M16.0312 5.9375H2.96875C2.49633 5.9375 2.04327 6.12517 1.70922 6.45922C1.37517 6.79326 1.1875 7.24633 1.1875 7.71875V13.6562C1.1875 14.1287 1.37517 14.5817 1.70922 14.9158C2.04327 15.2498 2.49633 15.4375 2.96875 15.4375H16.0312C16.5037 15.4375 16.9567 15.2498 17.2908 14.9158C17.6248 14.5817 17.8125 14.1287 17.8125 13.6562V7.71875C17.8125 7.24633 17.6248 6.79326 17.2908 6.45922C16.9567 6.12517 16.5037 5.9375 16.0312 5.9375ZM16.625 13.6562C16.625 13.8137 16.5624 13.9647 16.4511 14.0761C16.3397 14.1874 16.1887 14.25 16.0312 14.25H2.96875C2.81128 14.25 2.66026 14.1874 2.54891 14.0761C2.43756 13.9647 2.375 13.8137 2.375 13.6562V7.71875C2.375 7.56128 2.43756 7.41026 2.54891 7.29891C2.66026 7.18756 2.81128 7.125 2.96875 7.125H16.0312C16.1887 7.125 16.3397 7.18756 16.4511 7.29891C16.5624 7.41026 16.625 7.56128 16.625 7.71875V13.6562Z" fill="black"/>
<path d="M9.5 7.71875C8.91284 7.71875 8.33886 7.89286 7.85065 8.21907C7.36244 8.54528 6.98193 9.00894 6.75723 9.55141C6.53253 10.0939 6.47374 10.6908 6.58829 11.2667C6.70284 11.8426 6.98559 12.3715 7.40078 12.7867C7.81596 13.2019 8.34494 13.4847 8.92083 13.5992C9.49671 13.7138 10.0936 13.655 10.6361 13.4303C11.1786 13.2056 11.6422 12.8251 11.9684 12.3368C12.2946 11.8486 12.4688 11.2747 12.4688 10.6875C12.4688 9.90014 12.156 9.14502 11.5992 8.58828C11.0425 8.03153 10.2874 7.71875 9.5 7.71875ZM9.5 12.4687C9.1477 12.4687 8.80332 12.3643 8.51039 12.1686C8.21747 11.9728 7.98916 11.6946 7.85434 11.3692C7.71952 11.0437 7.68425 10.6855 7.75298 10.34C7.82171 9.99447 7.99135 9.67708 8.24047 9.42797C8.48958 9.17885 8.80697 9.00921 9.1525 8.94048C9.49802 8.87175 9.85617 8.90702 10.1817 9.04184C10.5071 9.17666 10.7853 9.40497 10.9811 9.69789C11.1768 9.99082 11.2812 10.3352 11.2812 10.6875C11.2812 11.1599 11.0936 11.613 10.7595 11.947C10.4255 12.2811 9.97242 12.4687 9.5 12.4687ZM4.75 8.3125H4.15625C3.99878 8.3125 3.84776 8.37506 3.73641 8.4864C3.62506 8.59775 3.5625 8.74878 3.5625 8.90625C3.5625 9.06372 3.62506 9.21474 3.73641 9.32609C3.84776 9.43744 3.99878 9.5 4.15625 9.5H4.75C4.90747 9.5 5.05849 9.43744 5.16984 9.32609C5.28119 9.21474 5.34375 9.06372 5.34375 8.90625C5.34375 8.74878 5.28119 8.59775 5.16984 8.4864C5.05849 8.37506 4.90747 8.3125 4.75 8.3125ZM14.8438 11.875H14.25C14.0925 11.875 13.9415 11.9376 13.8302 12.0489C13.7188 12.1603 13.6562 12.3113 13.6562 12.4687C13.6562 12.6262 13.7188 12.7772 13.8302 12.8886C13.9415 12.9999 14.0925 13.0625 14.25 13.0625H14.8438C15.0012 13.0625 15.1522 12.9999 15.2636 12.8886C15.3749 12.7772 15.4375 12.6262 15.4375 12.4687C15.4375 12.3113 15.3749 12.1603 15.2636 12.0489C15.1522 11.9376 15.0012 11.875 14.8438 11.875ZM4.15625 4.75H14.8438C15.0012 4.75 15.1522 4.68744 15.2636 4.57609C15.3749 4.46474 15.4375 4.31372 15.4375 4.15625C15.4375 3.99878 15.3749 3.84776 15.2636 3.73641C15.1522 3.62506 15.0012 3.5625 14.8438 3.5625H4.15625C3.99878 3.5625 3.84776 3.62506 3.73641 3.73641C3.62506 3.84776 3.5625 3.99878 3.5625 4.15625C3.5625 4.31372 3.62506 4.46474 3.73641 4.57609C3.84776 4.68744 3.99878 4.75 4.15625 4.75Z" fill="black"/>
</svg>
