<svg width="29" height="31" viewBox="0 0 29 31" fill="none" xmlns="http://www.w3.org/2000/svg">
<g filter="url(#filter0_d_1205_2282)">
<path d="M23.6042 21.0835V8.146C23.6042 7.76475 23.4527 7.39911 23.1831 7.12953C22.9135 6.85995 22.5479 6.7085 22.1667 6.7085H17.8542V2.396C17.8542 2.01475 17.7027 1.64911 17.4331 1.37953C17.1635 1.10995 16.7979 0.958496 16.4167 0.958496H12.5833C12.2021 0.958496 11.8365 1.10995 11.5669 1.37953C11.2973 1.64911 11.1458 2.01475 11.1458 2.396V6.7085H6.83333C6.45208 6.7085 6.08645 6.85995 5.81687 7.12953C5.54728 7.39911 5.39583 7.76475 5.39583 8.146V21.0835H4.4375V22.0418H24.5625V21.0835H23.6042ZM6.35417 8.146C6.35417 8.01891 6.40465 7.89704 6.49451 7.80717C6.58437 7.71731 6.70625 7.66683 6.83333 7.66683H11.1458V21.0835H6.35417V8.146ZM12.1042 7.18766V2.396C12.1042 2.26891 12.1546 2.14704 12.2445 2.05717C12.3344 1.96731 12.4563 1.91683 12.5833 1.91683H16.4167C16.5437 1.91683 16.6656 1.96731 16.7555 2.05717C16.8454 2.14704 16.8958 2.26891 16.8958 2.396V21.0835H12.1042V7.18766ZM17.8542 21.0835V7.66683H22.1667C22.2937 7.66683 22.4156 7.71731 22.5055 7.80717C22.5954 7.89704 22.6458 8.01891 22.6458 8.146V21.0835H17.8542ZM7.3125 9.5835H8.27083V10.5418H7.3125V9.5835ZM9.22917 9.5835H10.1875V10.5418H9.22917V9.5835ZM7.3125 12.4585H8.27083V13.4168H7.3125V12.4585ZM9.22917 12.4585H10.1875V13.4168H9.22917V12.4585ZM7.3125 15.3335H8.27083V16.2918H7.3125V15.3335ZM9.22917 15.3335H10.1875V16.2918H9.22917V15.3335ZM7.3125 18.2085H8.27083V19.1668H7.3125V18.2085ZM9.22917 18.2085H10.1875V19.1668H9.22917V18.2085ZM18.8125 9.5835H19.7708V10.5418H18.8125V9.5835ZM20.7292 9.5835H21.6875V10.5418H20.7292V9.5835ZM18.8125 12.4585H19.7708V13.4168H18.8125V12.4585ZM20.7292 12.4585H21.6875V13.4168H20.7292V12.4585ZM18.8125 15.3335H19.7708V16.2918H18.8125V15.3335ZM20.7292 15.3335H21.6875V16.2918H20.7292V15.3335ZM18.8125 18.2085H19.7708V19.1668H18.8125V18.2085ZM20.7292 18.2085H21.6875V19.1668H20.7292V18.2085ZM13.0625 9.5835H14.0208V10.5418H13.0625V9.5835ZM14.9792 9.5835H15.9375V10.5418H14.9792V9.5835ZM13.0625 6.7085H14.0208V7.66683H13.0625V6.7085ZM14.9792 6.7085H15.9375V7.66683H14.9792V6.7085ZM13.0625 3.8335H14.0208V4.79183H13.0625V3.8335ZM14.9792 3.8335H15.9375V4.79183H14.9792V3.8335ZM13.0625 12.4585H14.0208V13.4168H13.0625V12.4585ZM14.9792 12.4585H15.9375V13.4168H14.9792V12.4585ZM13.0625 15.3335H14.0208V16.2918H13.0625V15.3335ZM14.9792 15.3335H15.9375V16.2918H14.9792V15.3335ZM13.0625 18.2085H14.0208V19.1668H13.0625V18.2085ZM14.9792 18.2085H15.9375V19.1668H14.9792V18.2085Z" fill="black"/>
</g>
<defs>
<filter id="filter0_d_1205_2282" x="-1" y="0" width="31" height="31" filterUnits="userSpaceOnUse" color-interpolation-filters="sRGB">
<feFlood flood-opacity="0" result="BackgroundImageFix"/>
<feColorMatrix in="SourceAlpha" type="matrix" values="0 0 0 0 0 0 0 0 0 0 0 0 0 0 0 0 0 0 127 0" result="hardAlpha"/>
<feOffset dy="4"/>
<feGaussianBlur stdDeviation="2"/>
<feComposite in2="hardAlpha" operator="out"/>
<feColorMatrix type="matrix" values="0 0 0 0 0 0 0 0 0 0 0 0 0 0 0 0 0 0 0.25 0"/>
<feBlend mode="normal" in2="BackgroundImageFix" result="effect1_dropShadow_1205_2282"/>
<feBlend mode="normal" in="SourceGraphic" in2="effect1_dropShadow_1205_2282" result="shape"/>
</filter>
</defs>
</svg>
