<svg width="21" height="21" viewBox="0 0 21 21" fill="none" xmlns="http://www.w3.org/2000/svg">
<path d="M18.8125 19.25V7.4375C18.8125 7.0894 18.6742 6.75556 18.4281 6.50942C18.1819 6.26328 17.8481 6.125 17.5 6.125H13.5625V2.1875C13.5625 1.8394 13.4242 1.50556 13.1781 1.25942C12.9319 1.01328 12.5981 0.875 12.25 0.875H8.75C8.4019 0.875 8.06806 1.01328 7.82192 1.25942C7.57578 1.50556 7.4375 1.8394 7.4375 2.1875V6.125H3.5C3.1519 6.125 2.81806 6.26328 2.57192 6.50942C2.32578 6.75556 2.1875 7.0894 2.1875 7.4375V19.25H1.3125V20.125H19.6875V19.25H18.8125ZM3.0625 7.4375C3.0625 7.32147 3.10859 7.21019 3.19064 7.12814C3.27269 7.04609 3.38397 7 3.5 7H7.4375V19.25H3.0625V7.4375ZM8.3125 6.5625V2.1875C8.3125 2.07147 8.35859 1.96019 8.44064 1.87814C8.52269 1.79609 8.63397 1.75 8.75 1.75H12.25C12.366 1.75 12.4773 1.79609 12.5594 1.87814C12.6414 1.96019 12.6875 2.07147 12.6875 2.1875V19.25H8.3125V6.5625ZM13.5625 19.25V7H17.5C17.616 7 17.7273 7.04609 17.8094 7.12814C17.8914 7.21019 17.9375 7.32147 17.9375 7.4375V19.25H13.5625ZM3.9375 8.75H4.8125V9.625H3.9375V8.75ZM5.6875 8.75H6.5625V9.625H5.6875V8.75ZM3.9375 11.375H4.8125V12.25H3.9375V11.375ZM5.6875 11.375H6.5625V12.25H5.6875V11.375ZM3.9375 14H4.8125V14.875H3.9375V14ZM5.6875 14H6.5625V14.875H5.6875V14ZM3.9375 16.625H4.8125V17.5H3.9375V16.625ZM5.6875 16.625H6.5625V17.5H5.6875V16.625ZM14.4375 8.75H15.3125V9.625H14.4375V8.75ZM16.1875 8.75H17.0625V9.625H16.1875V8.75ZM14.4375 11.375H15.3125V12.25H14.4375V11.375ZM16.1875 11.375H17.0625V12.25H16.1875V11.375ZM14.4375 14H15.3125V14.875H14.4375V14ZM16.1875 14H17.0625V14.875H16.1875V14ZM14.4375 16.625H15.3125V17.5H14.4375V16.625ZM16.1875 16.625H17.0625V17.5H16.1875V16.625ZM9.1875 8.75H10.0625V9.625H9.1875V8.75ZM10.9375 8.75H11.8125V9.625H10.9375V8.75ZM9.1875 6.125H10.0625V7H9.1875V6.125ZM10.9375 6.125H11.8125V7H10.9375V6.125ZM9.1875 3.5H10.0625V4.375H9.1875V3.5ZM10.9375 3.5H11.8125V4.375H10.9375V3.5ZM9.1875 11.375H10.0625V12.25H9.1875V11.375ZM10.9375 11.375H11.8125V12.25H10.9375V11.375ZM9.1875 14H10.0625V14.875H9.1875V14ZM10.9375 14H11.8125V14.875H10.9375V14ZM9.1875 16.625H10.0625V17.5H9.1875V16.625ZM10.9375 16.625H11.8125V17.5H10.9375V16.625Z" fill="#515151"/>
</svg>
