<svg width="16" height="17" viewBox="0 0 16 17" fill="none" xmlns="http://www.w3.org/2000/svg">
<path d="M0.00291729 13.5109C0.00291729 13.7959 0.0662498 14.0888 0.200833 14.3738C0.335417 14.6588 0.509583 14.928 0.739165 15.1813C1.12708 15.6088 1.55458 15.9176 2.0375 16.1155C2.5125 16.3134 3.02708 16.4163 3.58125 16.4163C4.38875 16.4163 5.25167 16.2263 6.16208 15.8384C7.0725 15.4505 7.98292 14.928 8.88542 14.2709C9.80525 13.5981 10.6732 12.8571 11.4821 12.0543C12.2826 11.2483 13.021 10.383 13.6908 9.46551C14.34 8.56301 14.8625 7.66051 15.2425 6.76592C15.6225 5.86342 15.8125 5.00051 15.8125 4.17717C15.8125 3.63884 15.7175 3.12426 15.5275 2.64926C15.3375 2.16634 15.0367 1.72301 14.6171 1.32717C14.1104 0.828425 13.5562 0.583008 12.9704 0.583008C12.7487 0.583008 12.5271 0.630508 12.3292 0.725508C12.1233 0.820508 11.9412 0.963008 11.7987 1.16884L9.96208 3.75759C9.81958 3.95551 9.71667 4.13759 9.64542 4.31176C9.57417 4.47801 9.53458 4.64426 9.53458 4.79467C9.53458 4.98467 9.59 5.17467 9.70083 5.35676C9.80375 5.53884 9.95417 5.72884 10.1442 5.91884L10.7458 6.54426C10.8329 6.63134 10.8725 6.73426 10.8725 6.86092C10.8725 6.92426 10.8646 6.97967 10.8487 7.04301C10.825 7.10634 10.8012 7.15384 10.7854 7.20134C10.6429 7.46259 10.3975 7.80301 10.0492 8.21467C9.69292 8.62634 9.31292 9.04592 8.90125 9.46551C8.47375 9.88509 8.06208 10.273 7.6425 10.6293C7.23083 10.9776 6.89042 11.2151 6.62125 11.3576C6.58167 11.3734 6.53417 11.3972 6.47875 11.4209C6.41542 11.4447 6.35208 11.4526 6.28083 11.4526C6.14625 11.4526 6.04333 11.4051 5.95625 11.318L5.35458 10.7243C5.15667 10.5263 4.96667 10.3759 4.78458 10.2809C4.6025 10.1701 4.42042 10.1147 4.2225 10.1147C4.07208 10.1147 3.91375 10.1463 3.73958 10.2176C3.56542 10.2888 3.38333 10.3918 3.18542 10.5263L0.565 12.3868C0.359166 12.5293 0.216666 12.6955 0.129583 12.8934C0.0504169 13.0913 0.00291729 13.2893 0.00291729 13.5109Z" fill="black"/>
</svg>
