<svg width="48" height="48" viewBox="0 0 48 48" fill="none" xmlns="http://www.w3.org/2000/svg">
<path fill-rule="evenodd" clip-rule="evenodd" d="M24 44C35.046 44 44 35.046 44 24C44 12.954 35.046 4 24 4C12.954 4 4 12.954 4 24C4 35.046 12.954 44 24 44ZM22 16C22 15.4696 22.2107 14.9609 22.5858 14.5858C22.9609 14.2107 23.4696 14 24 14C24.5304 14 25.0391 14.2107 25.4142 14.5858C25.7893 14.9609 26 15.4696 26 16V22H32C32.5304 22 33.0391 22.2107 33.4142 22.5858C33.7893 22.9609 34 23.4696 34 24C34 24.5304 33.7893 25.0391 33.4142 25.4142C33.0391 25.7893 32.5304 26 32 26H26V32C26 32.5304 25.7893 33.0391 25.4142 33.4142C25.0391 33.7893 24.5304 34 24 34C23.4696 34 22.9609 33.7893 22.5858 33.4142C22.2107 33.0391 22 32.5304 22 32V26H16C15.4696 26 14.9609 25.7893 14.5858 25.4142C14.2107 25.0391 14 24.5304 14 24C14 23.4696 14.2107 22.9609 14.5858 22.5858C14.9609 22.2107 15.4696 22 16 22H22V16Z" fill="#6D6D6D"/>
</svg>
