<svg width="19" height="19" viewBox="0 0 19 19" fill="none" xmlns="http://www.w3.org/2000/svg">
<g clip-path="url(#clip0_1205_2821)">
<path d="M9.49891 0.379883C4.47037 0.379883 0.378906 4.47134 0.378906 9.49988C0.378906 14.5284 4.47037 18.6199 9.49891 18.6199C14.5274 18.6199 18.6189 14.5284 18.6189 9.49988C18.6189 4.47134 14.5274 0.379883 9.49891 0.379883ZM9.49891 17.8599C4.88913 17.8599 1.13891 14.1097 1.13891 9.49988C1.13891 4.8901 4.88913 1.13988 9.49891 1.13988C14.1087 1.13988 17.8589 4.8901 17.8589 9.49988C17.8589 14.1097 14.1087 17.8599 9.49891 17.8599Z" fill="black"/>
<path d="M9.87835 8.84542V2.66016H9.11835V8.84542C8.89225 8.9769 8.73835 9.21934 8.73835 9.50016C8.73835 9.5678 8.75013 9.63202 8.76647 9.69472L5.42969 13.0315L5.96701 13.5688L9.30379 10.232C9.36649 10.2484 9.43071 10.2602 9.49835 10.2602C9.59897 10.318 9.71153 10.3519 9.82734 10.3593C9.94315 10.3667 10.0591 10.3474 10.1663 10.3029C10.2735 10.2585 10.369 10.1899 10.4455 10.1027C10.522 10.0154 10.5775 9.91176 10.6076 9.79969C10.6377 9.68761 10.6416 9.57012 10.6191 9.45627C10.5966 9.34243 10.5483 9.23527 10.4778 9.14306C10.4074 9.05085 10.3167 8.97606 10.2127 8.92446C10.1088 8.87285 9.99439 8.84581 9.87835 8.84542Z" fill="black"/>
</g>
<defs>
<clipPath id="clip0_1205_2821">
<rect width="19" height="19" fill="white"/>
</clipPath>
</defs>
</svg>
