<svg width="24" height="24" viewBox="0 0 24 24" fill="none" xmlns="http://www.w3.org/2000/svg">
<path d="M11.9984 21.5999C10.0997 21.5999 8.24368 21.0369 6.66497 19.982C5.08626 18.9272 3.8558 17.4278 3.1292 15.6737C2.4026 13.9195 2.21249 11.9893 2.5829 10.127C2.95332 8.26482 3.86763 6.55427 5.21022 5.21168C6.5528 3.8691 8.26336 2.95479 10.1256 2.58437C11.9878 2.21395 13.918 2.40406 15.6722 3.13066C17.4264 3.85726 18.9257 5.08772 19.9806 6.66643C21.0354 8.24514 21.5984 10.1012 21.5984 11.9999C21.5984 14.546 20.587 16.9878 18.7867 18.7881C16.9863 20.5885 14.5445 21.5999 11.9984 21.5999ZM11.9984 3.99991C10.4162 3.99991 8.86947 4.4691 7.55388 5.34815C6.23829 6.2272 5.21291 7.47663 4.60741 8.93844C4.0019 10.4002 3.84348 12.0088 4.15216 13.5606C4.46084 15.1125 5.22277 16.5379 6.34159 17.6568C7.46041 18.7756 8.88587 19.5375 10.4377 19.8462C11.9896 20.1549 13.5981 19.9964 15.0599 19.3909C16.5217 18.7854 17.7711 17.7601 18.6502 16.4445C19.5292 15.1289 19.9984 13.5822 19.9984 11.9999C19.9984 9.87818 19.1556 7.84334 17.6553 6.34305C16.155 4.84276 14.1202 3.99991 11.9984 3.99991Z" fill="#797979"/>
<path d="M15.9992 16.4002C15.801 16.3997 15.6099 16.3256 15.4632 16.1922L11.4632 12.5922C11.3803 12.5174 11.314 12.4261 11.2686 12.3241C11.2231 12.2222 11.1995 12.1118 11.1992 12.0002V8.0002C11.1992 7.78802 11.2835 7.58454 11.4335 7.43451C11.5836 7.28448 11.787 7.2002 11.9992 7.2002C12.2114 7.2002 12.4149 7.28448 12.5649 7.43451C12.7149 7.58454 12.7992 7.78802 12.7992 8.0002V11.6402L16.5352 15.0002C16.6575 15.1081 16.744 15.2507 16.7829 15.4091C16.8219 15.5675 16.8115 15.734 16.7532 15.8863C16.6949 16.0386 16.5914 16.1694 16.4567 16.2613C16.3219 16.3531 16.1623 16.4016 15.9992 16.4002Z" fill="#797979"/>
</svg>
