<svg width="19" height="23" viewBox="0 0 19 23" fill="none" xmlns="http://www.w3.org/2000/svg">
<path d="M18.2096 7.66667C18.2096 8.72083 17.4971 9.58333 16.6263 9.58333C16.4838 9.58333 16.3492 9.56417 16.2226 9.51625L13.4042 12.9183C13.4438 13.0717 13.4596 13.2442 13.4596 13.4167C13.4596 14.4708 12.7471 15.3333 11.8763 15.3333C11.0055 15.3333 10.293 14.4708 10.293 13.4167C10.293 13.2442 10.3088 13.0717 10.3484 12.9183L8.32964 10.4746C8.20297 10.5225 8.06047 10.5417 7.91797 10.5417C7.77547 10.5417 7.63297 10.5225 7.5063 10.4746L3.90422 14.8446C3.9438 14.9979 3.95964 15.1608 3.95964 15.3333C3.95964 16.3875 3.24714 17.25 2.3763 17.25C1.50547 17.25 0.792969 16.3875 0.792969 15.3333C0.792969 14.2792 1.50547 13.4167 2.3763 13.4167C2.5188 13.4167 2.65339 13.4358 2.78005 13.4837L6.39005 9.12333C6.35047 8.97 6.33464 8.7975 6.33464 8.625C6.33464 7.57083 7.04713 6.70833 7.91797 6.70833C8.7888 6.70833 9.5013 7.57083 9.5013 8.625C9.5013 8.7975 9.48547 8.97 9.44589 9.12333L11.4646 11.5671C11.5913 11.5192 11.7338 11.5 11.8763 11.5C12.0188 11.5 12.1613 11.5192 12.288 11.5671L15.0984 8.15542C15.0588 8.00208 15.043 7.83917 15.043 7.66667C15.043 6.6125 15.7555 5.75 16.6263 5.75C17.4971 5.75 18.2096 6.6125 18.2096 7.66667ZM18.2096 7.66667C18.2096 8.72083 17.4971 9.58333 16.6263 9.58333C16.4838 9.58333 16.3492 9.56417 16.2226 9.51625L13.4042 12.9183C13.4438 13.0717 13.4596 13.2442 13.4596 13.4167C13.4596 14.4708 12.7471 15.3333 11.8763 15.3333C11.0055 15.3333 10.293 14.4708 10.293 13.4167C10.293 13.2442 10.3088 13.0717 10.3484 12.9183L8.32964 10.4746C8.20297 10.5225 8.06047 10.5417 7.91797 10.5417C7.77547 10.5417 7.63297 10.5225 7.5063 10.4746L3.90422 14.8446C3.9438 14.9979 3.95964 15.1608 3.95964 15.3333C3.95964 16.3875 3.24714 17.25 2.3763 17.25C1.50547 17.25 0.792969 16.3875 0.792969 15.3333C0.792969 14.2792 1.50547 13.4167 2.3763 13.4167C2.5188 13.4167 2.65339 13.4358 2.78005 13.4837L6.39005 9.12333C6.35047 8.97 6.33464 8.7975 6.33464 8.625C6.33464 7.57083 7.04713 6.70833 7.91797 6.70833C8.7888 6.70833 9.5013 7.57083 9.5013 8.625C9.5013 8.7975 9.48547 8.97 9.44589 9.12333L11.4646 11.5671C11.5913 11.5192 11.7338 11.5 11.8763 11.5C12.0188 11.5 12.1613 11.5192 12.288 11.5671L15.0984 8.15542C15.0588 8.00208 15.043 7.83917 15.043 7.66667C15.043 6.6125 15.7555 5.75 16.6263 5.75C17.4971 5.75 18.2096 6.6125 18.2096 7.66667Z" fill="black"/>
</svg>
