<svg width="19" height="20" viewBox="0 0 19 20" fill="none" xmlns="http://www.w3.org/2000/svg">
<path d="M1.60839 15.0119C1.60839 15.2969 1.67172 15.5898 1.8063 15.8748C1.94089 16.1598 2.11505 16.429 2.34463 16.6823C2.73255 17.1098 3.16005 17.4186 3.64297 17.6165C4.11797 17.8144 4.63255 17.9173 5.18672 17.9173C5.99422 17.9173 6.85714 17.7273 7.76755 17.3394C8.67797 16.9515 9.58839 16.429 10.4909 15.7719C11.4107 15.0991 12.2787 14.3581 13.0876 13.5552C13.8881 12.7493 14.6265 11.8839 15.2963 10.9665C15.9455 10.064 16.468 9.16148 16.848 8.2669C17.228 7.3644 17.418 6.50148 17.418 5.67815C17.418 5.13982 17.323 4.62523 17.133 4.15023C16.943 3.66732 16.6421 3.22398 16.2226 2.82815C15.7159 2.3294 15.1617 2.08398 14.5759 2.08398C14.3542 2.08398 14.1326 2.13148 13.9346 2.22648C13.7288 2.32148 13.5467 2.46398 13.4042 2.66982L11.5676 5.25857C11.4251 5.45648 11.3221 5.63857 11.2509 5.81273C11.1796 5.97898 11.1401 6.14523 11.1401 6.29565C11.1401 6.48565 11.1955 6.67565 11.3063 6.85773C11.4092 7.03982 11.5596 7.22982 11.7496 7.41982L12.3513 8.04523C12.4384 8.13232 12.478 8.23523 12.478 8.3619C12.478 8.42523 12.4701 8.48065 12.4542 8.54398C12.4305 8.60732 12.4067 8.65482 12.3909 8.70232C12.2484 8.96357 12.003 9.30398 11.6546 9.71565C11.2984 10.1273 10.9184 10.5469 10.5067 10.9665C10.0792 11.3861 9.66755 11.774 9.24797 12.1302C8.8363 12.4786 8.49589 12.7161 8.22672 12.8586C8.18714 12.8744 8.13964 12.8982 8.08422 12.9219C8.02089 12.9457 7.95755 12.9536 7.8863 12.9536C7.75172 12.9536 7.6488 12.9061 7.56172 12.819L6.96005 12.2252C6.76214 12.0273 6.57213 11.8769 6.39005 11.7819C6.20797 11.6711 6.02589 11.6157 5.82797 11.6157C5.67755 11.6157 5.51922 11.6473 5.34505 11.7186C5.17089 11.7898 4.9888 11.8927 4.79088 12.0273L2.17047 13.8877C1.96463 14.0302 1.82213 14.1965 1.73505 14.3944C1.65589 14.5923 1.60839 14.7902 1.60839 15.0119Z" fill="#515151"/>
</svg>
