<svg width="20" height="14" viewBox="0 0 20 14" fill="none" xmlns="http://www.w3.org/2000/svg">
<path d="M0.5 1.64544V1.16667C0.5 0.857247 0.625111 0.560501 0.847811 0.341709C1.07051 0.122916 1.37256 0 1.6875 0L18.3125 0C18.6274 0 18.9295 0.122916 19.1522 0.341709C19.3749 0.560501 19.5 0.857247 19.5 1.16667V1.64544L10 7.47877L0.5 1.64544ZM10.3147 8.66148C10.2203 8.71936 10.1113 8.75004 10 8.75004C9.88873 8.75004 9.7797 8.71936 9.68531 8.66148L0.5 3.02123V12.8333C0.5 13.1428 0.625111 13.4395 0.847811 13.6583C1.07051 13.8771 1.37256 14 1.6875 14H18.3125C18.6274 14 18.9295 13.8771 19.1522 13.6583C19.3749 13.4395 19.5 13.1428 19.5 12.8333V3.02123L10.3147 8.66148Z" fill="#515151"/>
</svg>
